<?xml version="1.0" encoding="UTF-8" standalone="no"?>
<svg width="220" height="100" viewBox="0 0 226 60" fill="none" xmlns="http://www.w3.org/2000/svg"><path d="M83.4783 17.2703H97.9054V20.2592H86.9516V27.2718H97.1568V30.2497H86.9516V37.2953H98.043V40.2842H83.4783V17.2703Z" fill="currentColor"></path> <path d="M103.845 17.2703H112.272C117.171 17.2703 119.532 19.9124 119.532 23.3141C119.532 26.1929 117.765 27.6296 115.657 28.169V28.3947C117.936 28.5158 120.435 30.5304 120.435 34.0918C120.435 37.6201 118.018 40.2842 112.668 40.2842H103.845V17.2703ZM111.975 27.2278C114.314 27.2278 116.13 25.8131 116.13 23.5838C116.13 21.6738 114.815 20.2261 112.063 20.2261H107.318V27.2278H111.975ZM112.332 37.3064C115.668 37.3064 116.984 35.8587 116.984 33.9211C116.984 31.7304 115.244 29.9304 112.454 29.9304H107.318V37.3009H112.332V37.3064Z" fill="currentColor"></path> <path d="M126.237 17.2703H134.438C139.777 17.2703 142.409 20.2482 142.409 24.4866C142.409 27.5745 141.005 29.9249 138.181 30.9708L143.284 40.2842H139.326L134.653 31.5763C134.576 31.5763 134.504 31.5763 134.427 31.5763H129.704V40.2842H126.231V17.2703H126.237ZM134.113 28.5874C137.499 28.5874 138.913 27.0791 138.913 24.4866C138.913 21.8775 137.499 20.2482 134.069 20.2482H129.71V28.5874H134.113V28.5874Z" fill="currentColor"></path> <path d="M147.324 40.2842L155.608 17.2703H159.621L167.9 40.2842H164.212L162.109 34.1909H153.12L151.012 40.2842H147.324ZM161.102 31.2735L157.705 21.4536H157.524L154.127 31.2735H161.102V31.2735Z" fill="currentColor"></path> <path d="M176.206 40.2842H172.732V17.2703H176.206V40.2842Z" fill="currentColor"></path> <path d="M201.664 40.2842H198.471L186.774 23.4022H186.56V40.2842H183.086V17.2703H186.301L198.009 34.1743H198.223V17.2703H201.664V40.2842V40.2842Z" fill="currentColor"></path> <path d="M215.964 19.9565C213.135 19.9565 211.346 21.4041 211.346 23.3637C211.335 25.5655 213.729 26.4076 215.529 26.87L217.775 27.4535C220.698 28.1746 224.397 29.7818 224.397 33.9267C224.397 37.8238 221.281 40.6696 215.876 40.6696C210.718 40.6696 207.493 38.0935 207.267 33.9267H210.752C210.955 36.4312 213.179 37.6256 215.854 37.6256C218.81 37.6256 220.957 36.145 220.957 33.8936C220.957 31.846 219.058 31.0369 216.597 30.3873L213.878 29.6442C210.179 28.6424 207.889 26.7654 207.889 23.5618C207.889 19.5932 211.429 16.9565 216.047 16.9565C220.72 16.9565 223.979 19.6317 224.083 23.3197H220.737C220.483 21.1949 218.606 19.9565 215.964 19.9565Z" fill="currentColor"></path> <path d="M30.8609 0L16.0296 4.05503L5.21433 14.9819L1.30432 29.8522L5.35936 44.6835L16.1579 55.4262L31.0115 60L45.9878 55.3537L56.7306 44.5552L60.7131 29.551L56.658 14.7197L45.7312 3.90443L30.8609 0Z" fill="url(#paint0_linear)"></path> <path d="M56.0446 45.2468C54.3155 44.7337 52.5976 44.1703 50.9075 43.5344C45.96 41.6659 41.8994 38.3137 36.9296 36.5511C32.3726 34.9335 27.5869 33.924 22.8235 33.1431C21.747 32.9646 20.6258 32.7247 19.5326 32.7303C16.4816 32.7526 14.1947 34.6435 12.5939 37.0587C10.9261 39.5742 8.48304 43.0603 5.50452 44.8285" stroke="white" stroke-width="0.6" stroke-miterlimit="10" stroke-linecap="round" stroke-linejoin="round"></path> <path d="M56.82 44.2149C54.8734 43.6627 52.9379 43.0547 51.0359 42.3519C46.1944 40.567 42.1059 37.4435 37.348 35.4411C33.4157 33.7901 29.3551 32.2283 25.2554 31.0458C20.8657 29.7796 17.2848 31.7486 14.1669 34.5988C12.2369 36.367 10.2401 38.0682 8.13171 39.6132C7.11656 40.3551 5.90061 41.2922 4.60657 41.9726" stroke="white" stroke-width="0.3" stroke-miterlimit="10" stroke-linecap="round" stroke-linejoin="round"></path> <path d="M57.1323 43.0546C55.0406 42.4857 52.9713 41.8554 50.9298 41.1136C46.2835 39.4235 42.2452 36.2665 37.9559 33.8402C34.5312 31.9103 30.3757 28.7309 26.343 28.2959C21.641 27.7883 18.3055 30.6831 14.5739 32.9979C12.0863 34.543 9.57626 36.0545 6.99376 37.4434C6.07901 37.9342 4.98019 38.6259 3.8479 39.1446" stroke="white" stroke-width="0.3" stroke-miterlimit="10" stroke-linecap="round" stroke-linejoin="round"></path> <path d="M57.4167 41.9782C55.1745 41.4148 52.9545 40.779 50.7904 39.9646C45.9321 38.1407 41.8492 33.9574 37.8834 30.7279C33.8842 27.476 29.8682 23.8337 24.2848 26.3158C20.927 27.8107 17.664 29.5398 14.3453 31.1071C11.5285 32.4402 8.70056 33.7566 5.83917 34.9948C5.03039 35.3407 4.05428 35.8817 3.06702 36.2833" stroke="white" stroke-width="0.6" stroke-miterlimit="10" stroke-linecap="round" stroke-linejoin="round"></path> <path d="M57.7069 40.885C55.1858 40.2993 52.6869 39.6188 50.2941 38.6315C44.4151 36.2052 41.5816 30.0752 37.9226 25.3397C34.8827 21.4074 29.8627 22.774 26.0085 24.2688C21.3734 26.0648 16.7383 27.8553 12.092 29.6179C9.50947 30.5996 6.92139 31.5812 4.32215 32.5239C3.72533 32.7414 3.00022 33.0984 2.26953 33.3773" stroke="white" stroke-width="0.3" stroke-miterlimit="10" stroke-linecap="round" stroke-linejoin="round"></path> <path d="M58.1586 39.1895C55.0909 38.5871 52.051 37.8062 49.3569 36.3393C44.811 33.8683 43.0485 28.4411 40.3042 24.3248C38.4301 21.5136 35.0611 19.79 31.72 20.7104C30.3423 21.0897 28.9869 21.5861 27.6259 22.0211C22.0203 23.8116 16.4202 25.6021 10.8146 27.3925C7.6966 28.3909 4.57305 29.3838 1.45508 30.3822" stroke="white" stroke-width="0.6" stroke-miterlimit="10" stroke-linecap="round" stroke-linejoin="round"></path> <path d="M58.6496 37.3377C55.1635 36.2779 51.7722 35.0229 48.7825 32.7751C44.9004 29.8523 41.933 25.5686 38.6979 21.9821C35.329 18.245 31.101 18.4569 26.8061 19.9295C21.7471 21.6697 16.6937 23.4323 11.6681 25.2618C8.76208 26.316 5.85606 27.3869 2.98909 28.5471C2.60981 28.7033 2.07434 28.865 1.51099 29.0603" stroke="white" stroke-width="0.3" stroke-miterlimit="10" stroke-linecap="round" stroke-linejoin="round"></path> <path d="M59.5364 33.9797C56.3348 32.7582 53.161 31.4864 50.1936 29.7406C45.5027 26.9796 41.7043 23.0584 37.5823 19.5444C33.689 16.2257 29.4109 16.2312 24.8092 17.9436C20.308 19.6225 15.8235 21.3572 11.3891 23.2034C8.75085 24.3023 6.12372 25.429 3.56353 26.7007C3.07827 26.9405 2.50376 27.1971 1.91809 27.4816" stroke="white" stroke-width="0.6" stroke-miterlimit="10" stroke-linecap="round" stroke-linejoin="round"></path> <path d="M60.5403 30.2093C53.0772 26.4778 45.8094 22.4841 38.5918 18.2673C34.1965 15.696 29.9407 13.437 24.6585 15.2888C21.2115 16.4936 17.8258 17.9494 14.4791 19.4108C11.5619 20.6825 8.65594 22.0212 5.86705 23.555C4.78497 24.1519 3.54113 24.7933 2.43115 25.5742" stroke="white" stroke-width="0.6" stroke-miterlimit="10" stroke-linecap="round" stroke-linejoin="round"></path> <path d="M60.1108 27.3645C56.6749 25.2617 53.2334 23.1867 49.5911 21.4242C45.9879 19.6783 42.2564 18.1668 38.5862 16.5715C34.6762 14.8703 30.9502 12.7619 26.5605 12.9013C22.5111 13.0296 18.774 15.0655 15.2042 16.8002C11.2496 18.7301 6.36345 20.9166 2.82715 24.0625" stroke="white" stroke-width="0.3" stroke-miterlimit="10" stroke-linecap="round" stroke-linejoin="round"></path> <path d="M59.1849 23.9565C56.1171 21.6083 53.0716 19.3827 49.4684 17.7875C46.1273 16.3094 42.4795 15.4448 38.9878 14.4018C35.7527 13.4368 32.5343 12.3492 29.2657 11.5014C24.5972 10.291 20.1461 11.7468 16.0297 13.8552C11.6177 16.1197 6.9045 18.8194 3.24548 22.3836" stroke="white" stroke-width="0.6" stroke-miterlimit="10" stroke-linecap="round" stroke-linejoin="round"></path> <defs><linearGradient id="paint0_linear" x1="1.30633" y1="29.9995" x2="60.7118" y2="29.9995" gradientUnits="userSpaceOnUse"><stop stop-color="#FFDB00"></stop> <stop offset="0.5" stop-color="#56C54E"></stop> <stop offset="1" stop-color="#007F7B"></stop></linearGradient></defs></svg>