<svg width="1083" height="206" viewBox="0 0 1083 206" fill="none" xmlns="http://www.w3.org/2000/svg">
<path d="M194.368 56.415L148.785 10.6812L102.6 0L56.415 10.6812L10.6812 56.415L0 102.6L10.6812 148.785L56.415 194.368L102.6 205.2L148.785 194.368L194.368 148.785L205.2 102.6L194.368 56.415Z" fill="white"/>
<path d="M102.6 0V205.2L56.415 194.519L10.6812 148.785L0 102.6L10.6812 56.415L56.415 10.6812L102.6 0Z" fill="url(#paint0_linear)"/>
<path d="M102.6 0V205.2L148.785 194.519L194.368 148.785L205.2 102.6L194.368 56.415L148.785 10.6812L102.6 0Z" fill="url(#paint1_linear)"/>
<path d="M56.4149 194.368L102.6 0L10.6812 148.785L102.6 102.901L10.6812 56.415" fill="url(#paint2_linear)"/>
<path d="M56.4149 194.368L102.6 194.669V205.2L56.4149 194.368Z" fill="url(#paint3_linear)"/>
<path d="M56.4149 10.6812L102.6 10.5308V0L56.4149 10.6812Z" fill="url(#paint4_linear)"/>
<path d="M10.6812 148.785L56.415 194.368L43.0258 160.068L10.6812 148.785Z" fill="url(#paint5_linear)"/>
<path d="M10.6812 56.415L56.415 10.6812L43.0258 45.5833L10.6812 56.415Z" fill="url(#paint6_linear)"/>
<path d="M10.6812 102.6L43.0258 45.5833L10.6812 56.4149V102.6Z" fill="url(#paint7_linear)"/>
<path d="M10.6812 102.6L43.0258 160.068L10.6812 148.785V102.6Z" fill="url(#paint8_linear)"/>
<path d="M56.415 10.6812L43.0259 45.5833L102.6 10.5308L56.415 10.6812Z" fill="url(#paint9_linear)"/>
<path d="M56.415 194.368L43.0259 160.068L102.6 194.669L56.415 194.368Z" fill="url(#paint10_linear)"/>
<path d="M10.6812 102.6L56.2645 102.75L43.0258 45.5833L10.6812 102.6Z" fill="url(#paint11_linear)"/>
<path d="M10.6812 102.6L56.2645 102.75L43.0258 160.068L10.6812 102.6Z" fill="url(#paint12_linear)"/>
<path d="M43.0259 45.5833L102.6 66.1935V10.5308L43.0259 45.5833Z" fill="url(#paint13_linear)"/>
<path d="M102.6 66.0431L56.2646 102.75L43.0259 45.5833L102.6 66.0431Z" fill="url(#paint14_linear)"/>
<path d="M43.0259 160.068L102.6 139.608V194.669L43.0259 160.068Z" fill="url(#paint15_linear)"/>
<path d="M102.6 139.608L74.7687 116.741L56.2646 102.75L43.0259 160.068L102.6 139.608Z" fill="url(#paint16_linear)"/>
<path d="M56.2645 102.75L102.6 103.051V139.608L74.7686 116.741L56.2645 102.75Z" fill="url(#paint17_linear)"/>
<path d="M56.2645 102.75L102.6 103.051V66.0432L56.2645 102.75Z" fill="url(#paint18_linear)"/>
<path d="M56.2645 10.5308L102.6 205.2L27.3801 72.9633L56.2645 10.5308Z" fill="url(#paint19_linear)"/>
<path d="M102.6 66.0432L74.7686 116.741L10.6812 148.785L102.6 139.608" fill="url(#paint20_linear)"/>
<path d="M102.6 139.608L74.7686 116.741L56.2645 102.75L10.6812 56.5654L102.6 66.0431" fill="url(#paint21_linear)"/>
<path d="M73.4148 27.8313L102.6 139.608V10.5308" fill="url(#paint22_linear)"/>
<path d="M65.4412 185.342L102.6 76.4235V205.2" fill="url(#paint23_linear)"/>
<path d="M10.6812 56.415L56.2645 102.75L10.6812 102.6H0" fill="url(#paint24_linear)"/>
<path d="M10.6812 56.415L27.38 73.2642L10.6812 102.6" fill="url(#paint25_linear)"/>
<path opacity="0.3" d="M56.2645 102.75L10.6812 148.785L43.1762 45.4329" fill="url(#paint26_linear)"/>
<path opacity="0.3" d="M56.2645 102.75L10.6812 56.415L43.1762 159.165" fill="url(#paint27_linear)"/>
<path opacity="0.3" d="M101.998 148.484L56.4149 194.368L88.7595 91.1666" fill="url(#paint28_linear)"/>
<path opacity="0.3" d="M101.998 56.7158L56.4149 10.6812L88.7595 114.033" fill="url(#paint29_linear)"/>
<path d="M102.6 66.0431L43.0259 45.5833L56.2646 102.75" fill="url(#paint30_linear)"/>
<path d="M102.6 139.759L43.0259 160.068L74.7687 116.741" fill="url(#paint31_linear)"/>
<path d="M82.742 10.6812L102.6 66.0431L43.0259 45.5833" fill="url(#paint32_linear)"/>
<path d="M82.742 194.97L102.6 139.608L43.0259 160.218" fill="url(#paint33_linear)"/>
<path opacity="0.3" d="M56.2645 102.75L56.415 10.6812L26.7783 50.9991L10.6812 102.6" fill="url(#paint34_linear)"/>
<path opacity="0.3" d="M56.2645 102.75L56.415 194.368L28.4331 154.953L10.6812 102.6" fill="url(#paint35_linear)"/>
<path d="M114.936 194.669L66.4943 152.095L77.3259 194.368" fill="url(#paint36_linear)"/>
<path d="M114.184 10.3804L65.7421 53.4062L76.8747 10.3804" fill="url(#paint37_linear)"/>
<path opacity="0.7" d="M0 102.6H10.6812V56.415L0 102.6Z" fill="url(#paint38_linear)"/>
<path opacity="0.7" d="M0 102.6H10.6812V148.785L0 102.6Z" fill="url(#paint39_linear)"/>
<path d="M148.785 194.368L102.6 0L194.368 148.785L102.6 102.901L194.519 56.415" fill="url(#paint40_linear)"/>
<path d="M148.785 194.368L102.6 194.669V205.2L148.785 194.368Z" fill="url(#paint41_linear)"/>
<path d="M148.785 10.6812L102.6 10.5308V0L148.785 10.6812Z" fill="url(#paint42_linear)"/>
<path d="M194.368 148.785L148.785 194.368L162.024 160.068L194.368 148.785Z" fill="url(#paint43_linear)"/>
<path d="M194.368 56.415L148.785 10.6812L162.024 45.5833L194.368 56.415Z" fill="url(#paint44_linear)"/>
<path d="M194.368 102.6L162.024 45.5833L194.368 56.4149V102.6Z" fill="url(#paint45_linear)"/>
<path d="M194.368 102.6L162.024 160.068L194.368 148.785V102.6Z" fill="url(#paint46_linear)"/>
<path d="M148.785 10.6812L162.024 45.5833L102.6 10.5308L148.785 10.6812Z" fill="url(#paint47_linear)"/>
<path d="M148.785 194.368L162.024 160.068L102.6 194.669L148.785 194.368Z" fill="url(#paint48_linear)"/>
<path d="M194.368 102.6L148.785 102.75L162.024 45.5833L194.368 102.6Z" fill="url(#paint49_linear)"/>
<path d="M194.519 102.6L148.785 102.75L162.024 160.068L194.519 102.6Z" fill="url(#paint50_linear)"/>
<path d="M162.024 45.5833L102.6 66.1935V10.5308L162.024 45.5833Z" fill="url(#paint51_linear)"/>
<path d="M102.6 66.0431L148.785 102.75L162.024 45.5833L102.6 66.0431Z" fill="url(#paint52_linear)"/>
<path d="M162.024 160.068L102.6 139.608V194.669L162.024 160.068Z" fill="url(#paint53_linear)"/>
<path d="M102.6 139.608L130.281 116.741L148.785 102.75L162.024 160.068L102.6 139.608Z" fill="url(#paint54_linear)"/>
<path d="M148.785 102.75L102.6 103.051V139.608L130.281 116.741L148.785 102.75Z" fill="url(#paint55_linear)"/>
<path d="M148.785 102.75L102.6 103.051V66.0432L148.785 102.75Z" fill="url(#paint56_linear)"/>
<path d="M148.785 10.5308L102.6 205.2L177.67 72.9633L148.785 10.5308Z" fill="url(#paint57_linear)"/>
<path d="M102.6 66.0432L130.281 116.741L194.519 148.785L102.6 139.608" fill="url(#paint58_linear)"/>
<path d="M102.6 139.608L130.281 116.741L148.785 102.75L194.368 56.5654L102.6 66.0431" fill="url(#paint59_linear)"/>
<path d="M131.785 27.8313L102.6 139.608V10.5308" fill="url(#paint60_linear)"/>
<path d="M139.759 185.342L102.6 76.4235V205.2" fill="url(#paint61_linear)"/>
<path d="M194.368 56.415L148.785 102.75L194.368 102.6H205.2" fill="url(#paint62_linear)"/>
<path d="M194.368 56.415L177.82 73.2642L194.368 102.6" fill="url(#paint63_linear)"/>
<path opacity="0.3" d="M148.785 102.75L194.368 148.785L162.024 45.4329" fill="url(#paint64_linear)"/>
<path opacity="0.3" d="M148.785 102.75L194.368 56.415L162.024 159.165" fill="url(#paint65_linear)"/>
<path opacity="0.3" d="M103.051 148.484L148.785 194.368L116.29 91.1666" fill="url(#paint66_linear)"/>
<path opacity="0.3" d="M103.051 56.7158L148.785 10.6812L116.29 114.033" fill="url(#paint67_linear)"/>
<path d="M102.6 66.0431L162.024 45.5833L148.785 102.75" fill="url(#paint68_linear)"/>
<path d="M102.45 139.759L162.024 160.068L130.281 116.741" fill="url(#paint69_linear)"/>
<path d="M122.308 10.6812L102.6 66.0431L162.024 45.5833" fill="url(#paint70_linear)"/>
<path d="M122.308 194.97L102.6 139.608L162.024 160.218" fill="url(#paint71_linear)"/>
<path opacity="0.3" d="M148.785 102.75V10.6812L178.422 50.9991L194.368 102.6" fill="url(#paint72_linear)"/>
<path opacity="0.3" d="M148.785 102.75V194.368L176.617 154.953L194.368 102.6" fill="url(#paint73_linear)"/>
<path d="M90.264 194.669L138.706 152.095L127.724 194.368" fill="url(#paint74_linear)"/>
<path d="M90.8658 10.3804L139.307 53.4062L128.325 10.3804" fill="url(#paint75_linear)"/>
<path opacity="0.7" d="M205.2 102.6H194.368V56.415L205.2 102.6Z" fill="url(#paint76_linear)"/>
<path opacity="0.7" d="M205.2 102.6H194.368V148.785L205.2 102.6Z" fill="url(#paint77_linear)"/>
<path d="M102.6 151.493C129.603 151.493 151.493 129.603 151.493 102.6C151.493 75.5971 129.603 53.707 102.6 53.707C75.5972 53.707 53.707 75.5971 53.707 102.6C53.707 129.603 75.5972 151.493 102.6 151.493Z" fill="url(#paint78_radial)"/>
<path d="M145.927 80.1846C144.723 78.0784 143.068 76.2732 140.962 74.7688C138.856 73.2644 136.299 72.0608 133.29 71.3086C131.334 70.7069 127.573 70.406 123.962 70.406H123.361C118.547 70.2556 114.033 70.406 113.582 70.406H96.7329V73.1139C102.45 74.0166 106.963 78.0784 107.113 85.6004C107.565 99.2905 95.8302 99.5914 92.9719 99.7418C90.264 99.8922 84.6977 99.8922 84.6977 99.8922H76.5739V72.813H84.6977V70.2556H57.4681V72.813H67.5476V132.086H57.4681V134.794H84.6977V132.086H76.5739V102.6H84.6977L91.317 102.751C97.0338 102.751 108.166 105.308 108.166 118.246C108.166 127.423 102.299 131.334 96.5824 131.936V134.794H123.662V132.086H121.856H115.688V105.158V103.653V102.6H121.706C129.529 102.6 132.989 101.998 132.989 101.998C137.653 101.096 143.52 98.6887 146.528 92.972C147.281 91.3172 147.732 89.3614 147.732 87.4057C147.732 84.6978 147.13 82.2908 145.927 80.1846ZM123.812 99.7418H115.839V72.813H123.812C129.679 72.813 138.856 74.9192 138.856 86.3526C138.856 97.7861 129.679 99.7418 123.812 99.7418Z" fill="black"/>
<path d="M260.111 72.0608H270.19V101.697H240.102V72.0608H250.031V70.8572H220.996V72.0608H231.076V133.892H220.996V135.246H250.031V133.892H240.102V102.901H270.19V133.892H260.111V135.246H289.145V133.892H279.216V72.0608H289.145V70.8572H260.111V72.0608Z" fill="black"/>
<path d="M330.366 96.432H315.773V97.6355H322.694V118.547C322.694 121.104 322.242 123.361 321.49 125.317C320.738 127.272 319.685 129.078 318.481 130.582C317.278 132.086 316.074 133.139 314.57 133.892C313.216 134.644 311.712 135.095 310.508 135.095C309.004 135.095 307.65 134.794 306.747 134.192C305.844 133.591 304.942 132.839 304.34 131.785C303.738 130.732 303.287 129.679 303.136 128.325C302.986 126.971 302.836 125.617 302.836 123.963V96.432H288.092V97.6355H295.013V123.361C295.013 125.166 295.163 126.67 295.464 127.874C295.765 129.078 296.066 130.131 296.517 130.883C296.968 131.635 297.42 132.237 297.871 132.688C298.322 133.139 298.924 133.591 299.225 133.892C300.128 134.493 301.181 135.095 302.685 135.546C304.19 136.148 306.145 136.299 308.552 136.299C310.508 136.299 312.313 135.998 313.818 135.396C315.322 134.794 316.526 133.892 317.729 132.989C318.782 131.936 319.835 130.883 320.587 129.679C321.34 128.476 321.941 127.272 322.543 126.069H322.694V135.246H337.286V134.042H330.366V96.432V96.432Z" fill="black"/>
<path d="M409.347 108.919C409.347 99.8922 404.984 95.379 396.108 95.379C394.303 95.379 392.498 95.6798 391.144 96.1312C389.639 96.5825 388.436 97.3347 387.232 98.0869C386.179 98.8391 385.277 99.8922 384.524 100.795C383.772 101.848 383.17 102.901 382.87 103.954H382.719C381.967 100.945 380.463 98.6886 378.206 97.3347C375.949 95.9807 373.241 95.379 370.233 95.379C366.923 95.379 363.914 96.2816 361.658 97.9364C359.251 99.5913 357.445 102.299 356.242 105.91H356.091V96.432H341.499V97.6356H348.419V133.892H341.499V135.095H363.162V133.892H356.091V113.883C356.091 110.724 356.543 108.166 357.445 105.91C358.348 103.804 359.401 101.998 360.755 100.644C362.109 99.2904 363.463 98.2373 364.967 97.6356C366.472 97.0338 367.826 96.7329 369.18 96.7329C370.985 96.7329 372.489 97.3347 373.542 98.6886C374.595 99.8922 375.197 101.848 375.197 104.556V134.042H368.277V135.246H389.94V134.042H383.02V110.874C383.02 108.467 383.321 106.361 384.224 104.556C384.976 102.751 386.029 101.246 387.232 100.193C388.436 98.9895 389.79 98.2373 391.294 97.6356C392.799 97.0338 394.303 96.7329 395.807 96.7329C397.763 96.7329 399.268 97.3347 400.321 98.3878C401.374 99.5913 401.975 101.096 401.975 103.202V133.892H395.055V135.095H416.267V133.892H409.347V108.919Z" fill="black"/>
<path d="M458.541 134.343C457.789 134.644 457.187 134.644 456.435 134.644C455.382 134.644 454.629 134.343 454.028 133.741C453.426 133.139 453.275 131.936 453.275 130.281V107.715C453.275 106.06 452.974 104.556 452.523 103.051C452.072 101.547 451.169 100.193 450.116 99.14C448.913 97.9364 447.408 97.0338 445.603 96.2816C443.798 95.5294 441.391 95.2285 438.683 95.2285C436.426 95.2285 434.32 95.5294 432.515 95.9807C430.709 96.5825 429.205 97.3347 428.152 98.2373C426.948 99.14 426.046 100.193 425.444 101.397C424.842 102.6 424.541 103.804 424.541 105.158C424.541 106.361 424.842 107.264 425.294 108.016C425.745 108.768 426.948 109.069 429.055 109.069C430.258 109.069 431.01 108.768 431.612 108.166C432.214 107.565 432.515 106.812 432.515 106.06C432.515 105.609 432.364 104.857 432.214 103.804C432.063 102.751 431.913 101.848 431.913 100.795C431.913 99.2904 432.515 98.0869 433.869 97.3347C435.223 96.5825 436.877 96.2816 438.833 96.2816C440.338 96.2816 441.541 96.432 442.444 96.8834C443.346 97.3347 444.099 97.9364 444.55 98.6886C445.001 99.4408 445.302 100.494 445.603 101.697C445.753 102.901 445.904 104.104 445.904 105.609C445.904 107.414 445.753 108.919 445.452 109.972C445.152 111.025 444.7 111.927 443.948 112.529C443.196 113.281 442.143 113.883 440.939 114.334C439.585 114.786 437.931 115.387 435.975 115.989C434.32 116.591 432.665 117.042 431.01 117.494C429.355 117.945 427.851 118.547 426.497 119.299C425.143 120.051 424.09 121.104 423.187 122.308C422.285 123.511 421.984 125.317 421.984 127.423C421.984 128.325 422.134 129.378 422.435 130.431C422.736 131.485 423.338 132.387 424.09 133.29C424.993 134.192 426.046 134.794 427.55 135.396C429.055 135.998 431.01 136.299 433.568 136.299C435.824 136.299 437.63 135.998 439.134 135.546C440.638 135.095 441.691 134.343 442.594 133.591C443.497 132.839 444.099 132.086 444.55 131.184C445.001 130.431 445.302 129.679 445.603 129.078H445.753C446.205 131.334 447.107 132.989 448.461 134.343C449.815 135.546 451.921 136.148 454.78 136.148C456.284 136.148 457.638 135.847 458.691 135.396C459.744 134.945 460.647 134.343 461.55 133.741L460.797 132.688C459.895 133.741 459.293 134.042 458.541 134.343ZM445.603 122.007C445.603 123.21 445.452 124.564 445.302 126.069C445.152 127.573 444.7 128.927 444.099 130.131C443.497 131.334 442.594 132.387 441.24 133.29C440.037 134.192 438.382 134.493 436.426 134.493C435.072 134.493 433.869 134.192 432.966 133.741C432.063 133.29 431.462 132.688 430.86 131.936C430.409 131.184 430.108 130.281 429.807 129.378C429.656 128.476 429.506 127.423 429.506 126.52C429.506 124.414 429.957 122.609 431.01 121.255C432.063 119.901 433.568 118.697 435.373 117.945L442.143 115.237C443.948 114.485 445.001 113.733 445.152 112.83H445.302V122.007H445.603Z" fill="black"/>
<path d="M507.584 107.565C507.584 103.352 506.381 100.343 503.823 98.3877C501.266 96.432 498.107 95.5294 494.045 95.5294C491.487 95.5294 489.231 95.9807 487.425 96.7329C485.62 97.4851 484.116 98.5382 482.912 99.7417C481.709 100.945 480.806 101.998 480.054 103.202C479.302 104.405 478.85 105.458 478.399 106.211H478.249V96.5824H463.656V97.786H470.576V134.042H463.656V135.245H485.319V134.042H478.399V113.432C478.399 111.025 478.7 108.768 479.602 106.812C480.355 104.706 481.408 103.051 482.762 101.547C484.116 100.043 485.62 98.839 487.425 98.0868C489.231 97.1842 491.036 96.8833 492.992 96.8833C495.399 96.8833 497.054 97.6355 498.257 99.1399C499.31 100.644 499.912 102.6 499.912 104.857V134.042H492.992V135.245H514.655V134.042H507.735V107.565H507.584Z" fill="black"/>
<path d="M701.351 78.6801C702.253 77.7774 702.705 76.5739 702.705 75.22C702.705 73.866 702.253 72.8129 701.351 71.7598C700.448 70.8572 699.245 70.4059 697.891 70.4059C696.537 70.4059 695.484 70.8572 694.431 71.7598C693.528 72.6625 693.077 73.866 693.077 75.22C693.077 76.5739 693.528 77.627 694.431 78.6801C695.333 79.5827 696.537 80.034 697.891 80.034C699.395 80.1845 700.448 79.7332 701.351 78.6801Z" fill="black"/>
<path d="M596.043 105.158C594.238 103.804 592.131 102.751 589.875 101.998C587.618 101.246 585.362 100.795 583.256 100.644V100.494C585.362 100.193 587.317 99.7417 589.273 98.9895C591.229 98.2373 592.884 97.1842 594.388 95.9807C595.892 94.7772 597.096 93.2728 597.848 91.618C598.751 89.9631 599.202 88.1578 599.202 86.0517C599.202 84.5473 598.901 83.0429 598.299 81.2376C597.698 79.4323 596.645 77.7775 594.99 76.2731C593.335 74.7687 591.078 73.4147 588.37 72.3616C585.512 71.3085 581.902 70.7068 577.539 70.7068C576.636 70.7068 575.884 70.7068 574.981 70.7068C574.079 70.7068 573.176 70.7068 572.123 70.7068C571.22 70.7068 570.167 70.8572 569.265 70.8572C568.362 70.8572 567.459 70.8572 566.557 70.8572H550.761V72.0607H560.84V133.892H550.761V135.095H566.557C567.61 135.095 568.663 135.095 569.566 135.095C570.468 135.095 571.521 135.095 572.424 135.246C573.326 135.246 574.229 135.396 574.981 135.396C575.734 135.396 576.636 135.396 577.539 135.396C581.751 135.396 585.362 134.945 588.521 134.042C591.68 133.139 594.238 131.785 596.344 130.131C598.45 128.476 599.954 126.52 601.007 124.263C602.06 122.007 602.512 119.449 602.512 116.741C602.512 114.184 601.91 111.927 600.857 109.821C599.353 108.166 597.999 106.512 596.043 105.158ZM569.716 72.0607C570.468 71.9103 571.521 71.9103 572.574 71.9103C573.627 71.9103 574.831 71.9103 575.884 71.9103C577.388 71.9103 579.043 72.0607 580.698 72.3616C582.353 72.6625 583.707 73.2643 585.061 74.3174C586.415 75.22 587.468 76.7244 588.22 78.6801C588.972 80.6358 589.424 83.0429 589.424 86.2021C589.424 88.91 589.123 91.3171 588.671 93.1224C588.07 94.9276 587.317 96.432 586.415 97.4851C585.362 98.5382 584.158 99.2904 582.804 99.7417C581.45 100.193 579.946 100.343 578.141 100.343H569.716V72.0607ZM590.928 125.166C590.326 127.423 589.424 129.228 588.07 130.582C586.716 131.936 585.061 132.839 583.105 133.44C581.149 134.042 578.592 134.192 575.884 134.192C574.229 134.192 573.026 134.192 572.123 134.042C571.22 133.892 570.468 133.892 569.716 133.892V101.246H579.645C583.707 101.246 586.716 102.6 588.822 105.458C590.928 108.166 591.831 112.078 591.831 116.892C591.831 120.202 591.53 123.06 590.928 125.166Z" fill="black"/>
<path d="M639.67 97.7859C639.069 97.0337 638.166 96.5824 637.113 96.1311C636.06 95.6798 634.856 95.3789 633.502 95.3789C631.547 95.3789 629.892 95.6798 628.538 96.432C627.184 97.1842 625.98 98.0868 625.078 99.1399C624.175 100.193 623.423 101.246 622.821 102.45C622.219 103.653 621.918 104.556 621.618 105.458H621.467V96.2815H606.875V97.4851H613.795V133.741H606.875V134.945H629.44V133.741H621.618V113.281C621.618 110.724 621.918 108.467 622.52 106.511C623.122 104.556 623.874 102.901 624.927 101.547C625.83 100.193 626.883 99.1399 627.936 98.3877C628.989 97.6355 630.042 97.3346 630.945 97.3346C633.051 97.3346 634.104 98.2373 634.104 100.193C634.104 100.945 634.104 101.547 633.954 101.998C633.803 102.45 633.653 102.75 633.502 103.202C633.352 103.503 633.201 103.804 633.051 104.255C632.901 104.556 632.901 105.007 632.901 105.609C632.901 107.264 634.254 108.166 636.812 108.166C638.015 108.166 639.069 107.865 639.971 107.113C640.874 106.511 641.325 105.157 641.325 103.202C641.325 102.299 641.175 101.397 640.874 100.494C640.874 99.2903 640.422 98.5381 639.67 97.7859Z" fill="black"/>
<path d="M681.794 134.343C681.041 134.644 680.44 134.644 679.687 134.644C678.634 134.644 677.882 134.343 677.28 133.741C676.679 133.139 676.528 131.936 676.528 130.281V107.715C676.528 106.06 676.227 104.556 675.776 103.051C675.325 101.547 674.422 100.193 673.369 99.14C672.165 97.9365 670.661 97.0339 668.856 96.2817C667.051 95.5295 664.644 95.2286 661.936 95.2286C659.679 95.2286 657.573 95.5295 655.768 95.9808C653.962 96.5825 652.458 97.3347 651.405 98.2374C650.201 99.14 649.299 100.193 648.697 101.397C648.095 102.6 647.794 103.804 647.794 105.158C647.794 106.361 648.095 107.264 648.547 108.016C648.998 108.768 650.201 109.069 652.308 109.069C653.511 109.069 654.263 108.768 654.865 108.166C655.467 107.565 655.768 106.812 655.768 106.06C655.768 105.609 655.617 104.857 655.467 103.804C655.316 102.751 655.166 101.848 655.166 100.795C655.166 99.2904 655.768 98.0869 657.122 97.3347C658.476 96.5825 660.13 96.2817 662.086 96.2817C663.59 96.2817 664.794 96.4321 665.697 96.8834C666.599 97.3347 667.351 97.9365 667.803 98.6887C668.254 99.4409 668.555 100.494 668.856 101.697C669.006 102.901 669.157 104.105 669.157 105.609C669.157 107.414 669.006 108.919 668.705 109.972C668.405 111.025 667.953 111.927 667.201 112.529C666.449 113.281 665.396 113.883 664.192 114.334C662.838 114.786 661.183 115.388 659.228 115.989C657.573 116.591 655.918 117.042 654.263 117.494C652.608 117.945 651.104 118.547 649.75 119.299C648.396 120.051 647.343 121.104 646.44 122.308C645.538 123.511 645.237 125.317 645.237 127.423C645.237 128.325 645.387 129.378 645.688 130.432C645.989 131.485 646.591 132.387 647.343 133.29C648.246 134.193 649.299 134.794 650.803 135.396C652.308 135.998 654.263 136.299 656.821 136.299C659.077 136.299 660.883 135.998 662.387 135.546C663.891 135.095 664.944 134.343 665.847 133.591C666.75 132.839 667.351 132.086 667.803 131.184C668.254 130.432 668.555 129.679 668.856 129.078H669.006C669.458 131.334 670.36 132.989 671.714 134.343C673.068 135.546 675.174 136.148 678.033 136.148C679.537 136.148 680.891 135.847 681.944 135.396C682.997 134.945 683.9 134.343 684.802 133.741L684.05 132.688C683.148 133.741 682.546 134.042 681.794 134.343ZM668.705 122.007C668.705 123.21 668.555 124.564 668.405 126.069C668.254 127.573 667.803 128.927 667.201 130.131C666.599 131.334 665.697 132.387 664.343 133.29C663.139 134.193 661.484 134.493 659.529 134.493C658.175 134.493 656.971 134.193 656.069 133.741C655.166 133.29 654.564 132.688 653.962 131.936C653.511 131.184 653.21 130.281 652.909 129.378C652.759 128.476 652.608 127.423 652.608 126.52C652.608 124.414 653.06 122.609 654.113 121.255C655.166 119.901 656.67 118.697 658.476 117.945L665.245 115.237C667.051 114.485 668.104 113.733 668.254 112.83H668.405V122.007H668.705Z" fill="black"/>
<path d="M702.103 96.4321H687.36V97.6356H694.28V133.892H687.36V135.246H709.023V133.892H702.103V96.4321Z" fill="black"/>
<path d="M757.615 107.565C757.615 103.352 756.412 100.343 753.854 98.3877C751.297 96.432 748.138 95.5294 744.076 95.5294C741.518 95.5294 739.262 95.9807 737.456 96.7329C735.651 97.4851 734.147 98.5382 732.943 99.7417C731.74 100.945 730.837 101.998 730.085 103.202C729.333 104.405 728.881 105.458 728.43 106.211H728.28V96.5824H713.687V97.786H720.607V134.042H713.687V135.245H735.35V134.042H728.43V113.432C728.43 111.025 728.731 108.768 729.633 106.812C730.386 104.706 731.439 103.051 732.793 101.547C734.147 100.043 735.651 98.839 737.456 98.0868C739.262 97.1842 741.067 96.8833 743.023 96.8833C745.43 96.8833 747.085 97.6355 748.288 99.1399C749.341 100.644 749.943 102.6 749.943 104.857V134.042H743.023V135.245H764.686V134.042H757.766V107.565H757.615Z" fill="black"/>
<path d="M844.269 75.22C842.162 73.7156 839.605 72.5121 836.747 71.7599C833.888 71.0077 830.579 70.5563 827.269 70.5563C826.366 70.5563 825.614 70.5563 824.711 70.5563C823.959 70.5563 823.057 70.5563 822.154 70.5563C821.251 70.5563 820.499 70.7068 819.596 70.7068C818.694 70.7068 817.942 70.7068 817.039 70.7068H800.039V71.9103H810.119V133.741H800.039V134.945H829.074V133.741H818.995V104.104C820.048 104.255 821.251 104.405 822.455 104.556C823.809 104.706 824.862 104.706 825.765 104.706C829.074 104.706 832.233 104.255 835.242 103.503C838.251 102.75 840.959 101.547 843.216 100.193C845.472 98.6886 847.277 97.0338 848.782 94.9276C850.136 92.8214 850.888 90.4144 850.888 87.7065C850.888 85.149 850.286 82.742 849.083 80.6358C848.03 78.5296 846.375 76.7244 844.269 75.22ZM836.897 99.5912C834.34 102.149 830.879 103.503 826.517 103.503C825.464 103.503 824.26 103.503 823.057 103.352C821.703 103.202 820.499 103.051 819.296 102.75V72.0607C819.747 72.0607 820.499 71.9103 821.402 71.9103C822.304 71.9103 823.357 71.7599 824.561 71.7599C827.419 71.7599 829.977 72.0607 832.083 72.5121C834.189 72.9634 835.844 73.866 837.198 75.0695C838.552 76.2731 839.455 77.9279 840.056 80.034C840.658 82.1402 840.959 84.6977 840.959 87.7065C840.658 92.9719 839.454 97.0338 836.897 99.5912Z" fill="black"/>
<path d="M885.188 97.7859C884.586 97.0337 883.684 96.5824 882.631 96.131C881.578 95.6797 880.374 95.3788 879.02 95.3788C877.064 95.3788 875.41 95.6797 874.056 96.4319C872.702 97.1841 871.498 98.0868 870.596 99.1398C869.693 100.193 868.941 101.246 868.339 102.45C867.737 103.653 867.436 104.556 867.135 105.458H866.985V96.2815H852.392V97.485H859.313V133.741H852.392V134.945H874.958V133.741H867.135V113.281C867.135 110.724 867.436 108.467 868.038 106.511C868.64 104.556 869.392 102.901 870.445 101.547C871.348 100.193 872.401 99.1398 873.454 98.3876C874.507 97.6354 875.56 97.3346 876.463 97.3346C878.569 97.3346 879.622 98.2372 879.622 100.193C879.622 100.945 879.622 101.547 879.471 101.998C879.321 102.45 879.171 102.75 879.02 103.202C878.87 103.503 878.719 103.803 878.569 104.255C878.418 104.556 878.418 105.007 878.418 105.609C878.418 107.264 879.772 108.166 882.33 108.166C883.533 108.166 884.586 107.865 885.489 107.113C886.392 106.511 886.843 105.157 886.843 103.202C886.843 102.299 886.693 101.396 886.392 100.494C886.241 99.2903 885.79 98.5381 885.188 97.7859Z" fill="black"/>
<path d="M933.028 115.839C933.028 112.83 932.426 110.122 931.072 107.564C929.718 105.007 928.064 102.901 926.108 100.945C924.152 99.1398 921.896 97.6354 919.338 96.5823C916.781 95.5293 914.373 95.0779 911.966 95.0779C909.559 95.0779 907.152 95.5293 904.595 96.5823C902.037 97.6354 899.781 98.9894 897.825 100.945C895.869 102.75 894.214 105.007 892.86 107.564C891.507 110.122 890.905 112.83 890.905 115.839C890.905 118.697 891.507 121.405 892.71 123.812C893.914 126.369 895.568 128.476 897.524 130.431C899.48 132.237 901.737 133.741 904.294 134.794C906.851 135.847 909.409 136.449 912.117 136.449C914.825 136.449 917.382 135.847 919.94 134.794C922.497 133.741 924.754 132.237 926.71 130.431C928.665 128.626 930.32 126.369 931.524 123.812C932.426 121.405 933.028 118.697 933.028 115.839ZM922.949 126.069C922.347 128.626 921.444 130.582 920.391 131.936C919.338 133.29 917.984 134.192 916.63 134.644C915.126 135.095 913.621 135.245 911.966 135.245C910.312 135.245 908.807 135.095 907.303 134.644C905.798 134.192 904.595 133.29 903.542 131.936C902.489 130.582 901.586 128.626 900.984 126.069C900.383 123.511 899.931 120.201 899.931 115.839C899.931 112.228 900.232 109.219 900.683 106.812C901.135 104.405 901.887 102.45 902.94 100.795C903.993 99.2903 905.197 98.0867 906.701 97.485C908.205 96.8832 910.011 96.4319 911.966 96.4319C914.073 96.4319 915.727 96.7328 917.232 97.485C918.736 98.0867 919.94 99.2903 920.993 100.795C922.046 102.299 922.798 104.255 923.249 106.812C923.701 109.219 924.002 112.228 924.002 115.839C924.002 120.051 923.55 123.511 922.949 126.069Z" fill="black"/>
<path d="M950.178 70.5563C948.824 70.5563 947.771 71.0077 946.718 71.9103C945.815 72.8129 945.364 74.0165 945.364 75.3704C945.364 76.7244 945.815 77.7775 946.718 78.8305C947.621 79.7332 948.824 80.1845 950.178 80.1845C951.532 80.1845 952.585 79.7332 953.638 78.8305C954.541 77.9279 954.992 76.7244 954.992 75.3704C954.992 74.0165 954.541 72.9634 953.638 71.9103C952.736 71.0077 951.532 70.5563 950.178 70.5563Z" fill="black"/>
<path d="M939.497 97.6355H946.417V150.741C946.417 153.9 945.966 156.157 945.063 157.511C944.161 158.865 942.807 159.617 941.001 159.617C940.099 159.617 939.196 159.316 938.444 158.714C937.692 158.112 937.24 157.21 937.24 156.006C937.24 154.953 937.391 154.201 937.541 153.449C937.692 152.847 937.842 152.095 937.842 151.343C937.842 150.44 937.541 149.537 937.09 149.086C936.488 148.484 935.736 148.183 934.683 148.183C933.479 148.183 932.577 148.484 931.825 149.236C931.072 149.989 930.621 151.042 930.621 152.546C930.621 153.9 930.922 155.104 931.674 156.157C932.426 157.21 933.178 158.112 934.232 158.714C935.285 159.316 936.338 159.918 937.391 160.218C938.594 160.519 939.647 160.67 940.55 160.67C941.453 160.67 942.355 160.519 943.408 160.369C944.462 160.218 945.515 159.767 946.417 159.165C947.47 158.564 948.373 157.811 949.276 156.909C950.178 156.006 951.081 154.803 951.833 153.298C952.134 152.696 952.435 152.095 952.736 151.343C953.037 150.59 953.337 149.688 953.488 148.484C953.789 147.281 953.939 145.776 954.09 143.821C954.24 141.865 954.24 139.458 954.24 136.599V95.9807H939.497V97.6355V97.6355Z" fill="black"/>
<path d="M976.957 112.83H1004.79C1004.79 109.52 1004.19 106.812 1003.13 104.556C1002.08 102.299 1000.58 100.494 998.921 99.1399C997.266 97.7859 995.461 96.7329 993.505 96.1311C991.549 95.5293 989.744 95.2285 988.089 95.2285C985.231 95.2285 982.673 95.8302 980.116 97.0337C977.709 98.2372 975.452 99.7416 973.647 101.697C971.842 103.653 970.337 105.91 969.284 108.317C968.231 110.874 967.629 113.432 967.629 115.989C967.629 118.998 968.081 121.856 969.134 124.414C970.187 126.971 971.541 129.077 973.496 130.883C975.302 132.688 977.558 134.042 980.116 135.095C982.673 135.998 985.532 136.599 988.541 136.599C991.549 136.599 993.956 136.148 995.912 135.245C997.868 134.343 999.372 133.29 1000.43 131.936C1001.48 130.732 1002.38 129.529 1002.83 128.175C1003.28 126.971 1003.73 125.918 1003.89 125.316L1002.53 125.016C1002.23 125.768 1001.93 126.67 1001.48 127.874C1001.03 129.077 1000.27 130.131 999.222 131.334C998.169 132.387 996.815 133.44 995.16 134.192C993.505 134.945 991.248 135.396 988.541 135.396C985.833 135.396 983.726 134.794 982.222 133.741C980.567 132.538 979.364 131.184 978.611 129.378C977.859 127.573 977.257 125.617 976.957 123.511C976.656 121.405 976.656 119.299 976.656 117.343C976.656 116.44 976.656 115.538 976.656 114.936C976.957 114.033 976.957 113.432 976.957 112.83ZM977.859 105.759C978.311 103.954 978.912 102.299 979.665 100.945C980.417 99.5912 981.47 98.3877 982.824 97.6355C984.178 96.8833 985.833 96.432 987.939 96.432C989.142 96.432 990.195 96.5824 991.098 96.8833C992.151 97.1842 992.903 97.7859 993.655 98.5381C994.408 99.2903 994.859 100.343 995.31 101.697C995.762 103.051 995.912 104.706 995.912 106.812C995.912 107.565 995.912 108.317 995.912 109.069C995.912 109.821 995.912 110.573 995.762 111.476H977.257C977.257 109.52 977.408 107.565 977.859 105.759Z" fill="black"/>
<path d="M1046.91 127.723C1046.46 128.927 1045.71 129.98 1044.65 131.184C1043.6 132.237 1042.25 133.29 1040.59 134.042C1038.94 134.794 1036.68 135.245 1033.97 135.245C1031.57 135.245 1029.46 134.794 1027.96 133.741C1026.45 132.688 1025.25 131.334 1024.35 129.679C1023.44 128.024 1022.84 125.918 1022.54 123.662C1022.24 121.405 1022.09 118.998 1022.09 116.29C1022.09 111.777 1022.39 108.166 1023.29 105.458C1024.04 102.75 1024.95 100.795 1026.15 99.4407C1027.35 98.0867 1028.56 97.3345 1030.06 96.8832C1031.42 96.5823 1032.92 96.4319 1034.12 96.4319C1035.93 96.4319 1037.58 96.8832 1038.94 97.6354C1040.29 98.3876 1041.04 99.4407 1041.04 100.795C1041.04 101.547 1040.89 102.6 1040.44 103.803C1039.99 105.007 1039.84 106.06 1039.84 106.812C1039.84 107.865 1040.29 108.618 1041.19 109.069C1042.1 109.52 1043.15 109.821 1044.2 109.821C1045.71 109.821 1046.91 109.37 1047.66 108.618C1048.42 107.865 1048.87 106.812 1048.87 105.458C1048.87 103.653 1048.42 101.998 1047.51 100.644C1046.61 99.2903 1045.41 98.2372 1044.05 97.485C1042.7 96.7328 1041.04 96.131 1039.39 95.6797C1037.73 95.2284 1035.93 95.0779 1034.42 95.0779C1031.57 95.0779 1028.86 95.6797 1026.3 96.7328C1023.74 97.7859 1021.49 99.2903 1019.68 101.096C1017.73 102.901 1016.22 105.157 1015.17 107.715C1014.12 110.272 1013.51 112.98 1013.51 115.989C1013.51 119.75 1014.12 122.909 1015.47 125.617C1016.82 128.175 1018.48 130.281 1020.43 131.936C1022.54 133.591 1024.8 134.644 1027.2 135.396C1029.61 136.148 1032.02 136.449 1034.27 136.449C1037.28 136.449 1039.69 135.998 1041.65 135.095C1043.6 134.192 1045.11 133.139 1046.16 131.785C1047.21 130.582 1048.11 129.378 1048.57 128.024C1049.02 126.821 1049.47 125.768 1049.62 125.166L1048.27 124.865C1047.66 125.617 1047.36 126.67 1046.91 127.723Z" fill="black"/>
<path d="M1081.66 127.573C1081.36 129.529 1080.46 131.334 1079.11 132.838C1077.75 134.343 1076.1 135.095 1073.99 135.095C1073.39 135.095 1072.79 134.945 1072.19 134.794C1071.58 134.644 1070.98 134.192 1070.38 133.591C1069.78 132.989 1069.33 132.237 1069.03 131.184C1068.72 130.13 1068.57 128.777 1068.57 127.122V97.6354H1081.36V96.4319H1068.57V84.0958C1067.97 84.5471 1067.37 84.9985 1066.62 85.1489C1066.02 85.2993 1065.11 85.4498 1064.21 85.4498C1063.16 85.4498 1062.41 85.4498 1062.11 85.2993C1061.65 85.1489 1061.2 84.9985 1060.75 84.848V96.4319H1053.83V97.6354H1060.75V126.369C1060.75 129.529 1061.65 132.086 1063.46 133.741C1065.26 135.546 1068.42 136.299 1072.94 136.299C1074.74 136.299 1076.25 135.998 1077.45 135.396C1078.65 134.794 1079.71 134.042 1080.46 133.29C1081.21 132.387 1081.81 131.484 1082.11 130.582C1082.41 129.679 1082.72 128.777 1082.87 128.024L1081.66 127.573Z" fill="black"/>
<defs>
<linearGradient id="paint0_linear" x1="-0.0382117" y1="102.575" x2="102.56" y2="102.575" gradientUnits="userSpaceOnUse">
<stop offset="0.175" stop-color="#EA1D2C"/>
<stop offset="0.9673" stop-color="#FFC809"/>
</linearGradient>
<linearGradient id="paint1_linear" x1="102.56" y1="102.575" x2="205.158" y2="102.575" gradientUnits="userSpaceOnUse">
<stop offset="0.1541" stop-color="#2DB5AE"/>
<stop offset="0.8842" stop-color="#124C96"/>
</linearGradient>
<linearGradient id="paint2_linear" x1="142.69" y1="99.4967" x2="55.3079" y2="96.3273" gradientUnits="userSpaceOnUse">
<stop stop-color="white"/>
<stop offset="1" stop-color="white" stop-opacity="0"/>
</linearGradient>
<linearGradient id="paint3_linear" x1="75.9163" y1="208.831" x2="85.9234" y2="183.358" gradientUnits="userSpaceOnUse">
<stop stop-color="white"/>
<stop offset="1" stop-color="white" stop-opacity="0"/>
</linearGradient>
<linearGradient id="paint4_linear" x1="75.9163" y1="-3.69044" x2="85.9234" y2="21.783" gradientUnits="userSpaceOnUse">
<stop stop-color="white"/>
<stop offset="1" stop-color="white" stop-opacity="0"/>
</linearGradient>
<linearGradient id="paint5_linear" x1="65.6315" y1="144.02" x2="34.9282" y2="170.402" gradientUnits="userSpaceOnUse">
<stop stop-color="white"/>
<stop offset="1" stop-color="white" stop-opacity="0"/>
</linearGradient>
<linearGradient id="paint6_linear" x1="66.2652" y1="61.6668" x2="34.9907" y2="34.7939" gradientUnits="userSpaceOnUse">
<stop stop-color="white"/>
<stop offset="1" stop-color="white" stop-opacity="0"/>
</linearGradient>
<linearGradient id="paint7_linear" x1="-15.5423" y1="44.713" x2="30.6593" y2="76.6634" gradientUnits="userSpaceOnUse">
<stop stop-color="white"/>
<stop offset="1" stop-color="white" stop-opacity="0"/>
</linearGradient>
<linearGradient id="paint8_linear" x1="-15.4371" y1="160.58" x2="30.7645" y2="128.63" gradientUnits="userSpaceOnUse">
<stop stop-color="white"/>
<stop offset="1" stop-color="white" stop-opacity="0"/>
</linearGradient>
<linearGradient id="paint9_linear" x1="87.1482" y1="51.7883" x2="67.1239" y2="18.5661" gradientUnits="userSpaceOnUse">
<stop stop-color="white"/>
<stop offset="1" stop-color="white" stop-opacity="0"/>
</linearGradient>
<linearGradient id="paint10_linear" x1="87.1892" y1="153.517" x2="67.2121" y2="186.661" gradientUnits="userSpaceOnUse">
<stop stop-color="white"/>
<stop offset="1" stop-color="white" stop-opacity="0"/>
</linearGradient>
<linearGradient id="paint11_linear" x1="1.99376" y1="50.9463" x2="46.7907" y2="92.5268" gradientUnits="userSpaceOnUse">
<stop stop-color="white"/>
<stop offset="1" stop-color="white" stop-opacity="0"/>
</linearGradient>
<linearGradient id="paint12_linear" x1="80.4148" y1="147.666" x2="29.0587" y2="120.491" gradientUnits="userSpaceOnUse">
<stop stop-color="white"/>
<stop offset="1" stop-color="white" stop-opacity="0"/>
</linearGradient>
<linearGradient id="paint13_linear" x1="42.6417" y1="0.0112518" x2="95.6687" y2="49.2313" gradientUnits="userSpaceOnUse">
<stop stop-color="white"/>
<stop offset="1" stop-color="white" stop-opacity="0"/>
</linearGradient>
<linearGradient id="paint14_linear" x1="107.848" y1="112.434" x2="57.8796" y2="63.1525" gradientUnits="userSpaceOnUse">
<stop stop-color="white"/>
<stop offset="1" stop-color="white" stop-opacity="0"/>
</linearGradient>
<linearGradient id="paint15_linear" x1="42.5502" y1="205.461" x2="95.504" y2="156.309" gradientUnits="userSpaceOnUse">
<stop stop-color="white"/>
<stop offset="1" stop-color="white" stop-opacity="0"/>
</linearGradient>
<linearGradient id="paint16_linear" x1="107.767" y1="93.2699" x2="57.8559" y2="142.494" gradientUnits="userSpaceOnUse">
<stop stop-color="white"/>
<stop offset="1" stop-color="white" stop-opacity="0"/>
</linearGradient>
<linearGradient id="paint17_linear" x1="123.529" y1="122.097" x2="79.1189" y2="120.487" gradientUnits="userSpaceOnUse">
<stop stop-color="white"/>
<stop offset="1" stop-color="white" stop-opacity="0"/>
</linearGradient>
<linearGradient id="paint18_linear" x1="123.533" y1="83.7899" x2="79.1266" y2="85.4005" gradientUnits="userSpaceOnUse">
<stop stop-color="white"/>
<stop offset="1" stop-color="white" stop-opacity="0"/>
</linearGradient>
<linearGradient id="paint19_linear" x1="140.17" y1="110.083" x2="65.5571" y2="107.377" gradientUnits="userSpaceOnUse">
<stop stop-color="white"/>
<stop offset="1" stop-color="white" stop-opacity="0"/>
</linearGradient>
<linearGradient id="paint20_linear" x1="142.758" y1="110.551" x2="57.2619" y2="107.45" gradientUnits="userSpaceOnUse">
<stop stop-color="white"/>
<stop offset="1" stop-color="white" stop-opacity="0"/>
</linearGradient>
<linearGradient id="paint21_linear" x1="142.729" y1="94.9709" x2="57.2806" y2="98.0701" gradientUnits="userSpaceOnUse">
<stop stop-color="white"/>
<stop offset="1" stop-color="white" stop-opacity="0"/>
</linearGradient>
<linearGradient id="paint22_linear" x1="119.098" y1="75.6762" x2="88.0424" y2="74.5498" gradientUnits="userSpaceOnUse">
<stop stop-color="white"/>
<stop offset="1" stop-color="white" stop-opacity="0"/>
</linearGradient>
<linearGradient id="paint23_linear" x1="122.427" y1="140.111" x2="84.0719" y2="141.502" gradientUnits="userSpaceOnUse">
<stop stop-color="white"/>
<stop offset="1" stop-color="white" stop-opacity="0"/>
</linearGradient>
<linearGradient id="paint24_linear" x1="81.169" y1="82.2183" x2="28.5318" y2="80.3092" gradientUnits="userSpaceOnUse">
<stop stop-color="white"/>
<stop offset="1" stop-color="white" stop-opacity="0"/>
</linearGradient>
<linearGradient id="paint25_linear" x1="38.5063" y1="80.4795" x2="13.1229" y2="79.5588" gradientUnits="userSpaceOnUse">
<stop stop-color="white"/>
<stop offset="1" stop-color="white" stop-opacity="0"/>
</linearGradient>
<linearGradient id="paint26_linear" x1="-31.0183" y1="172.546" x2="33.0817" y2="94.4001" gradientUnits="userSpaceOnUse">
<stop stop-color="white"/>
<stop offset="1" stop-color="white" stop-opacity="0"/>
</linearGradient>
<linearGradient id="paint27_linear" x1="-30.8912" y1="32.7123" x2="32.9635" y2="110.559" gradientUnits="userSpaceOnUse">
<stop stop-color="white"/>
<stop offset="1" stop-color="white" stop-opacity="0"/>
</linearGradient>
<linearGradient id="paint28_linear" x1="14.6601" y1="218.233" x2="78.7668" y2="140.08" gradientUnits="userSpaceOnUse">
<stop stop-color="white"/>
<stop offset="1" stop-color="white" stop-opacity="0"/>
</linearGradient>
<linearGradient id="paint29_linear" x1="14.6601" y1="-13.0921" x2="78.7668" y2="65.0612" gradientUnits="userSpaceOnUse">
<stop stop-color="white"/>
<stop offset="1" stop-color="white" stop-opacity="0"/>
</linearGradient>
<linearGradient id="paint30_linear" x1="12.1033" y1="82.1115" x2="70.3098" y2="69.7985" gradientUnits="userSpaceOnUse">
<stop stop-color="white"/>
<stop offset="1" stop-color="white" stop-opacity="0"/>
</linearGradient>
<linearGradient id="paint31_linear" x1="10.9846" y1="128.257" x2="69.3211" y2="140.598" gradientUnits="userSpaceOnUse">
<stop stop-color="white"/>
<stop offset="1" stop-color="white" stop-opacity="0"/>
</linearGradient>
<linearGradient id="paint32_linear" x1="103.68" y1="82.3586" x2="70.9511" y2="38.7783" gradientUnits="userSpaceOnUse">
<stop stop-color="white"/>
<stop offset="1" stop-color="white" stop-opacity="0"/>
</linearGradient>
<linearGradient id="paint33_linear" x1="103.637" y1="123.349" x2="70.9343" y2="166.894" gradientUnits="userSpaceOnUse">
<stop stop-color="white"/>
<stop offset="1" stop-color="white" stop-opacity="0"/>
</linearGradient>
<linearGradient id="paint34_linear" x1="33.3564" y1="-19.7868" x2="33.6109" y2="92.7464" gradientUnits="userSpaceOnUse">
<stop stop-color="white"/>
<stop offset="1" stop-color="white" stop-opacity="0"/>
</linearGradient>
<linearGradient id="paint35_linear" x1="33.355" y1="224.826" x2="33.6087" y2="112.672" gradientUnits="userSpaceOnUse">
<stop stop-color="white"/>
<stop offset="1" stop-color="white" stop-opacity="0"/>
</linearGradient>
<linearGradient id="paint36_linear" x1="40.2198" y1="153.041" x2="85.6559" y2="181.995" gradientUnits="userSpaceOnUse">
<stop stop-color="white"/>
<stop offset="1" stop-color="white" stop-opacity="0"/>
</linearGradient>
<linearGradient id="paint37_linear" x1="39.4" y1="52.2752" x2="84.9798" y2="23.2294" gradientUnits="userSpaceOnUse">
<stop stop-color="white"/>
<stop offset="1" stop-color="white" stop-opacity="0"/>
</linearGradient>
<linearGradient id="paint38_linear" x1="-11.2367" y1="56.0583" x2="19.3036" y2="99.2359" gradientUnits="userSpaceOnUse">
<stop stop-color="white"/>
<stop offset="0.3566" stop-color="white" stop-opacity="0.6975"/>
<stop offset="1" stop-color="white" stop-opacity="0"/>
</linearGradient>
<linearGradient id="paint39_linear" x1="-11.2367" y1="149.098" x2="19.3036" y2="105.92" gradientUnits="userSpaceOnUse">
<stop stop-color="white"/>
<stop offset="0.3566" stop-color="white" stop-opacity="0.6975"/>
<stop offset="1" stop-color="white" stop-opacity="0"/>
</linearGradient>
<linearGradient id="paint40_linear" x1="62.4302" y1="99.4967" x2="149.812" y2="96.3273" gradientUnits="userSpaceOnUse">
<stop stop-color="white"/>
<stop offset="1" stop-color="white" stop-opacity="0"/>
</linearGradient>
<linearGradient id="paint41_linear" x1="129.204" y1="208.831" x2="119.196" y2="183.358" gradientUnits="userSpaceOnUse">
<stop stop-color="white"/>
<stop offset="1" stop-color="white" stop-opacity="0"/>
</linearGradient>
<linearGradient id="paint42_linear" x1="129.204" y1="-3.69044" x2="119.196" y2="21.783" gradientUnits="userSpaceOnUse">
<stop stop-color="white"/>
<stop offset="1" stop-color="white" stop-opacity="0"/>
</linearGradient>
<linearGradient id="paint43_linear" x1="139.488" y1="144.02" x2="170.192" y2="170.402" gradientUnits="userSpaceOnUse">
<stop stop-color="white"/>
<stop offset="1" stop-color="white" stop-opacity="0"/>
</linearGradient>
<linearGradient id="paint44_linear" x1="138.855" y1="61.6668" x2="170.129" y2="34.7939" gradientUnits="userSpaceOnUse">
<stop stop-color="white"/>
<stop offset="1" stop-color="white" stop-opacity="0"/>
</linearGradient>
<linearGradient id="paint45_linear" x1="220.662" y1="44.713" x2="174.46" y2="76.6633" gradientUnits="userSpaceOnUse">
<stop stop-color="white"/>
<stop offset="1" stop-color="white" stop-opacity="0"/>
</linearGradient>
<linearGradient id="paint46_linear" x1="220.557" y1="160.58" x2="174.355" y2="128.63" gradientUnits="userSpaceOnUse">
<stop stop-color="white"/>
<stop offset="1" stop-color="white" stop-opacity="0"/>
</linearGradient>
<linearGradient id="paint47_linear" x1="117.972" y1="51.7883" x2="137.996" y2="18.5661" gradientUnits="userSpaceOnUse">
<stop stop-color="white"/>
<stop offset="1" stop-color="white" stop-opacity="0"/>
</linearGradient>
<linearGradient id="paint48_linear" x1="117.93" y1="153.517" x2="137.908" y2="186.661" gradientUnits="userSpaceOnUse">
<stop stop-color="white"/>
<stop offset="1" stop-color="white" stop-opacity="0"/>
</linearGradient>
<linearGradient id="paint49_linear" x1="203.126" y1="50.9463" x2="158.329" y2="92.5268" gradientUnits="userSpaceOnUse">
<stop stop-color="white"/>
<stop offset="1" stop-color="white" stop-opacity="0"/>
</linearGradient>
<linearGradient id="paint50_linear" x1="124.705" y1="147.666" x2="176.061" y2="120.491" gradientUnits="userSpaceOnUse">
<stop stop-color="white"/>
<stop offset="1" stop-color="white" stop-opacity="0"/>
</linearGradient>
<linearGradient id="paint51_linear" x1="162.478" y1="0.0112519" x2="109.451" y2="49.2313" gradientUnits="userSpaceOnUse">
<stop stop-color="white"/>
<stop offset="1" stop-color="white" stop-opacity="0"/>
</linearGradient>
<linearGradient id="paint52_linear" x1="97.2715" y1="112.434" x2="147.24" y2="63.1525" gradientUnits="userSpaceOnUse">
<stop stop-color="white"/>
<stop offset="1" stop-color="white" stop-opacity="0"/>
</linearGradient>
<linearGradient id="paint53_linear" x1="162.57" y1="205.461" x2="109.616" y2="156.309" gradientUnits="userSpaceOnUse">
<stop stop-color="white"/>
<stop offset="1" stop-color="white" stop-opacity="0"/>
</linearGradient>
<linearGradient id="paint54_linear" x1="97.3525" y1="93.2699" x2="147.264" y2="142.494" gradientUnits="userSpaceOnUse">
<stop stop-color="white"/>
<stop offset="1" stop-color="white" stop-opacity="0"/>
</linearGradient>
<linearGradient id="paint55_linear" x1="81.5905" y1="122.097" x2="126.001" y2="120.487" gradientUnits="userSpaceOnUse">
<stop stop-color="white"/>
<stop offset="1" stop-color="white" stop-opacity="0"/>
</linearGradient>
<linearGradient id="paint56_linear" x1="81.5869" y1="83.7899" x2="125.993" y2="85.4006" gradientUnits="userSpaceOnUse">
<stop stop-color="white"/>
<stop offset="1" stop-color="white" stop-opacity="0"/>
</linearGradient>
<linearGradient id="paint57_linear" x1="64.9503" y1="110.083" x2="139.563" y2="107.377" gradientUnits="userSpaceOnUse">
<stop stop-color="white"/>
<stop offset="1" stop-color="white" stop-opacity="0"/>
</linearGradient>
<linearGradient id="paint58_linear" x1="62.3617" y1="110.551" x2="147.858" y2="107.45" gradientUnits="userSpaceOnUse">
<stop stop-color="white"/>
<stop offset="1" stop-color="white" stop-opacity="0"/>
</linearGradient>
<linearGradient id="paint59_linear" x1="62.3911" y1="94.9709" x2="147.839" y2="98.0701" gradientUnits="userSpaceOnUse">
<stop stop-color="white"/>
<stop offset="1" stop-color="white" stop-opacity="0"/>
</linearGradient>
<linearGradient id="paint60_linear" x1="86.0216" y1="75.6762" x2="117.077" y2="74.5498" gradientUnits="userSpaceOnUse">
<stop stop-color="white"/>
<stop offset="1" stop-color="white" stop-opacity="0"/>
</linearGradient>
<linearGradient id="paint61_linear" x1="82.6917" y1="140.111" x2="121.047" y2="141.502" gradientUnits="userSpaceOnUse">
<stop stop-color="white"/>
<stop offset="1" stop-color="white" stop-opacity="0"/>
</linearGradient>
<linearGradient id="paint62_linear" x1="123.95" y1="82.2183" x2="176.588" y2="80.3092" gradientUnits="userSpaceOnUse">
<stop stop-color="white"/>
<stop offset="1" stop-color="white" stop-opacity="0"/>
</linearGradient>
<linearGradient id="paint63_linear" x1="166.613" y1="80.4795" x2="191.997" y2="79.5588" gradientUnits="userSpaceOnUse">
<stop stop-color="white"/>
<stop offset="1" stop-color="white" stop-opacity="0"/>
</linearGradient>
<linearGradient id="paint64_linear" x1="236.138" y1="172.546" x2="172.038" y2="94.4002" gradientUnits="userSpaceOnUse">
<stop stop-color="white"/>
<stop offset="1" stop-color="white" stop-opacity="0"/>
</linearGradient>
<linearGradient id="paint65_linear" x1="236.011" y1="32.7123" x2="172.156" y2="110.559" gradientUnits="userSpaceOnUse">
<stop stop-color="white"/>
<stop offset="1" stop-color="white" stop-opacity="0"/>
</linearGradient>
<linearGradient id="paint66_linear" x1="190.46" y1="218.233" x2="126.353" y2="140.08" gradientUnits="userSpaceOnUse">
<stop stop-color="white"/>
<stop offset="1" stop-color="white" stop-opacity="0"/>
</linearGradient>
<linearGradient id="paint67_linear" x1="190.459" y1="-13.0921" x2="126.352" y2="65.0612" gradientUnits="userSpaceOnUse">
<stop stop-color="white"/>
<stop offset="1" stop-color="white" stop-opacity="0"/>
</linearGradient>
<linearGradient id="paint68_linear" x1="193.017" y1="82.1115" x2="134.81" y2="69.7985" gradientUnits="userSpaceOnUse">
<stop stop-color="white"/>
<stop offset="1" stop-color="white" stop-opacity="0"/>
</linearGradient>
<linearGradient id="paint69_linear" x1="194.136" y1="128.257" x2="135.798" y2="140.598" gradientUnits="userSpaceOnUse">
<stop stop-color="white"/>
<stop offset="1" stop-color="white" stop-opacity="0"/>
</linearGradient>
<linearGradient id="paint70_linear" x1="101.439" y1="82.3586" x2="134.168" y2="38.7783" gradientUnits="userSpaceOnUse">
<stop stop-color="white"/>
<stop offset="1" stop-color="white" stop-opacity="0"/>
</linearGradient>
<linearGradient id="paint71_linear" x1="101.483" y1="123.349" x2="134.185" y2="166.895" gradientUnits="userSpaceOnUse">
<stop stop-color="white"/>
<stop offset="1" stop-color="white" stop-opacity="0"/>
</linearGradient>
<linearGradient id="paint72_linear" x1="171.763" y1="-19.7867" x2="171.509" y2="92.7464" gradientUnits="userSpaceOnUse">
<stop stop-color="white"/>
<stop offset="1" stop-color="white" stop-opacity="0"/>
</linearGradient>
<linearGradient id="paint73_linear" x1="171.765" y1="224.826" x2="171.511" y2="112.672" gradientUnits="userSpaceOnUse">
<stop stop-color="white"/>
<stop offset="1" stop-color="white" stop-opacity="0"/>
</linearGradient>
<linearGradient id="paint74_linear" x1="164.9" y1="153.041" x2="119.463" y2="181.995" gradientUnits="userSpaceOnUse">
<stop stop-color="white"/>
<stop offset="1" stop-color="white" stop-opacity="0"/>
</linearGradient>
<linearGradient id="paint75_linear" x1="165.72" y1="52.2752" x2="120.14" y2="23.2294" gradientUnits="userSpaceOnUse">
<stop stop-color="white"/>
<stop offset="1" stop-color="white" stop-opacity="0"/>
</linearGradient>
<linearGradient id="paint76_linear" x1="216.356" y1="56.0583" x2="185.816" y2="99.2359" gradientUnits="userSpaceOnUse">
<stop stop-color="white"/>
<stop offset="0.3566" stop-color="white" stop-opacity="0.6975"/>
<stop offset="1" stop-color="white" stop-opacity="0"/>
</linearGradient>
<linearGradient id="paint77_linear" x1="216.356" y1="149.098" x2="185.816" y2="105.92" gradientUnits="userSpaceOnUse">
<stop stop-color="white"/>
<stop offset="0.3566" stop-color="white" stop-opacity="0.6975"/>
<stop offset="1" stop-color="white" stop-opacity="0"/>
</linearGradient>
<radialGradient id="paint78_radial" cx="0" cy="0" r="1" gradientUnits="userSpaceOnUse" gradientTransform="translate(102.56 102.57) scale(48.8678)">
<stop stop-color="white"/>
<stop offset="1" stop-color="white" stop-opacity="0"/>
</radialGradient>
</defs>
</svg>
