<?xml version="1.0" encoding="UTF-8" standalone="no"?>
<svg
   xmlns:dc="http://purl.org/dc/elements/1.1/"
   xmlns:cc="http://creativecommons.org/ns#"
   xmlns:rdf="http://www.w3.org/1999/02/22-rdf-syntax-ns#"
   xmlns:svg="http://www.w3.org/2000/svg"
   xmlns="http://www.w3.org/2000/svg"
   xmlns:sodipodi="http://sodipodi.sourceforge.net/DTD/sodipodi-0.dtd"
   xmlns:inkscape="http://www.inkscape.org/namespaces/inkscape"
   width="172"
   height="60"
   viewBox="0 0 609 221"
   aria-labelledby="box"
   role="presentation"
   preserveAspectRatio="xMinYMid meet"
   version="1.1"
   id="svg2229"
   sodipodi:docname="logo.svg"
   fill="none"
   inkscape:version="0.92.3 (2405546, 2018-03-11)">
  <metadata
     id="metadata2233">
    <rdf:RDF>
      <cc:Work
         rdf:about="">
        <dc:format>image/svg+xml</dc:format>
        <dc:type
           rdf:resource="http://purl.org/dc/dcmitype/StillImage" />
        <dc:title></dc:title>
      </cc:Work>
    </rdf:RDF>
  </metadata>
  <sodipodi:namedview
     pagecolor="#ffffff"
     bordercolor="#666666"
     borderopacity="1"
     objecttolerance="10"
     gridtolerance="10"
     guidetolerance="10"
     inkscape:pageopacity="0"
     inkscape:pageshadow="2"
     inkscape:window-width="1920"
     inkscape:window-height="1172"
     id="namedview2231"
     showgrid="false"
     inkscape:zoom="8.0465116"
     inkscape:cx="25.687341"
     inkscape:cy="14.596642"
     inkscape:window-x="1920"
     inkscape:window-y="0"
     inkscape:window-maximized="1"
     inkscape:current-layer="g2199" />
  <g
     clip-path="url(#clip0)"
     id="g2199">
    <path
       d="M257.301 136.227H295.962V128.292H266.519V109.588H293.605V101.683H266.519V83.0686H295.604V75.1336H257.301V136.227ZM307.916 136.227H331.333C345.533 136.227 351.946 129.157 351.946 119.79C351.946 110.334 345.324 104.994 339.268 104.666V104.069C344.877 102.637 349.56 98.8192 349.56 91.1825C349.56 82.1438 343.296 75.1336 330.289 75.1336H307.916V136.227ZM317.134 128.322V108.753H330.767C338.165 108.753 342.788 113.526 342.788 119.343C342.788 124.474 339.298 128.322 330.439 128.322H317.134ZM317.134 101.564V82.9791H329.723C337.031 82.9791 340.521 86.8273 340.521 91.8985C340.521 97.8049 335.689 101.564 329.484 101.564H317.134ZM362.879 136.227H372.097V113.108H384.626C384.835 113.108 385.014 113.108 385.223 113.108L397.632 136.227H408.132L394.589 111.497C402.077 108.723 405.806 102.488 405.806 94.2849C405.806 83.0388 398.825 75.1336 384.656 75.1336H362.879V136.227ZM372.097 105.173V83.0388H383.671C392.77 83.0388 396.528 87.3642 396.528 94.2849C396.528 101.176 392.77 105.173 383.791 105.173H372.097ZM422.183 136.227L427.791 120.059H451.655L457.234 136.227H467.018L445.033 75.1336H434.383L412.398 136.227H422.183ZM430.476 112.303L439.484 86.2306H439.962L448.971 112.303H430.476ZM485.058 75.1336H475.841V136.227H485.058V75.1336ZM547.792 75.1336H538.664V119.999H538.097L507.014 75.1336H498.482V136.227H507.7V91.4212H508.266L539.32 136.227H547.792V75.1336ZM594.559 91.1825H603.449C603.18 81.3981 594.529 74.2984 582.12 74.2984C569.859 74.2984 560.463 81.3086 560.463 91.8388C560.463 100.341 566.548 105.322 576.362 107.977L583.581 109.946C590.114 111.676 595.156 113.824 595.156 119.253C595.156 125.219 589.458 129.157 581.613 129.157C574.513 129.157 568.606 125.995 568.069 119.343H558.822C559.419 130.41 567.98 137.241 581.672 137.241C596.021 137.241 604.284 129.694 604.284 119.343C604.284 108.335 594.47 104.069 586.714 102.16L580.747 100.609C575.975 99.386 569.621 97.1487 569.65 91.3019C569.65 86.1113 574.394 82.2632 581.911 82.2632C588.921 82.2632 593.903 85.5445 594.559 91.1825Z"
       fill="currentColor"
       id="path2161" />
    <path
       d="M206.633 165.546L221.398 109.894L206.356 54.87L165.821 14.738L110.648 0.25L55.626 15.292L15.491 55.83L1.00195 111.002L16.045 166.026L56.098 205.882L111.2 222.849L166.779 205.606"
       id="path2163"
       fill="url(#paint0_linear)" />
    <g
       style="mix-blend-mode:overlay"
       id="g2167"
       opacity="0.75">
      <path
         d="M56.102 205.633L15.768 165.296L1.00195 110.197L15.768 55.097L55.626 15.292L111.199 0L206.634 55.099L111.2 222.849L56.102 205.633Z"
         id="path2165"
         fill="url(#paint1_linear)" />
    </g>
    <g
       style="mix-blend-mode:multiply"
       id="g2171"
       opacity="0.25">
      <path
         d="M206.632 54.4231L15.766 54.4221L1 109.522L15.766 164.621L166.3 204.958L206.632 164.621L221.4 109.522L206.632 54.4231Z"
         id="path2169"
         fill="url(#paint2_linear)" />
    </g>
    <path
       d="M164.158 155.781L92.9871 119.581C84.6411 115.335 74.7091 117.056 68.1661 123.125L62.7931 130.638L34.2871 184.179L35.0281 184.916L64.6571 129.264C69.9641 119.297 82.4681 115.355 92.5331 120.472L163.704 156.672C173.9 161.859 184.039 173.003 186.306 181.516L187.243 185.036L188.06 184.215L187.273 181.258C184.942 172.506 174.573 161.077 164.158 155.781Z"
       id="path2173"
       fill="#FFFEFD" />
    <path
       d="M164.995 149.709L100.16 113.177C89.8488 107.366 75.8598 110.473 68.9768 120.099L27.7798 177.703L28.5698 178.489L62.7928 130.637L63.7748 128.793C64.9358 126.613 66.4388 124.726 68.1658 123.125L69.8708 120.74C76.4378 111.555 89.7838 108.594 99.6198 114.136L164.455 150.668C174.451 156.301 185.665 166.689 189.454 173.824L192.566 179.685L193.378 178.869L190.426 173.308C186.554 166.017 175.145 155.43 164.995 149.709Z"
       id="path2175"
       fill="#FFFEFD" />
    <path
       d="M63.775 128.792L62.793 130.636L68.166 123.123C66.439 124.725 64.936 126.612 63.775 128.792Z"
       id="path2177"
       fill="#FFFEFD" />
    <path
       d="M199.941 172.273L193.53 165.341C188.137 159.51 175.749 149.753 165.915 143.59L107.26 106.833C97.2279 100.546 82.5739 102.546 74.5929 111.29L20.5439 170.502L21.3949 171.349L75.4789 112.098C83.0869 103.762 97.0589 101.856 106.622 107.85L165.277 144.607C175.037 150.722 187.315 160.389 192.649 166.155L199.094 173.123"
       id="path2179"
       fill="#FFFEFD" />
    <path
       d="M166.933 137.423L114.273 100.547C104.571 93.754 89.468 94.621 80.607 102.481L14.666 160.981L15.048 162.379L81.469 103.453C89.907 95.97 104.288 95.142 113.527 101.611L166.187 138.487C175.651 145.115 188.976 154.083 195.891 158.477L206.688 165.338L207.038 164.02L196.588 157.38C189.686 152.994 176.383 144.041 166.933 137.423Z"
       id="path2181"
       fill="#FFFEFD" />
    <path
       d="M168.063 131.215L121.184 94.3162C111.868 86.9822 96.517 86.7282 86.964 93.7502L11.457 149.247L11.853 150.695L87.793 94.8792C96.872 88.2042 111.463 88.4452 120.317 95.4162L167.196 132.315C176.332 139.506 190.669 147.786 199.155 150.771L209.579 154.438L209.939 153.081L199.62 149.451C191.255 146.507 177.099 138.326 168.063 131.215Z"
       id="path2183"
       fill="#FFFEFD" />
    <path
       d="M169.323 124.975L127.979 88.1312C119.116 80.2342 103.695 78.8902 93.6019 85.1392L8.35693 137.905L8.76893 139.413L94.3909 86.4142C103.96 80.4902 118.579 81.7632 126.981 89.2502L168.325 126.094C177.047 133.867 192.344 141.466 202.423 143.032L212.203 144.552L212.59 143.094L202.654 141.55C192.815 140.021 177.863 132.585 169.323 124.975Z"
       id="path2185"
       fill="#FFFEFD" />
    <path
       d="M168.354 112.227L124.052 81.1411C114.322 74.3151 98.063 73.6512 87.809 79.6602L5.60498 127.837L6.10498 129.664L88.735 81.2371C98.43 75.5531 113.803 76.1821 123.003 82.6381L167.305 113.724C176.851 120.421 192.668 127.709 202.564 129.969L215.302 132.878L215.771 131.109L202.971 128.186C193.267 125.971 177.738 118.812 168.354 112.227Z"
       id="path2187"
       fill="#FFFEFD" />
    <path
       d="M167.562 99.6561L119.869 73.9501C109.407 68.3121 92.4209 68.3802 82.0039 74.1072L2.81592 117.638L3.40092 119.779L83.0439 75.9982C92.8919 70.5852 108.953 70.5181 118.845 75.8511L166.538 101.557C176.766 107.07 192.979 113.953 202.68 116.899L218.283 121.637L218.837 119.55L203.308 114.834C193.721 111.921 177.686 105.113 167.562 99.6561Z"
       id="path2189"
       fill="#FFFEFD" />
    <path
       d="M221.374 109.985C221.454 109.886 221.533 109.783 221.581 109.658C221.82 109.032 221.513 108.338 220.902 108.077L221.399 109.894L221.374 109.985Z"
       id="path2191"
       fill="#FFFEFD" />
    <path
       d="M203.665 101.49C194.206 97.882 177.758 91.465 167 87.185L115.379 66.652C104.348 62.264 86.7659 63.078 76.1869 68.465L2.28789 106.105L1.44189 109.328L77.3159 70.682C87.3419 65.575 104.004 64.803 114.461 68.962L166.082 89.495C176.849 93.778 193.311 100.201 202.779 103.813L219.976 110.375C220.494 110.573 221.046 110.391 221.375 109.984L221.399 109.893L220.902 108.076C220.887 108.07 220.878 108.057 220.863 108.051L203.665 101.49Z"
       id="path2193"
       fill="#FFFEFD" />
    <path
       d="M166.689 74.7251L110.567 59.3461C99.1418 56.2171 81.1048 57.7271 70.3598 62.7141L5.81377 92.6801L4.88477 96.2161L71.5458 65.2691C81.7748 60.5201 98.9468 59.0821 109.823 62.0631L165.945 77.4421C177.035 80.4811 193.595 86.4361 202.859 90.7171L218.079 97.7511L217.108 94.2001L204.04 88.1601C194.659 83.8251 177.903 77.7981 166.689 74.7251Z"
       id="path2195"
       fill="#FFFEFD" />
    <path
       d="M104.943 55.2281L166.11 65.3041C177.373 67.1581 193.888 72.6781 202.924 77.6071L214.262 83.7901L213.111 79.5791L204.43 74.8451C195.135 69.7761 178.174 64.1031 166.621 62.2001L105.454 52.1241C93.8047 50.2061 75.4437 52.3151 64.5307 56.8281L9.22273 79.7001L8.21973 83.5181L65.7317 59.7351C76.1877 55.4111 93.7777 53.3911 104.943 55.2281Z"
       id="path2197"
       fill="#FFFEFD" />
  </g>
  <defs
     id="defs2227">
    <linearGradient
       id="paint0_linear"
       x1="1.00175"
       y1="111.55"
       x2="221.398"
       y2="111.55"
       gradientUnits="userSpaceOnUse">
      <stop
         stop-color="#F8820F"
         id="stop2201" />
      <stop
         offset="1"
         stop-color="#01A3AB"
         id="stop2203" />
    </linearGradient>
    <linearGradient
       id="paint1_linear"
       x1="1.00175"
       y1="111.424"
       x2="206.634"
       y2="111.424"
       gradientUnits="userSpaceOnUse">
      <stop
         stop-color="white"
         id="stop2206" />
      <stop
         offset="1"
         stop-color="white"
         stop-opacity="0"
         id="stop2208" />
    </linearGradient>
    <linearGradient
       id="paint2_linear"
       x1="221.4"
       y1="129.69"
       x2="1"
       y2="129.69"
       gradientUnits="userSpaceOnUse">
      <stop
         id="stop2211" />
      <stop
         offset="0.1042"
         stop-color="#131313"
         stop-opacity="0.8958"
         id="stop2213" />
      <stop
         offset="0.3144"
         stop-color="#434343"
         stop-opacity="0.6856"
         id="stop2215" />
      <stop
         offset="0.612"
         stop-color="#909090"
         stop-opacity="0.388"
         id="stop2217" />
      <stop
         offset="0.9825"
         stop-color="#FAFAFA"
         stop-opacity="0.0175"
         id="stop2219" />
      <stop
         offset="1"
         stop-color="white"
         stop-opacity="0"
         id="stop2221" />
    </linearGradient>
    <clipPath
       id="clip0">
      <rect
         width="608.589"
         height="221"
         id="rect2224"
         fill="white" />
    </clipPath>
  </defs>
</svg>
