<svg id="Layer_1" data-name="Layer 1" xmlns="http://www.w3.org/2000/svg" viewBox="0 0 243.81 111.93"><defs><style>.cls-1{fill:#231f20;}</style></defs><path class="cls-1" d="M20.67,45.14V21.46H12V19.32H31.67v2.14H23V45.14Z"/><path class="cls-1" d="M35.87,45.14V19.32h15.6v2.14H38.23v9.66H50.44v2.14H38.23V43H51.62v2.14Z"/><path class="cls-1" d="M56.78,45.14V19.32H72.13v2.14h-13v9.66H71.06v2.14H59.14V45.14Z"/><path class="cls-1" d="M76.26,36.65V34.59H87.18v2.06Z"/><path class="cls-1" d="M93.45,45.14V19.32h2.36v11.8h13.13V19.32h2.36V45.14h-2.36V33.26H95.81V45.14Z"/><path class="cls-1" d="M126,45.65a9.56,9.56,0,0,1-4.82-1.16A8.2,8.2,0,0,1,118,41.23a10,10,0,0,1-1.14-4.84V36A10,10,0,0,1,118,31.1a8.28,8.28,0,0,1,3.16-3.24,9,9,0,0,1,4.59-1.17,9.05,9.05,0,0,1,4.44,1.06,7.51,7.51,0,0,1,3.05,3,9.44,9.44,0,0,1,1.1,4.7v1.18H119a7.17,7.17,0,0,0,2,5.19A6.87,6.87,0,0,0,126,43.66a6,6,0,0,0,3.89-1.14A7.56,7.56,0,0,0,132,39.71l2,.89A10.63,10.63,0,0,1,132.45,43a7.73,7.73,0,0,1-2.52,1.92A9.09,9.09,0,0,1,126,45.65Zm-6.9-10.91h13a6.15,6.15,0,0,0-1.88-4.49,6.4,6.4,0,0,0-4.46-1.56,6.5,6.5,0,0,0-4.46,1.56A7.06,7.06,0,0,0,119.08,34.74Z"/><path class="cls-1" d="M145.27,45.65a8.67,8.67,0,0,1-3.41-.64,5.55,5.55,0,0,1-2.42-1.9,5.13,5.13,0,0,1-.88-3,4.81,4.81,0,0,1,.88-3,5.29,5.29,0,0,1,2.4-1.77,9,9,0,0,1,3.35-.59h6.57V33.3a4.55,4.55,0,0,0-1.25-3.4,5.07,5.07,0,0,0-3.66-1.21,5.6,5.6,0,0,0-3.74,1.16A5.7,5.7,0,0,0,141.25,33l-2.14-.62a8.39,8.39,0,0,1,1.4-2.86,6.71,6.71,0,0,1,2.55-2,8.77,8.77,0,0,1,3.79-.76,7.32,7.32,0,0,1,5.26,1.77A6.51,6.51,0,0,1,154,33.41v8.7c0,.74.35,1.11,1,1.11h1.73v1.92h-2.36a2.4,2.4,0,0,1-1.81-.69,2.55,2.55,0,0,1-.66-1.86v-.26h-.37a8.38,8.38,0,0,1-1.24,1.59,5.47,5.47,0,0,1-2,1.25A8.4,8.4,0,0,1,145.27,45.65Zm.15-2A6.3,6.3,0,0,0,150,42a6.48,6.48,0,0,0,1.75-4.85v-.45h-6.53a5.75,5.75,0,0,0-3.19.83,2.85,2.85,0,0,0-1.27,2.57,3.11,3.11,0,0,0,1.31,2.67A5.55,5.55,0,0,0,145.42,43.66Z"/><path class="cls-1" d="M160.94,45.14V19.32h2.22V45.14Z"/><path class="cls-1" d="M176.14,45.14A2.9,2.9,0,0,1,174,44.4a2.83,2.83,0,0,1-.72-2.07V29.2h-5.75v-2h5.75V20.5h2.22v6.71h6.27v2h-6.27V42a1,1,0,0,0,1.1,1.1h4.21v2Z"/><path class="cls-1" d="M186.69,45.14V19.32h2.21v11h.44a6.62,6.62,0,0,1,1.24-1.68,5.9,5.9,0,0,1,2.07-1.29,8.61,8.61,0,0,1,3.19-.5,7.87,7.87,0,0,1,3.57.81,6.2,6.2,0,0,1,2.6,2.43,7.78,7.78,0,0,1,1,4.1V45.14h-2.21V34.37c0-2-.49-3.38-1.48-4.23a5.81,5.81,0,0,0-3.94-1.27,6.29,6.29,0,0,0-4.61,1.81c-1.23,1.2-1.85,3-1.85,5.49v9Z"/><path class="cls-1" d="M19.52,62v-7.7H16.71v-.7h6.38v.7H20.28V62Z"/><path class="cls-1" d="M25.94,62.21a3.15,3.15,0,0,1-1.57-.38,2.65,2.65,0,0,1-1-1.06A3.22,3.22,0,0,1,23,59.2v-.15a3.17,3.17,0,0,1,.37-1.57,2.63,2.63,0,0,1,1-1.06A2.92,2.92,0,0,1,25.85,56a3.07,3.07,0,0,1,1.45.34,2.48,2.48,0,0,1,1,1,3.09,3.09,0,0,1,.36,1.53v.38h-5A2.32,2.32,0,0,0,24.35,61a2.25,2.25,0,0,0,1.59.59,1.91,1.91,0,0,0,1.26-.37,2.48,2.48,0,0,0,.69-.91l.65.29a3.48,3.48,0,0,1-.5.77,2.37,2.37,0,0,1-.82.62A2.81,2.81,0,0,1,25.94,62.21Zm-2.25-3.55h4.23a2,2,0,0,0-.62-1.46,2.07,2.07,0,0,0-1.45-.51,2.1,2.1,0,0,0-1.45.51A2.33,2.33,0,0,0,23.69,58.66Z"/><path class="cls-1" d="M32.74,62.21a3.23,3.23,0,0,1-1.81-.5A2.29,2.29,0,0,1,30,60l.7-.13a2.23,2.23,0,0,0,.39,1,1.67,1.67,0,0,0,.72.52,2.76,2.76,0,0,0,.91.16,2,2,0,0,0,1.16-.3.92.92,0,0,0,.44-.81.74.74,0,0,0-.42-.73,3.93,3.93,0,0,0-1.1-.32l-.55-.1a4,4,0,0,1-1-.29,1.86,1.86,0,0,1-.71-.54,1.33,1.33,0,0,1-.25-.84,1.39,1.39,0,0,1,.59-1.19A2.69,2.69,0,0,1,32.49,56a2.62,2.62,0,0,1,1.6.45,2,2,0,0,1,.76,1.3l-.67.15a1.39,1.39,0,0,0-.57-1,2,2,0,0,0-1.12-.28,2,2,0,0,0-1.06.25.82.82,0,0,0-.39.74.75.75,0,0,0,.36.7,2.67,2.67,0,0,0,1,.33l.55.1a5.31,5.31,0,0,1,1.08.28,1.87,1.87,0,0,1,.76.52,1.34,1.34,0,0,1,.29.89,1.48,1.48,0,0,1-.63,1.28A2.82,2.82,0,0,1,32.74,62.21Z"/><path class="cls-1" d="M38.73,62a.93.93,0,0,1-.7-.24.9.9,0,0,1-.24-.67V56.86H35.92v-.65h1.87V54h.72v2.18h2v.65h-2V61a.32.32,0,0,0,.36.36h1.37V62Z"/><path class="cls-1" d="M42.52,55.2a.59.59,0,0,1-.44-.18.6.6,0,0,1-.18-.44.58.58,0,0,1,.18-.45.59.59,0,0,1,.44-.18.61.61,0,0,1,.45.18.57.57,0,0,1,.17.45A.6.6,0,0,1,43,55,.61.61,0,0,1,42.52,55.2ZM42.16,62V56.21h.72V62Z"/><path class="cls-1" d="M45,62V56.21h.7v1.08h.14a2.21,2.21,0,0,1,.71-.83A2.32,2.32,0,0,1,48,56.09a2.63,2.63,0,0,1,1.16.26,2.11,2.11,0,0,1,.85.8,2.61,2.61,0,0,1,.32,1.34V62h-.72v-3.5a1.75,1.75,0,0,0-.48-1.38,1.89,1.89,0,0,0-1.29-.42,2.07,2.07,0,0,0-1.5.59,2.44,2.44,0,0,0-.6,1.8V62Z"/><path class="cls-1" d="M52.05,59.15V59a3.07,3.07,0,0,1,.38-1.59,2.67,2.67,0,0,1,1-1A2.83,2.83,0,0,1,54.86,56a2.56,2.56,0,0,1,1.49.38,2.46,2.46,0,0,1,.79.86h.14V56.21H58v7.32a.82.82,0,0,1-.92.91H53v-.65h3.84c.25,0,.38-.12.38-.36v-2.5h-.15a2.27,2.27,0,0,1-1.16,1,2.94,2.94,0,0,1-1.09.17,2.89,2.89,0,0,1-1.43-.36,2.67,2.67,0,0,1-1-1A3.18,3.18,0,0,1,52.05,59.15Zm3,2.32a2.16,2.16,0,0,0,1.62-.63,2.33,2.33,0,0,0,.62-1.71V59a2.32,2.32,0,0,0-.62-1.72,2.4,2.4,0,0,0-3.22,0A2.29,2.29,0,0,0,52.79,59v.1a2.3,2.3,0,0,0,.63,1.71A2.15,2.15,0,0,0,55,61.47Z"/><path class="cls-1" d="M65,62.21A2.82,2.82,0,0,1,63.84,62a1.82,1.82,0,0,1-.79-.62,1.67,1.67,0,0,1-.29-1,1.57,1.57,0,0,1,.29-1,1.71,1.71,0,0,1,.78-.58,2.94,2.94,0,0,1,1.09-.19h2.14v-.47a1.46,1.46,0,0,0-.41-1.1,1.62,1.62,0,0,0-1.19-.4,1.73,1.73,0,0,0-1.82,1.39l-.7-.2A2.7,2.7,0,0,1,63.4,57a2.1,2.1,0,0,1,.83-.66A2.73,2.73,0,0,1,65.46,56a2.35,2.35,0,0,1,1.71.58,2.09,2.09,0,0,1,.61,1.61v2.83c0,.24.11.36.34.36h.56V62h-.77a.78.78,0,0,1-.59-.22.85.85,0,0,1-.21-.61v-.08H67a3.14,3.14,0,0,1-.4.52,1.89,1.89,0,0,1-.65.4A2.56,2.56,0,0,1,65,62.21Zm0-.65A2,2,0,0,0,66.49,61a2.09,2.09,0,0,0,.57-1.57v-.15H64.94a1.85,1.85,0,0,0-1,.27.93.93,0,0,0-.42.84,1,1,0,0,0,.43.87A1.85,1.85,0,0,0,65,61.56Z"/><path class="cls-1" d="M70.05,62V56.21h.69v1.08h.15a2.18,2.18,0,0,1,.7-.83A2.34,2.34,0,0,1,73,56.09a2.64,2.64,0,0,1,1.17.26,2.08,2.08,0,0,1,.84.8,2.51,2.51,0,0,1,.32,1.34V62h-.72v-3.5a1.75,1.75,0,0,0-.48-1.38,1.88,1.88,0,0,0-1.28-.42,2.07,2.07,0,0,0-1.5.59,2.44,2.44,0,0,0-.6,1.8V62Z"/><path class="cls-1" d="M79.91,62.21a2.7,2.7,0,0,1-1.41-.37,2.62,2.62,0,0,1-1-1,3.26,3.26,0,0,1-.38-1.6v-.15a3.26,3.26,0,0,1,.38-1.6,2.53,2.53,0,0,1,1-1A2.76,2.76,0,0,1,79.91,56a2.89,2.89,0,0,1,1.09.18,2.09,2.09,0,0,1,.73.44,2.3,2.3,0,0,1,.44.57h.14V53.64H83V62h-.69V61h-.15a2.52,2.52,0,0,1-.78.86A2.6,2.6,0,0,1,79.91,62.21Zm.17-.65a2.15,2.15,0,0,0,1.61-.63,2.4,2.4,0,0,0,.62-1.76v-.09a2.36,2.36,0,0,0-.62-1.75,2.35,2.35,0,0,0-3.22,0,2.4,2.4,0,0,0-.62,1.75v.09a2.44,2.44,0,0,0,.62,1.76A2.17,2.17,0,0,0,80.08,61.56Z"/><path class="cls-1" d="M88.22,62v-8.4h5.07v.7H89v3.14h4v.7H89v3.17h4.36V62Z"/><path class="cls-1" d="M94.59,62l2.43-3-2.35-2.87h.9l1.91,2.39h.14l1.91-2.39h.9l-2.35,2.87,2.44,3H99.6l-2-2.48h-.14L95.5,62Z"/><path class="cls-1" d="M102.17,64.44V56.21h.7v1.07H103a2.46,2.46,0,0,1,.79-.86,2.54,2.54,0,0,1,1.49-.38,2.76,2.76,0,0,1,1.42.37,2.66,2.66,0,0,1,1,1,3.21,3.21,0,0,1,.38,1.6v.15a3.26,3.26,0,0,1-.37,1.6,2.66,2.66,0,0,1-1,1,2.75,2.75,0,0,1-1.43.37,3.14,3.14,0,0,1-1.08-.17,2.32,2.32,0,0,1-.74-.45A2.67,2.67,0,0,1,103,61h-.15v3.42Zm3-2.88a2.16,2.16,0,0,0,1.62-.63,2.44,2.44,0,0,0,.62-1.76v-.09a2.4,2.4,0,0,0-.62-1.75,2.35,2.35,0,0,0-3.22,0,2.36,2.36,0,0,0-.63,1.75v.09a2.4,2.4,0,0,0,.63,1.76A2.15,2.15,0,0,0,105.12,61.56Z"/><path class="cls-1" d="M112.61,62.21a3.11,3.11,0,0,1-1.56-.38,2.59,2.59,0,0,1-1-1.06,3.22,3.22,0,0,1-.37-1.57v-.15a3.17,3.17,0,0,1,.37-1.57,2.67,2.67,0,0,1,1-1.06,3,3,0,0,1,1.5-.38,3.06,3.06,0,0,1,1.44.34,2.48,2.48,0,0,1,1,1,3.09,3.09,0,0,1,.36,1.53v.38h-5A2.31,2.31,0,0,0,111,61a2.25,2.25,0,0,0,1.59.59,1.92,1.92,0,0,0,1.27-.37,2.48,2.48,0,0,0,.69-.91l.65.29a3.88,3.88,0,0,1-.5.77,2.47,2.47,0,0,1-.82.62A2.88,2.88,0,0,1,112.61,62.21Zm-2.24-3.55h4.22A2,2,0,0,0,114,57.2a2.32,2.32,0,0,0-2.9,0A2.28,2.28,0,0,0,110.37,58.66Z"/><path class="cls-1" d="M117.1,62V56.21h.7v.73h.14a1.13,1.13,0,0,1,.5-.57,1.91,1.91,0,0,1,.91-.18H120v.67h-.77a1.45,1.45,0,0,0-1,.37,1.51,1.51,0,0,0-.4,1.16V62Z"/><path class="cls-1" d="M121.89,55.2a.61.61,0,0,1-.45-.18.6.6,0,0,1-.18-.44.58.58,0,0,1,.18-.45.62.62,0,0,1,1.07.45.64.64,0,0,1-.17.44A.61.61,0,0,1,121.89,55.2ZM121.53,62V56.21h.72V62Z"/><path class="cls-1" d="M124.36,62V56.21h.69V57h.15a1.91,1.91,0,0,1,.57-.61,2,2,0,0,1,1.13-.28,1.91,1.91,0,0,1,1.15.32,2,2,0,0,1,.63.78h.14a2.07,2.07,0,0,1,.64-.78,2,2,0,0,1,1.21-.32,2.09,2.09,0,0,1,1.05.25,1.8,1.8,0,0,1,.69.68,2,2,0,0,1,.25,1v4h-.72V58.12a1.31,1.31,0,0,0-.38-1,1.39,1.39,0,0,0-1.06-.38,1.61,1.61,0,0,0-1.16.45,1.75,1.75,0,0,0-.47,1.31V62h-.72V58.12a1.35,1.35,0,0,0-.38-1,1.39,1.39,0,0,0-1.06-.38,1.61,1.61,0,0,0-1.16.45,1.71,1.71,0,0,0-.47,1.31V62Z"/><path class="cls-1" d="M137.39,62.21a3.17,3.17,0,0,1-1.57-.38,2.57,2.57,0,0,1-1-1.06,3.23,3.23,0,0,1-.38-1.57v-.15a3.17,3.17,0,0,1,.38-1.57,2.61,2.61,0,0,1,1-1.06,3,3,0,0,1,1.5-.38,3.06,3.06,0,0,1,1.44.34,2.48,2.48,0,0,1,1,1,3.09,3.09,0,0,1,.36,1.53v.38h-5A2.31,2.31,0,0,0,135.8,61a2.25,2.25,0,0,0,1.59.59,1.94,1.94,0,0,0,1.27-.37,2.48,2.48,0,0,0,.69-.91l.64.29a3.43,3.43,0,0,1-.49.77,2.57,2.57,0,0,1-.82.62A2.88,2.88,0,0,1,137.39,62.21Zm-2.24-3.55h4.22a2,2,0,0,0-.61-1.46,2.09,2.09,0,0,0-1.45-.51,2.13,2.13,0,0,0-1.46.51A2.27,2.27,0,0,0,135.15,58.66Z"/><path class="cls-1" d="M141.88,62V56.21h.7v1.08h.14a2.13,2.13,0,0,1,.71-.83,2.32,2.32,0,0,1,1.43-.37,2.63,2.63,0,0,1,1.16.26,2.17,2.17,0,0,1,.85.8,2.61,2.61,0,0,1,.31,1.34V62h-.72v-3.5a1.75,1.75,0,0,0-.48-1.38,1.86,1.86,0,0,0-1.28-.42,2.07,2.07,0,0,0-1.5.59,2.44,2.44,0,0,0-.6,1.8V62Z"/><path class="cls-1" d="M151.17,62a.93.93,0,0,1-.7-.24.9.9,0,0,1-.24-.67V56.86h-1.87v-.65h1.87V54H151v2.18h2v.65h-2V61a.32.32,0,0,0,.36.36h1.37V62Z"/><path class="cls-1" d="M156.34,62.21a2.82,2.82,0,0,1-1.11-.21,1.88,1.88,0,0,1-.79-.62,1.66,1.66,0,0,1-.28-1,1.57,1.57,0,0,1,.28-1,1.76,1.76,0,0,1,.78-.58,3,3,0,0,1,1.1-.19h2.13v-.47a1.43,1.43,0,0,0-.41-1.1,1.59,1.59,0,0,0-1.18-.4,1.84,1.84,0,0,0-1.22.38,1.9,1.9,0,0,0-.61,1l-.69-.2a2.52,2.52,0,0,1,.45-.93,2.18,2.18,0,0,1,.83-.66,2.77,2.77,0,0,1,1.24-.25,2.38,2.38,0,0,1,1.71.58,2.12,2.12,0,0,1,.6,1.61v2.83c0,.24.11.36.34.36h.56V62h-.77a.75.75,0,0,1-.58-.22.82.82,0,0,1-.22-.61v-.08h-.12a2.68,2.68,0,0,1-.4.52,1.94,1.94,0,0,1-.64.4A2.65,2.65,0,0,1,156.34,62.21Zm0-.65a2,2,0,0,0,1.49-.56,2.09,2.09,0,0,0,.57-1.57v-.15h-2.12a1.87,1.87,0,0,0-1,.27.92.92,0,0,0-.41.84,1,1,0,0,0,.42.87A1.87,1.87,0,0,0,156.39,61.56Z"/><path class="cls-1" d="M163.19,62a.93.93,0,0,1-.7-.24.9.9,0,0,1-.23-.67V56.86h-1.88v-.65h1.88V54H163v2.18h2v.65h-2V61a.32.32,0,0,0,.36.36h1.37V62Z"/><path class="cls-1" d="M167,55.2a.61.61,0,0,1-.62-.62.58.58,0,0,1,.18-.45A.6.6,0,0,1,167,54a.62.62,0,0,1,.63.63.6.6,0,0,1-.18.44A.58.58,0,0,1,167,55.2ZM166.62,62V56.21h.72V62Z"/><path class="cls-1" d="M172.12,62.21a3.16,3.16,0,0,1-1.56-.38,2.67,2.67,0,0,1-1-1,3.35,3.35,0,0,1-.36-1.58v-.15a3.28,3.28,0,0,1,.36-1.57,2.63,2.63,0,0,1,1-1.06,3.16,3.16,0,0,1,1.56-.38,3.1,3.1,0,0,1,1.55.38,2.51,2.51,0,0,1,1,1.06,3.17,3.17,0,0,1,.37,1.57v.15a3.24,3.24,0,0,1-.37,1.58,2.54,2.54,0,0,1-1,1A3.1,3.1,0,0,1,172.12,62.21Zm0-.65a2.12,2.12,0,0,0,1.63-.65,2.49,2.49,0,0,0,.6-1.74v-.09a2.49,2.49,0,0,0-.6-1.74,2.12,2.12,0,0,0-1.63-.65,2.15,2.15,0,0,0-1.63.65,2.49,2.49,0,0,0-.6,1.74v.09a2.49,2.49,0,0,0,.6,1.74A2.15,2.15,0,0,0,172.12,61.56Z"/><path class="cls-1" d="M176.89,62V56.21h.7v1.08h.15a2.1,2.1,0,0,1,.7-.83,2.34,2.34,0,0,1,1.43-.37,2.68,2.68,0,0,1,1.17.26,2.08,2.08,0,0,1,.84.8,2.61,2.61,0,0,1,.32,1.34V62h-.72v-3.5a1.75,1.75,0,0,0-.48-1.38,1.88,1.88,0,0,0-1.28-.42,2.07,2.07,0,0,0-1.5.59,2.4,2.4,0,0,0-.6,1.8V62Z"/><path class="cls-1" d="M187.31,62v-8.4h5v.7h-4.22v3.14H192v.7h-3.87V62Z"/><path class="cls-1" d="M195.54,62.21a2.82,2.82,0,0,1-1.11-.21,1.79,1.79,0,0,1-.78-.62,1.6,1.6,0,0,1-.29-1,1.51,1.51,0,0,1,.29-1,1.71,1.71,0,0,1,.78-.58,2.9,2.9,0,0,1,1.09-.19h2.13v-.47a1.46,1.46,0,0,0-.4-1.1,1.63,1.63,0,0,0-1.19-.4,1.85,1.85,0,0,0-1.22.38,1.9,1.9,0,0,0-.61,1l-.69-.2A2.68,2.68,0,0,1,194,57a2.18,2.18,0,0,1,.83-.66,2.8,2.8,0,0,1,1.24-.25,2.38,2.38,0,0,1,1.71.58,2.12,2.12,0,0,1,.6,1.61v2.83c0,.24.12.36.34.36h.56V62h-.76a.77.77,0,0,1-.59-.22.82.82,0,0,1-.22-.61v-.08h-.12a2.68,2.68,0,0,1-.4.52,1.84,1.84,0,0,1-.64.4A2.65,2.65,0,0,1,195.54,62.21Zm.05-.65a2,2,0,0,0,1.49-.56,2.09,2.09,0,0,0,.57-1.57v-.15h-2.12a1.87,1.87,0,0,0-1,.27.94.94,0,0,0-.41.84,1,1,0,0,0,.42.87A1.87,1.87,0,0,0,195.59,61.56Z"/><path class="cls-1" d="M203.13,62.21a3,3,0,0,1-1.52-.37,2.53,2.53,0,0,1-1.05-1.05,3.16,3.16,0,0,1-.39-1.6v-.12a3.19,3.19,0,0,1,.39-1.62,2.57,2.57,0,0,1,1.05-1,3,3,0,0,1,1.52-.37,3,3,0,0,1,1.42.32,2.44,2.44,0,0,1,.91.83,2.61,2.61,0,0,1,.41,1.07l-.7.15a2.1,2.1,0,0,0-.3-.86,1.8,1.8,0,0,0-.68-.63A2.46,2.46,0,0,0,202,57a2.13,2.13,0,0,0-.8.83,2.56,2.56,0,0,0-.3,1.27v.09a2.56,2.56,0,0,0,.3,1.27,2.06,2.06,0,0,0,.8.83,2.25,2.25,0,0,0,1.14.29,2,2,0,0,0,1.46-.5,2.11,2.11,0,0,0,.62-1.21l.71.14a2.79,2.79,0,0,1-.45,1.07,2.55,2.55,0,0,1-.92.83A3,3,0,0,1,203.13,62.21Z"/><path class="cls-1" d="M208.06,55.2a.61.61,0,0,1-.45-.18.6.6,0,0,1-.18-.44.58.58,0,0,1,.18-.45.62.62,0,0,1,1.07.45.64.64,0,0,1-.17.44A.61.61,0,0,1,208.06,55.2ZM207.7,62V56.21h.72V62Z"/><path class="cls-1" d="M210.53,62v-8.4h.72V62Z"/><path class="cls-1" d="M213.72,55.2a.61.61,0,0,1-.62-.62.58.58,0,0,1,.18-.45.6.6,0,0,1,.44-.18.62.62,0,0,1,.63.63.6.6,0,0,1-.18.44A.58.58,0,0,1,213.72,55.2ZM213.36,62V56.21h.72V62Z"/><path class="cls-1" d="M218.31,62a1,1,0,0,1-.71-.24.94.94,0,0,1-.23-.67V56.86H215.5v-.65h1.87V54h.72v2.18h2v.65h-2V61a.32.32,0,0,0,.36.36h1.37V62Z"/><path class="cls-1" d="M222.47,64.44v-.65h3.41a.32.32,0,0,0,.36-.36V61h-.15a1.89,1.89,0,0,1-.4.55A1.92,1.92,0,0,1,225,62a2.84,2.84,0,0,1-1,.16,2.7,2.7,0,0,1-1.16-.26,2.08,2.08,0,0,1-.85-.79,2.61,2.61,0,0,1-.32-1.34V56.21h.72v3.52a1.72,1.72,0,0,0,.48,1.36,1.89,1.89,0,0,0,1.29.42,2.06,2.06,0,0,0,1.5-.58,2.42,2.42,0,0,0,.6-1.79V56.21H227v7.32a.9.9,0,0,1-.24.67.93.93,0,0,1-.7.24Z"/><path class="cls-1" d="M18.65,76.44V71.26H16.73v-.65h1.92V69a.92.92,0,0,1,.24-.67.93.93,0,0,1,.7-.24H21v.65h-1.3a.32.32,0,0,0-.36.36v1.56h2v.65h-2v5.18Z"/><path class="cls-1" d="M25.1,76.61a3.13,3.13,0,0,1-1.56-.38,2.6,2.6,0,0,1-1-1,3.35,3.35,0,0,1-.37-1.58v-.15a3.28,3.28,0,0,1,.37-1.57,2.57,2.57,0,0,1,1-1.06,3.13,3.13,0,0,1,1.56-.38,3.1,3.1,0,0,1,1.55.38,2.57,2.57,0,0,1,1,1.06,3.17,3.17,0,0,1,.37,1.57v.15a3.24,3.24,0,0,1-.37,1.58,2.6,2.6,0,0,1-1,1A3.1,3.1,0,0,1,25.1,76.61Zm0-.65a2.13,2.13,0,0,0,1.63-.65,2.49,2.49,0,0,0,.6-1.74v-.09a2.49,2.49,0,0,0-.6-1.74,2.37,2.37,0,0,0-3.26,0,2.49,2.49,0,0,0-.61,1.74v.09a2.49,2.49,0,0,0,.61,1.74A2.13,2.13,0,0,0,25.1,76Z"/><path class="cls-1" d="M29.87,76.44V70.61h.7v.73h.14a1.13,1.13,0,0,1,.5-.57,2,2,0,0,1,.92-.18h.68v.67H32a1.45,1.45,0,0,0-1.05.37,1.51,1.51,0,0,0-.4,1.16v3.65Z"/><path class="cls-1" d="M37.37,76.44V68h.77v3.84h4.27V68h.77v8.4h-.77V72.58H38.14v3.86Z"/><path class="cls-1" d="M48,76.61a3.15,3.15,0,0,1-1.57-.38,2.65,2.65,0,0,1-1-1.06A3.22,3.22,0,0,1,45,73.6v-.15a3.17,3.17,0,0,1,.37-1.57,2.63,2.63,0,0,1,1-1.06,2.92,2.92,0,0,1,1.49-.38,3.07,3.07,0,0,1,1.45.34,2.48,2.48,0,0,1,1,1,3.09,3.09,0,0,1,.36,1.53v.38h-5a2.32,2.32,0,0,0,.67,1.69A2.25,2.25,0,0,0,48,76a1.91,1.91,0,0,0,1.26-.37,2.48,2.48,0,0,0,.69-.91l.65.29a3.48,3.48,0,0,1-.5.77,2.37,2.37,0,0,1-.82.62A2.83,2.83,0,0,1,48,76.61Zm-2.25-3.55h4.23a2,2,0,0,0-.62-1.46,2.07,2.07,0,0,0-1.45-.51,2.1,2.1,0,0,0-1.45.51A2.33,2.33,0,0,0,45.71,73.06Z"/><path class="cls-1" d="M54.23,76.61a2.82,2.82,0,0,1-1.11-.21,1.79,1.79,0,0,1-.78-.62,1.6,1.6,0,0,1-.29-1,1.51,1.51,0,0,1,.29-1,1.71,1.71,0,0,1,.78-.58,2.9,2.9,0,0,1,1.09-.19h2.13v-.47a1.46,1.46,0,0,0-.4-1.1,1.63,1.63,0,0,0-1.19-.4,1.85,1.85,0,0,0-1.22.38,1.9,1.9,0,0,0-.61,1l-.69-.2a2.68,2.68,0,0,1,.45-.93,2.18,2.18,0,0,1,.83-.66,2.8,2.8,0,0,1,1.24-.25,2.38,2.38,0,0,1,1.71.58,2.12,2.12,0,0,1,.6,1.61v2.83c0,.24.12.36.34.36H58v.62H57.2a.77.77,0,0,1-.59-.22.82.82,0,0,1-.22-.61v-.08h-.12a2.68,2.68,0,0,1-.4.52,1.84,1.84,0,0,1-.64.4A2.65,2.65,0,0,1,54.23,76.61Zm.05-.65a2,2,0,0,0,1.49-.56,2.09,2.09,0,0,0,.57-1.57v-.15H54.22a1.87,1.87,0,0,0-1,.27.94.94,0,0,0-.41.84,1,1,0,0,0,.42.87A1.87,1.87,0,0,0,54.28,76Z"/><path class="cls-1" d="M59.33,76.44V68h.72v8.4Z"/><path class="cls-1" d="M64.28,76.44a1,1,0,0,1-.71-.24.94.94,0,0,1-.23-.67V71.26H61.47v-.65h1.87V68.43h.72v2.18h2v.65h-2v4.17a.32.32,0,0,0,.36.36h1.37v.65Z"/><path class="cls-1" d="M67.71,76.44V68h.72v3.59h.14a2.48,2.48,0,0,1,.4-.55,2.07,2.07,0,0,1,.68-.42,3,3,0,0,1,1-.16,2.52,2.52,0,0,1,1.17.27,2,2,0,0,1,.84.79A2.45,2.45,0,0,1,73,72.89v3.55h-.72v-3.5a1.75,1.75,0,0,0-.48-1.38,1.93,1.93,0,0,0-1.28-.41,2.07,2.07,0,0,0-1.5.59,2.4,2.4,0,0,0-.6,1.79v2.91Z"/><path class="cls-1" d="M77.26,76.44,80,68h1.37l2.74,8.4h-.8l-.72-2.23H78.78l-.72,2.23ZM79,73.51h3.38l-1.62-5h-.14Z"/><path class="cls-1" d="M85.49,76.44V68h.77v8.4Z"/><path class="cls-1" d="M93.23,76.61a2.82,2.82,0,0,1-1.11-.21,1.79,1.79,0,0,1-.78-.62,1.6,1.6,0,0,1-.29-1,1.51,1.51,0,0,1,.29-1,1.73,1.73,0,0,1,.77-.58,3,3,0,0,1,1.1-.19h2.13v-.47a1.43,1.43,0,0,0-.41-1.1,1.59,1.59,0,0,0-1.18-.4,1.84,1.84,0,0,0-1.22.38,1.9,1.9,0,0,0-.61,1l-.69-.2a2.52,2.52,0,0,1,.45-.93,2.18,2.18,0,0,1,.83-.66,2.77,2.77,0,0,1,1.24-.25,2.38,2.38,0,0,1,1.71.58,2.12,2.12,0,0,1,.6,1.61v2.83c0,.24.12.36.34.36H97v.62h-.77a.76.76,0,0,1-.58-.22.82.82,0,0,1-.22-.61v-.08h-.12a2.68,2.68,0,0,1-.4.52,1.84,1.84,0,0,1-.64.4A2.65,2.65,0,0,1,93.23,76.61Zm0-.65a2,2,0,0,0,1.49-.56,2.09,2.09,0,0,0,.57-1.57v-.15H93.22a1.87,1.87,0,0,0-1,.27.92.92,0,0,0-.41.84,1,1,0,0,0,.42.87A1.87,1.87,0,0,0,93.28,76Z"/><path class="cls-1" d="M98.33,76.44V70.61H99v1.08h.14a2.13,2.13,0,0,1,.71-.83,2.32,2.32,0,0,1,1.43-.37,2.63,2.63,0,0,1,1.16.26,2.17,2.17,0,0,1,.85.8,2.61,2.61,0,0,1,.32,1.34v3.55h-.73v-3.5a1.75,1.75,0,0,0-.48-1.38,1.86,1.86,0,0,0-1.28-.42,2.07,2.07,0,0,0-1.5.59,2.44,2.44,0,0,0-.6,1.8v2.91Z"/><path class="cls-1" d="M108.2,76.61a2.74,2.74,0,0,1-1.42-.37,2.66,2.66,0,0,1-1-1,3.16,3.16,0,0,1-.38-1.6v-.15a3.26,3.26,0,0,1,.37-1.6,2.59,2.59,0,0,1,1-1,2.8,2.8,0,0,1,1.43-.37,2.93,2.93,0,0,1,1.09.18,2,2,0,0,1,.72.44,2.08,2.08,0,0,1,.44.57h.14V68h.73v8.4h-.7V75.37h-.14a2.46,2.46,0,0,1-.79.86A2.56,2.56,0,0,1,108.2,76.61Zm.16-.65a2.16,2.16,0,0,0,1.62-.63,2.43,2.43,0,0,0,.61-1.76v-.09a2.39,2.39,0,0,0-.61-1.75,2.35,2.35,0,0,0-3.22,0,2.36,2.36,0,0,0-.63,1.75v.09a2.4,2.4,0,0,0,.63,1.76A2.15,2.15,0,0,0,108.36,76Z"/><path class="cls-1" d="M116.5,76.44V68h3.29a3.28,3.28,0,0,1,1.37.27,2.15,2.15,0,0,1,.94.76,2,2,0,0,1,.34,1.2v.12a2,2,0,0,1-.41,1.34,1.84,1.84,0,0,1-1,.64v.15a1.08,1.08,0,0,1,.71.26,1,1,0,0,1,.29.81v2.85h-.77V73.67a.79.79,0,0,0-.21-.59.9.9,0,0,0-.63-.2h-3.19v3.56Zm.77-4.26h2.45a2.1,2.1,0,0,0,1.44-.44,1.56,1.56,0,0,0,.51-1.25v-.06a1.55,1.55,0,0,0-.5-1.25,2.1,2.1,0,0,0-1.45-.44h-2.45Z"/><path class="cls-1" d="M126.76,76.61a3.1,3.1,0,0,1-1.55-.38,2.63,2.63,0,0,1-1-1,3.35,3.35,0,0,1-.36-1.58v-.15a3.28,3.28,0,0,1,.36-1.57,2.59,2.59,0,0,1,1-1.06,3.35,3.35,0,0,1,3.1,0,2.51,2.51,0,0,1,1,1.06,3.17,3.17,0,0,1,.37,1.57v.15a3.24,3.24,0,0,1-.37,1.58,2.54,2.54,0,0,1-1,1A3.1,3.1,0,0,1,126.76,76.61Zm0-.65a2.12,2.12,0,0,0,1.63-.65,2.49,2.49,0,0,0,.6-1.74v-.09a2.49,2.49,0,0,0-.6-1.74,2.12,2.12,0,0,0-1.63-.65,2.15,2.15,0,0,0-1.63.65,2.49,2.49,0,0,0-.6,1.74v.09a2.49,2.49,0,0,0,.6,1.74A2.15,2.15,0,0,0,126.76,76Z"/><path class="cls-1" d="M134.65,76.61a2.56,2.56,0,0,1-1.49-.38,2.33,2.33,0,0,1-.78-.86h-.15v1.07h-.7V68h.73v3.59h.14a2.08,2.08,0,0,1,.44-.57,2,2,0,0,1,.73-.44,2.91,2.91,0,0,1,1.08-.18,2.75,2.75,0,0,1,1.43.37,2.59,2.59,0,0,1,1,1,3.26,3.26,0,0,1,.37,1.6v.15a3.26,3.26,0,0,1-.37,1.6,2.76,2.76,0,0,1-1,1A2.71,2.71,0,0,1,134.65,76.61Zm-.16-.65a2.15,2.15,0,0,0,1.61-.63,2.44,2.44,0,0,0,.62-1.76v-.09a2.4,2.4,0,0,0-.62-1.75,2.35,2.35,0,0,0-3.22,0,2.36,2.36,0,0,0-.62,1.75v.09a2.4,2.4,0,0,0,.62,1.76A2.15,2.15,0,0,0,134.49,76Z"/><path class="cls-1" d="M142,76.61a3.1,3.1,0,0,1-1.55-.38,2.63,2.63,0,0,1-1-1A3.35,3.35,0,0,1,139,73.6v-.15a3.28,3.28,0,0,1,.36-1.57,2.59,2.59,0,0,1,1-1.06,3.1,3.1,0,0,1,1.55-.38,3.16,3.16,0,0,1,1.56.38,2.63,2.63,0,0,1,1,1.06,3.28,3.28,0,0,1,.36,1.57v.15a3.35,3.35,0,0,1-.36,1.58,2.67,2.67,0,0,1-1,1A3.16,3.16,0,0,1,142,76.61Zm0-.65a2.12,2.12,0,0,0,1.63-.65,2.49,2.49,0,0,0,.6-1.74v-.09a2.49,2.49,0,0,0-.6-1.74,2.12,2.12,0,0,0-1.63-.65,2.15,2.15,0,0,0-1.63.65,2.49,2.49,0,0,0-.6,1.74v.09a2.49,2.49,0,0,0,.6,1.74A2.15,2.15,0,0,0,142,76Z"/><path class="cls-1" d="M148.59,76.44a.93.93,0,0,1-.7-.24.9.9,0,0,1-.24-.67V71.26h-1.87v-.65h1.87V68.43h.72v2.18h2v.65h-2v4.17a.32.32,0,0,0,.36.36h1.37v.65Z"/><path class="cls-1" d="M152.38,69.6a.61.61,0,0,1-.45-.18.6.6,0,0,1-.17-.44.57.57,0,0,1,.17-.45A.62.62,0,0,1,153,69a.64.64,0,0,1-.17.44A.61.61,0,0,1,152.38,69.6ZM152,76.44V70.61h.72v5.83Z"/><path class="cls-1" d="M157.51,76.61a3,3,0,0,1-1.51-.37,2.53,2.53,0,0,1-1.05-1,3.16,3.16,0,0,1-.39-1.6v-.12a3.19,3.19,0,0,1,.39-1.62,2.57,2.57,0,0,1,1.05-1,3.31,3.31,0,0,1,2.94,0,2.52,2.52,0,0,1,.91.83,2.61,2.61,0,0,1,.41,1.07l-.71.15a2.1,2.1,0,0,0-.3-.86,1.77,1.77,0,0,0-.67-.63,2.49,2.49,0,0,0-2.21.06,2.18,2.18,0,0,0-.79.83,2.56,2.56,0,0,0-.3,1.27v.09a2.56,2.56,0,0,0,.3,1.27,2.11,2.11,0,0,0,.79.83,2.3,2.3,0,0,0,1.14.29,2,2,0,0,0,1.47-.5,2.17,2.17,0,0,0,.62-1.21l.71.14a2.79,2.79,0,0,1-.45,1.07,2.63,2.63,0,0,1-.92.83A3,3,0,0,1,157.51,76.61Z"/><path class="cls-1" d="M164.4,76.61a3.2,3.2,0,0,1-1.8-.5,2.3,2.3,0,0,1-.92-1.67l.71-.13a2,2,0,0,0,.39,1,1.56,1.56,0,0,0,.72.52,2.66,2.66,0,0,0,.9.16,2,2,0,0,0,1.16-.3.92.92,0,0,0,.44-.81.74.74,0,0,0-.42-.73,4,4,0,0,0-1.09-.32l-.56-.1a4.1,4.1,0,0,1-1-.29,1.75,1.75,0,0,1-.7-.54,1.28,1.28,0,0,1-.26-.84,1.41,1.41,0,0,1,.59-1.19,2.69,2.69,0,0,1,1.58-.43,2.62,2.62,0,0,1,1.6.45,2,2,0,0,1,.76,1.3l-.67.15a1.39,1.39,0,0,0-.57-1,2,2,0,0,0-1.12-.28,2,2,0,0,0-1.06.25.82.82,0,0,0-.39.74.75.75,0,0,0,.36.7,2.74,2.74,0,0,0,1,.33l.55.1a5.31,5.31,0,0,1,1.08.28,2,2,0,0,1,.77.52,1.39,1.39,0,0,1,.28.89,1.48,1.48,0,0,1-.63,1.28A2.82,2.82,0,0,1,164.4,76.61Z"/></svg>