<?xml version="1.0" encoding="UTF-8" standalone="no"?>
<!-- Created with Inkscape (http://www.inkscape.org/) -->

<svg
   width="261.47501mm"
   height="108.6mm"
   viewBox="0 0 261.47501 108.6"
   version="1.1"
   id="svg1"
   xml:space="preserve"
   inkscape:version="1.3.1 (9b9bdc1480, 2023-11-25, custom)"
   sodipodi:docname="tefhealth.svg"
   xmlns:inkscape="http://www.inkscape.org/namespaces/inkscape"
   xmlns:sodipodi="http://sodipodi.sourceforge.net/DTD/sodipodi-0.dtd"
   xmlns="http://www.w3.org/2000/svg"
   xmlns:svg="http://www.w3.org/2000/svg"><sodipodi:namedview
     id="namedview1"
     pagecolor="#ffffff"
     bordercolor="#000000"
     borderopacity="0.25"
     inkscape:showpageshadow="2"
     inkscape:pageopacity="0.0"
     inkscape:pagecheckerboard="0"
     inkscape:deskcolor="#d1d1d1"
     inkscape:document-units="mm"
     inkscape:zoom="1.0431888"
     inkscape:cx="461.56552"
     inkscape:cy="192.19914"
     inkscape:window-width="3370"
     inkscape:window-height="1371"
     inkscape:window-x="0"
     inkscape:window-y="0"
     inkscape:window-maximized="1"
     inkscape:current-layer="layer1" /><defs
     id="defs1" /><g
     inkscape:label="Layer 1"
     inkscape:groupmode="layer"
     id="layer1"
     transform="translate(17.361755,-97.700005)"><g
       id="g1"
       transform="translate(16.849588,3.9088058)"><path
         style="fill:#000000"
         d="m -3.9752443,177.7292 c -1.4343277,-0.748 -2.0202557,-2.32529 -1.4761877,-3.97383 0.4342426,-1.31577 1.4014335,-1.97203 2.9063437,-1.97203 1.5049102,0 2.47210099,0.65626 2.90634366,1.97203 0.94020004,2.84883 -1.75600656,5.31955 -4.33649966,3.97383 z m 3.05449025,-0.8954 c 0.51081647,-0.41364 0.6246241,-0.75526 0.6246241,-1.875 0,-1.17215 -0.10683305,-1.46109 -0.74235835,-2.00775 -1.0266679,-0.8831 -2.1449198,-0.83468 -3.1144526,0.13485 -0.5249919,0.52499 -0.7733975,1.0391 -0.7733975,1.60064 0,0.92714 0.6068195,2.26992 1.1189124,2.47596 0.7979396,0.32105 2.2947454,0.15061 2.88667195,-0.3287 z m 20.96793905,1.04023 c -0.996031,-0.40245 -1.690189,-1.56563 -1.690189,-2.83222 0,-2.19286 1.049044,-3.25847 3.207802,-3.25847 1.36524,0 2.613031,1.12739 2.613031,2.36089 v 0.81411 h -2.513542 c -2.454484,0 -2.513541,0.0145 -2.513541,0.61533 0,1.5434 2.75516,2.43157 3.836458,1.23675 0.652245,-0.72072 1.312804,-0.72267 0.927507,-0.003 -0.580859,1.08535 -2.506476,1.61627 -3.867526,1.06635 z m 3.336894,-3.95482 c 0,-0.69668 -1.225884,-1.60671 -2.164375,-1.60671 -0.835494,0 -2.068958,1.01813 -2.068958,1.70777 0,0.33474 0.383905,0.4089 2.116666,0.4089 1.913709,0 2.116667,-0.0489 2.116667,-0.50996 z m 3.07839,3.66576 c -0.688257,-0.54139 -0.923436,-1.61413 -0.494651,-2.25629 0.389328,-0.58308 1.382356,-0.89951 2.822825,-0.89951 1.296214,0 1.472603,-0.0634 1.472603,-0.52917 0,-0.73775 -0.926994,-1.5875 -1.731818,-1.5875 -0.370417,0 -0.971142,0.29766 -1.334944,0.66146 -0.363802,0.3638 -0.775109,0.66146 -0.914015,0.66146 -0.446913,0 -0.270159,-0.53562 0.396875,-1.20265 0.829922,-0.82992 2.682442,-0.90343 3.620711,-0.14366 0.552088,0.44705 0.635434,0.76957 0.717921,2.77812 0.07083,1.7248 0.182412,2.27236 0.463045,2.27236 0.203349,0 0.369725,0.11906 0.369725,0.26458 0,0.42141 -1.323612,0.30605 -1.490917,-0.12994 -0.127841,-0.33315 -0.255581,-0.31257 -0.821127,0.13229 -0.865933,0.68115 -2.194734,0.67183 -3.076233,-0.0215 z m 3.252407,-0.94252 c 0.301603,-0.38343 0.54837,-0.91921 0.54837,-1.19063 0,-0.40741 -0.20467,-0.49348 -1.173401,-0.49348 -1.673739,0 -2.530766,0.38306 -2.530766,1.13116 0,0.87503 0.486404,1.25009 1.621213,1.25009 0.750285,0 1.117398,-0.16678 1.534584,-0.69714 z m 37.774312,0.95657 c -0.607893,-0.47918 -0.727273,-0.7572 -0.661458,-1.54046 0.101569,-1.20879 0.841684,-1.62015 2.924579,-1.62549 1.343665,-0.003 1.521355,-0.0657 1.521355,-0.53307 0,-0.76361 -0.937265,-1.5875 -1.805963,-1.5875 -0.455374,0 -0.990544,0.25857 -1.369038,0.66146 -0.700097,0.74522 -1.058333,0.84128 -1.058333,0.28379 0,-0.7072 1.326485,-1.47441 2.549223,-1.47441 1.813581,0 2.213277,0.57784 2.213277,3.19977 0,1.91892 0.05499,2.15581 0.529167,2.27981 0.751372,0.19649 0.656376,0.60583 -0.140596,0.60583 -0.368369,0 -0.740267,-0.18373 -0.82644,-0.40829 -0.13976,-0.36421 -0.208074,-0.36179 -0.632619,0.0224 -0.811109,0.73404 -2.387646,0.7905 -3.243154,0.11614 z m 3.075906,-0.73654 c 0.237477,-0.26241 0.46429,-0.76843 0.504028,-1.12448 0.06942,-0.62203 0.01163,-0.64706 -1.476235,-0.63944 -1.213159,0.006 -1.628554,0.11744 -1.918229,0.51359 -0.469581,0.64219 -0.463985,0.80165 0.04603,1.31166 0.575686,0.57569 2.301591,0.53847 2.844407,-0.0613 z m 12.982093,1.02509 c -0.307323,-0.13162 -0.813339,-0.56294 -1.12448,-0.9585 -1.018382,-1.29466 -0.581033,-4.16495 0.742551,-4.87331 0.893932,-0.47841 2.86563,-0.33187 3.454239,0.25674 l 0.529167,0.52917 v -1.85208 c 0,-1.46991 0.0819,-1.85209 0.396875,-1.85209 0.336742,0 0.396875,0.66146 0.396875,4.36563 0,2.73403 -0.09888,4.36562 -0.264583,4.36562 -0.145521,0 -0.264584,-0.25888 -0.264584,-0.57528 v -0.57529 l -0.635451,0.59697 c -0.69971,0.65735 -2.349684,0.9497 -3.230609,0.57242 z m 2.989112,-1.12327 c 0.906533,-0.85164 0.869642,-2.89566 -0.06921,-3.8345 -0.581651,-0.58166 -0.843077,-0.65991 -1.783233,-0.53381 -1.408554,0.18892 -2.033112,0.93346 -2.033112,2.42369 0,1.63103 0.770728,2.51991 2.184963,2.51991 0.753158,0 1.276772,-0.17714 1.700589,-0.57529 z m 16.325471,1.10973 c -1.08219,-0.43726 -1.69019,-1.55384 -1.69019,-3.10402 0,-1.23867 0.10808,-1.54795 0.7734,-2.21328 0.65106,-0.65106 0.98522,-0.77339 2.11249,-0.77339 1.82668,0 2.92735,0.94347 3.12272,2.67671 0.29358,2.60471 -1.94374,4.37345 -4.31842,3.41398 z m 3.05311,-1.23158 c 0.69108,-0.87857 0.7235,-2.6318 0.0645,-3.48836 -0.30309,-0.39397 -0.85214,-0.6646 -1.53381,-0.75603 -0.86789,-0.11641 -1.19847,-0.0248 -1.81068,0.50181 -1.02987,0.88586 -1.10933,2.7466 -0.16043,3.75683 0.91761,0.97692 2.66645,0.96967 3.44041,-0.0143 z m 4.802,0.80591 c -0.78338,-0.65917 -0.81405,-0.66415 -0.81405,-0.13229 0,0.31488 -0.17076,0.55268 -0.39687,0.55268 -0.33675,0 -0.39688,-0.66145 -0.39688,-4.36562 0,-3.70417 0.0601,-4.36563 0.39688,-4.36563 0.31536,0 0.39687,0.38431 0.39687,1.87129 v 1.87129 l 0.69714,-0.54837 c 0.92718,-0.72932 2.69625,-0.73669 3.61365,-0.0151 1.72869,1.35979 1.43739,4.63293 -0.49049,5.51133 -1.08058,0.49235 -2.12702,0.36021 -3.00625,-0.37961 z m 3.15161,-0.58223 c 0.39713,-0.32158 0.62931,-0.86923 0.72376,-1.70716 0.12541,-1.1127 0.06,-1.31279 -0.66733,-2.04008 -1.07389,-1.07389 -2.19639,-1.08529 -3.24869,-0.033 -1.02916,1.02916 -1.08469,2.64354 -0.12397,3.60425 0.79914,0.79914 2.43918,0.88617 3.31623,0.17598 z m 4.58157,0.76519 c -1.6612,-1.04332 -1.83522,-3.89211 -0.31585,-5.17058 1.20072,-1.01034 3.16264,-0.96576 4.22439,0.096 0.66938,0.66938 0.7734,0.9713 0.7734,2.24479 0,1.2355 -0.11802,1.60347 -0.73619,2.29532 -0.97169,1.08751 -2.6938,1.32079 -3.94575,0.53448 z m 3.34426,-0.80614 c 1.71995,-1.71995 0.33583,-4.80576 -1.98656,-4.42889 -1.24045,0.2013 -1.94754,1.08947 -1.95863,2.46022 -0.0132,1.62884 0.76411,2.48308 2.25936,2.48308 0.80744,0 1.33126,-0.15984 1.68583,-0.51441 z m 13.09055,0.80929 c -1.70352,-1.0388 -1.90984,-3.7636 -0.38795,-5.12353 1.11444,-0.99584 3.04478,-1.03316 4.07457,-0.0788 0.72268,0.66976 0.89789,1.31437 0.43501,1.60044 -0.14579,0.0901 -0.37822,-0.13375 -0.5165,-0.49746 -0.51462,-1.35356 -2.15614,-1.61076 -3.43145,-0.53766 -0.67531,0.56824 -0.81405,0.87781 -0.81405,1.8164 0,1.66745 0.76423,2.52571 2.24898,2.52571 0.97612,0 1.25117,-0.12641 1.79943,-0.82695 0.86146,-1.10075 1.4141,-0.91581 0.71191,0.23823 -0.86084,1.41477 -2.62754,1.79367 -4.11995,0.8836 z m 7.09869,-0.0119 c -0.47294,-0.29688 -0.85989,-0.65085 -0.85989,-0.78661 0,-0.13576 -0.0723,-0.43517 -0.1606,-0.66535 -0.2831,-0.73774 0.53394,-0.45654 0.98679,0.33962 0.74959,1.31788 3.1627,1.21193 3.35705,-0.1474 0.0934,-0.65309 -0.39579,-0.98366 -1.8413,-1.24432 -1.18928,-0.21445 -2.34194,-1.08407 -2.34194,-1.76687 0,-1.53197 3.00216,-2.21736 4.18721,-0.95593 0.54937,0.58478 0.76449,1.23972 0.40719,1.23972 -0.0925,0 -0.44396,-0.29766 -0.78112,-0.66146 -0.95179,-1.02699 -3.01953,-0.75522 -3.01953,0.39688 0,0.61881 0.55349,0.93513 2.0785,1.18788 2.89593,0.47995 2.88252,3.19308 -0.0173,3.48812 -0.83328,0.0848 -1.36392,-0.0281 -1.99511,-0.42428 z M -9.4242552,175.22292 v -2.64583 h -0.9260418 c -0.646759,0 -0.926042,-0.1197 -0.926042,-0.39688 0,-0.27718 0.279283,-0.39687 0.926042,-0.39687 0.89587,0 0.9260418,-0.0328 0.9260418,-1.00542 0,-1.27218 0.3731862,-1.64042 1.6624653,-1.64042 1.2596621,0 1.2353649,0.61949 -0.029195,0.74437 -0.7640308,0.0755 -0.8395199,0.16467 -0.8395199,0.99219 0,0.88443 0.028915,0.90928 1.0583334,0.90928 0.7643519,0 1.0583334,0.11024 1.0583334,0.39687 0,0.28663 -0.2939815,0.39688 -1.0583334,0.39688 h -1.0583334 v 2.64583 c 0,2.17546 -0.070555,2.64583 -0.396875,2.64583 -0.3263194,0 -0.396875,-0.47037 -0.3968754,-2.64583 z m 11.9062503,-0.39687 c 0,-1.91381 0.1012461,-3.04271 0.2728873,-3.04271 0.1500879,0 0.3402459,0.17553 0.4225732,0.39007 0.1318946,0.34371 0.1960498,0.34371 0.5397616,0 0.4849849,-0.48498 2.0311065,-0.53391 1.8752764,-0.0593 -0.059729,0.1819 -0.4566043,0.37103 -0.8819445,0.42028 -1.2958484,0.15007 -1.434804,0.43921 -1.434804,2.98555 0,1.91148 -0.073901,2.34885 -0.396875,2.34885 -0.3297705,0 -0.396875,-0.51446 -0.396875,-3.0427 z m 7.9374999,-1.32292 c 0,-3.70417 0.06013,-4.36563 0.396875,-4.36563 0.3175,0 0.396875,0.39688 0.396875,1.98438 v 1.98437 h 2.248959 2.248958 v -1.98437 c 0,-1.5875 0.07938,-1.98438 0.396875,-1.98438 0.336743,0 0.396875,0.66146 0.396875,4.36563 0,3.70417 -0.06013,4.36562 -0.396875,4.36562 -0.3175,0 -0.396875,-0.39687 -0.396875,-1.98437 V 173.9 h -2.248958 -2.248959 v 1.98438 c 0,1.5875 -0.07938,1.98437 -0.396875,1.98437 -0.336742,0 -0.396875,-0.66145 -0.396875,-4.36562 z m 23.018751,0 c 0,-3.70417 0.06013,-4.36563 0.396875,-4.36563 0.336742,0 0.396875,0.66146 0.396875,4.36563 0,3.70417 -0.06013,4.36562 -0.396875,4.36562 -0.336743,0 -0.396875,-0.66145 -0.396875,-4.36562 z m 4.409722,4.18923 c -0.09701,-0.097 -0.176389,-1.28045 -0.176389,-2.62986 v -2.45347 l -0.971735,-0.0821 c -1.39578,-0.11795 -1.487192,-0.74357 -0.108647,-0.74357 h 1.080382 V 170.725 c 0,-0.58208 0.119063,-1.05833 0.264584,-1.05833 0.145521,0 0.264583,0.4694 0.264583,1.04312 0,1.02785 0.01556,1.04431 1.063003,1.12448 0.584651,0.0447 1.063003,0.20042 1.063003,0.34594 0,0.14552 -0.478352,0.3012 -1.063003,0.34594 l -1.063003,0.0814 v 1.94753 c 0,2.45554 0.128392,2.78455 1.086641,2.78455 0.420993,0 0.765442,0.11906 0.765442,0.26458 0,0.29221 -1.923886,0.36917 -2.204861,0.0882 z m 4.321528,-4.18923 c 0,-3.70417 0.06013,-4.36563 0.396875,-4.36563 0.315368,0 0.396875,0.38431 0.396875,1.87129 v 1.87129 l 0.69714,-0.54837 c 0.420942,-0.33112 1.076095,-0.54504 1.653646,-0.53996 1.821752,0.016 2.411714,0.98056 2.411714,3.94294 0,1.72056 -0.0769,2.13406 -0.396875,2.13406 -0.320934,0 -0.396875,-0.42065 -0.396875,-2.19839 0,-2.71563 -0.287351,-3.21354 -1.854604,-3.21354 -1.676163,0 -2.114146,0.68875 -2.114146,3.32458 0,1.67904 -0.07763,2.08735 -0.396875,2.08735 -0.336742,0 -0.396875,-0.66145 -0.396875,-4.36562 z m 11.030463,1.53636 c 0.511849,-1.5726 1.131539,-3.51412 1.37709,-4.31449 0.405695,-1.32234 0.515817,-1.4552 1.20614,-1.4552 0.742618,0 0.788497,0.0862 2.042407,3.83645 0.705498,2.11006 1.349043,4.04482 1.4301,4.29948 0.09523,0.29918 0.0084,0.46302 -0.24528,0.46302 -0.22689,0 -0.55055,-0.47471 -0.766667,-1.12448 l -0.374012,-1.12447 -2.003682,-0.0768 -2.003682,-0.0768 -0.378259,1.13514 c -0.208043,0.62434 -0.566478,1.17167 -0.796524,1.2163 -0.341013,0.0662 -0.24638,-0.44695 0.512369,-2.77812 z m 4.315371,-0.24086 c 0,-0.36088 -1.414314,-4.75211 -1.596695,-4.95749 -0.150197,-0.16915 -1.842889,4.42569 -1.842889,5.00254 0,0.0631 0.773907,0.11466 1.719792,0.11466 0.945886,0 1.719792,-0.0719 1.719792,-0.15971 z m 3.439583,-1.2955 c 0,-3.70417 0.06013,-4.36563 0.396875,-4.36563 0.336743,0 0.396875,0.66146 0.396875,4.36563 0,3.70417 -0.06013,4.36562 -0.396875,4.36562 -0.336742,0 -0.396875,-0.66145 -0.396875,-4.36562 z m 13.493751,1.32292 c 0,-1.85209 0.103532,-3.04271 0.264583,-3.04271 0.145521,0 0.264583,0.23812 0.264583,0.52916 0,0.29105 0.10061,0.52917 0.223576,0.52917 0.122967,0 0.439077,-0.23812 0.702466,-0.52917 0.333752,-0.36879 0.807257,-0.52661 1.562361,-0.52075 1.956471,0.0152 2.538681,0.91945 2.538681,3.94294 0,1.72056 -0.0769,2.13406 -0.396875,2.13406 -0.320935,0 -0.396875,-0.42065 -0.396875,-2.19839 0,-2.71563 -0.287351,-3.21354 -1.854604,-3.21354 -1.676163,0 -2.114146,0.68875 -2.114146,3.32458 0,1.67904 -0.07764,2.08735 -0.396875,2.08735 -0.329771,0 -0.396875,-0.51446 -0.396875,-3.0427 z m 19.05,-1.34925 v -4.39195 l 2.360282,0.0925 c 2.063333,0.0808 2.446138,0.17317 3.042708,0.73391 0.930737,0.87483 0.949309,2.44379 0.03891,3.28751 -0.624934,0.57917 -0.628753,0.60561 -0.132291,0.91565 0.41995,0.26226 0.511221,0.62591 0.511221,2.03681 0,1.35033 -0.08486,1.71755 -0.396875,1.71755 -0.30716,0 -0.396875,-0.34689 -0.396875,-1.53458 0,-0.84402 -0.142875,-1.67746 -0.3175,-1.85208 -0.18469,-0.18469 -1.070093,-0.3175 -2.116667,-0.3175 H 94.29241 v 1.85208 c 0,1.46991 -0.08189,1.85208 -0.396875,1.85208 -0.336838,0 -0.396875,-0.66438 -0.396875,-4.39195 z m 4.807813,-0.54385 c 0.602888,-0.5456 0.627173,-1.87562 0.04597,-2.51784 -0.342971,-0.37898 -0.830436,-0.48386 -2.248959,-0.48386 h -1.811076 v 1.7198 1.71979 h 1.765104 c 1.271152,0 1.900508,-0.12254 2.248959,-0.43789 z m 28.009833,4.42403 c -0.15064,-0.28147 -0.2739,-1.4721 -0.2739,-2.64583 v -2.13406 h -0.92604 c -0.64676,0 -0.92604,-0.1197 -0.92604,-0.39688 0,-0.27718 0.27928,-0.39687 0.92604,-0.39687 0.904,0 0.92604,-0.0252 0.92604,-1.05834 0,-0.76435 0.11025,-1.05833 0.39688,-1.05833 0.28663,0 0.39687,0.29398 0.39687,1.05833 v 1.05834 h 1.05834 c 0.76435,0 1.05833,0.11024 1.05833,0.39687 0,0.28727 -0.29512,0.39688 -1.06863,0.39688 h -1.06864 l 0.0764,2.3151 0.0764,2.31511 0.85989,0.0829 c 1.22009,0.11764 1.06941,0.57855 -0.18913,0.57855 -0.76635,0 -1.12282,-0.1379 -1.32291,-0.51177 z m 4.4886,-2.53093 c 0,-1.85209 0.10354,-3.04271 0.26459,-3.04271 0.16105,0 0.26458,1.19062 0.26458,3.04271 0,1.85208 -0.10353,3.0427 -0.26458,3.0427 -0.16105,0 -0.26459,-1.19062 -0.26459,-3.0427 z m -0.17572,-4.51571 c -0.19095,-0.49761 0.27727,-1.04025 0.68184,-0.79021 0.43611,0.26953 0.34486,1.20487 -0.11754,1.20487 -0.22285,0 -0.47679,-0.18659 -0.5643,-0.41466 z M 26.823662,165.04716 c 0,-0.30109 0.480905,-0.4031 2.182813,-0.46302 l 2.182813,-0.0768 0.07997,-1.38907 c 0.04398,-0.76398 0.0092,-1.38906 -0.07721,-1.38906 -0.08645,0 -0.412779,0.23813 -0.725175,0.52917 -0.731163,0.68118 -2.737472,0.71527 -3.546101,0.0603 -1.885925,-1.52766 -1.382642,-4.97211 0.815166,-5.57895 1.096058,-0.30264 2.741523,0.0525 2.967113,0.64037 0.214842,0.55987 0.618525,0.46278 0.618525,-0.14877 0,-0.29104 0.119063,-0.52916 0.264584,-0.52916 0.400753,0 0.350373,8.01046 -0.05292,8.41375 -0.195941,0.19594 -1.158287,0.3175 -2.513542,0.3175 -1.748604,0 -2.196042,-0.0787 -2.196042,-0.38618 z m 3.038282,-3.05172 c 0.865624,-0.32911 1.512766,-1.78655 1.28933,-2.90373 -0.352627,-1.76314 -2.676785,-2.477 -3.942763,-1.21102 -1.109522,1.10952 -0.813037,3.58527 0.492344,4.11122 0.782045,0.31509 1.339221,0.316 2.161089,0.004 z m 48.55547,-0.92773 c 0,-3.70416 0.06013,-4.36562 0.396875,-4.36562 0.231092,0 0.396875,0.24031 0.396875,0.57528 v 0.57529 l 0.648093,-0.60885 c 0.863074,-0.81082 2.496259,-0.86427 3.506147,-0.11476 2.021916,1.50062 1.456052,5.05946 -0.91904,5.78005 -0.856033,0.25972 -2.113102,-0.0753 -2.717699,-0.72424 -0.517134,-0.55508 -0.517501,-0.55412 -0.517501,1.3465 0,1.51426 -0.0809,1.90198 -0.396875,1.90198 -0.336743,0 -0.396875,-0.66146 -0.396875,-4.36563 z m 4.782525,0.50785 c 0.956384,-1.01802 0.906791,-2.83896 -0.100925,-3.70576 -0.8963,-0.77096 -2.25674,-0.84064 -3.098888,-0.15871 -0.428792,0.34722 -0.628497,0.85367 -0.722536,1.83235 -0.114601,1.19267 -0.04946,1.433 0.55124,2.0337 0.945268,0.94527 2.48227,0.94455 3.371109,-0.002 z m 121.423731,3.4609 c 0,-0.3175 0.39687,-0.39687 1.98437,-0.39687 h 1.98438 v -1.50578 c 0,-1.26052 -0.0539,-1.43484 -0.33073,-1.07025 -0.86383,1.13756 -3.0131,1.13322 -3.91069,-0.008 -0.42939,-0.54587 -0.52108,-1.07521 -0.52108,-3.00801 0,-1.90857 0.0739,-2.34557 0.39687,-2.34557 0.3232,0 0.39688,0.4393 0.39688,2.36624 0,2.14528 0.0549,2.40471 0.58803,2.77813 0.86861,0.60839 1.98219,0.51154 2.73129,-0.23755 0.58189,-0.5819 0.64943,-0.87081 0.64943,-2.77813 0,-1.71578 0.077,-2.12869 0.39687,-2.12869 0.33549,0 0.39688,0.62618 0.39688,4.04812 0,2.79577 -0.0982,4.14635 -0.3175,4.36563 -0.19267,0.19267 -1.12889,0.3175 -2.38125,0.3175 -1.65806,0 -2.06375,-0.078 -2.06375,-0.39688 z M -2.9741625,162.6719 c -1.1829381,-0.51484 -1.6875926,-1.37577 -1.6875926,-2.87899 0,-1.60198 0.7215614,-2.70838 1.9957781,-3.06021 1.86635424,-0.51532 3.8250554,0.70664 3.8250554,2.38632 v 0.75807 h -2.5135417 c -2.4846809,0 -2.5135417,0.007 -2.5135417,0.64225 0,1.56339 2.6265951,2.31145 3.84342808,1.09462 0.71625387,-0.71625 1.12376302,-0.46996 0.60275806,0.36431 -0.33612467,0.53822 -1.51520606,1.08272 -2.30285564,1.06346 -0.2329463,-0.006 -0.795216,-0.17212 -1.249488,-0.36983 z m 3.3394909,-3.83394 c 0,-0.68174 -1.21855373,-1.60671 -2.1166667,-1.60671 -0.898113,0 -2.1166667,0.92497 -2.1166667,1.60671 0,0.46106 0.2029577,0.50996 2.1166667,0.50996 1.91370896,0 2.1166667,-0.0489 2.1166667,-0.50996 z m 4.0401678,4.02809 c -1.075176,-0.20768 -2.2178226,-2.19521 -1.2620427,-2.19521 0.2182812,0 0.396875,0.16014 0.396875,0.35586 0,0.65575 0.9437751,1.23164 2.0184377,1.23164 1.1404152,0 1.685729,-0.36131 1.685729,-1.11693 0,-0.5041 -0.4527347,-0.74879 -2.303285,-1.24482 -1.3219541,-0.35435 -1.9300484,-0.89537 -1.9300484,-1.71719 0,-0.95527 0.8942921,-1.56551 2.2942469,-1.56551 1.0180248,0 1.3385106,0.12722 1.8663157,0.74083 0.4877594,0.56705 0.5632723,0.81013 0.3219281,1.03628 -0.2332201,0.21854 -0.3472827,0.20813 -0.4381454,-0.04 -0.2426228,-0.66255 -0.9205629,-1.11976 -1.6603544,-1.11976 -1.1514416,0 -1.5902409,0.26077 -1.5902409,0.94504 0,0.72307 0.4935718,1.03858 2.0200716,1.29131 1.0380935,0.17187 2.2132619,0.94756 2.2132619,1.4609 0,1.51218 -1.5513412,2.33959 -3.6327491,1.93755 z m 33.6156448,-0.12848 c -0.317064,-0.15329 -0.721603,-0.62906 -0.898975,-1.05728 -0.279546,-0.67488 -0.252005,-0.87323 0.206805,-1.48932 0.468042,-0.6285 0.73285,-0.71981 2.288038,-0.78899 1.749068,-0.0778 1.758737,-0.0825 1.758737,-0.85059 0,-1.39796 -1.915971,-1.80947 -3.066761,-0.65868 -1.043331,1.04333 -1.565038,0.81893 -0.761897,-0.32772 0.463106,-0.66118 1.942986,-1.1504 2.830067,-0.93558 0.330944,0.0802 0.869607,0.38816 1.197029,0.68449 0.521891,0.47231 0.595312,0.79718 0.595312,2.63408 0,1.8728 0.0562,2.11001 0.529167,2.23369 0.741721,0.19397 0.660722,0.60583 -0.119145,0.60583 -0.356571,0 -0.759266,-0.19826 -0.894878,-0.44059 -0.224562,-0.40127 -0.311567,-0.38946 -0.97487,0.13229 -0.78043,0.61389 -1.758794,0.70791 -2.688629,0.25837 z m 2.825438,-1.0084 c 0.291042,-0.29104 0.529167,-0.84113 0.529167,-1.22243 0,-0.68469 -0.01987,-0.69182 -1.608525,-0.5769 -1.5482,0.11198 -2.081574,0.4142 -2.09159,1.18512 -0.01447,1.11346 2.235816,1.54934 3.170948,0.61421 z m 13.067273,1.07593 c -2.046759,-0.87212 -2.468382,-3.9728 -0.758623,-5.57904 0.913344,-0.85804 2.783654,-0.85439 3.700796,0.007 l 0.659305,0.61938 v -1.8982 c 0,-1.51091 0.08098,-1.89821 0.396875,-1.89821 0.336742,0 0.396875,0.66146 0.396875,4.36563 0,3.70417 -0.06013,4.36562 -0.396875,4.36562 -0.231092,0 -0.396875,-0.24031 -0.396875,-0.57528 v -0.57529 l -0.623518,0.58576 c -0.702019,0.65952 -2.13793,0.94034 -2.97796,0.58241 z m 2.952046,-1.19619 c 1.018263,-1.01827 0.817951,-3.11417 -0.385973,-4.03851 -0.701069,-0.53827 -2.042261,-0.39749 -2.852445,0.2994 -1.007717,0.8668 -1.057309,2.68774 -0.100926,3.70576 0.874605,0.93098 2.426221,0.94647 3.339344,0.0334 z m 31.102021,1.12281 c -1.075738,-0.57697 -1.7012,-1.66375 -1.7012,-2.95594 0,-2.24829 1.719971,-3.63173 3.814103,-3.06784 1.143246,0.30785 2.092109,1.47417 2.093936,2.57383 9.6e-4,0.57774 -0.07711,0.59532 -2.644844,0.59532 -1.670951,0 -2.645833,0.10233 -2.645833,0.27772 0,0.52554 0.77483,1.77507 1.202479,1.93917 1.004781,0.38557 2.263456,0.16319 2.887503,-0.51017 0.423256,-0.4567 0.686039,-0.57598 0.813736,-0.36936 0.104708,0.16942 -0.10218,0.59595 -0.465104,0.95887 -0.777175,0.77718 -2.433013,1.05279 -3.354776,0.5584 z m 3.414078,-3.7927 c 0,-0.2249 -0.292244,-0.70115 -0.649431,-1.05833 -0.713829,-0.71383 -2.089804,-0.86561 -2.81308,-0.31029 -0.398766,0.30616 -1.035405,1.30707 -1.035405,1.62783 0,0.0823 1.012031,0.14969 2.248958,0.14969 1.852083,0 2.248958,-0.0722 2.248958,-0.4089 z m 22.572853,3.72581 c -1.44425,-0.62815 -2.03324,-2.46274 -1.38639,-4.3183 0.38338,-1.09975 1.42723,-1.73264 2.85773,-1.73264 0.98545,0 1.29488,0.13526 1.92638,0.84202 0.47056,0.52665 0.75234,1.13775 0.75234,1.6316 v 0.78958 h -2.51354 c -2.35577,0 -2.51354,0.034 -2.51354,0.54119 0,0.29766 0.29225,0.83344 0.64943,1.19063 0.83678,0.83677 2.4824,0.89887 3.18703,0.12026 0.26339,-0.29104 0.64322,-0.52917 0.84407,-0.52917 0.58865,0 -0.0714,0.98722 -0.97107,1.45247 -0.94606,0.48923 -1.72816,0.49264 -2.83244,0.0124 z m 3.43396,-3.48275 c 0.24643,-0.24643 -0.52118,-1.59677 -1.01554,-1.78647 -0.92043,-0.3532 -2.00691,-0.15403 -2.64601,0.48508 -1.18066,1.18066 -0.90271,1.46723 1.42314,1.46723 1.13991,0 2.1472,-0.0746 2.23841,-0.16584 z m 16.67455,3.6159 c -1.21289,-0.51454 -1.48263,-1.97927 -0.52941,-2.87477 0.49247,-0.46266 0.93277,-0.57529 2.24896,-0.57529 1.55647,0 1.63659,-0.0315 1.63659,-0.64256 0,-1.49452 -1.88531,-1.9941 -3.06676,-0.81265 -0.98329,0.98329 -1.4502,0.89206 -0.88069,-0.17208 0.39493,-0.73795 1.8823,-1.31251 2.88075,-1.11282 1.36625,0.27325 1.86045,1.1885 1.86045,3.44555 0,1.49548 0.0936,1.99292 0.39687,2.1093 0.61521,0.23607 0.4682,0.62484 -0.23627,0.62484 -0.34824,0 -0.70791,-0.1948 -0.79927,-0.43289 -0.15309,-0.39893 -0.20461,-0.39805 -0.65695,0.0113 -0.599,0.54209 -2.07001,0.76476 -2.85427,0.43206 z m 2.74377,-1.11493 c 0.3368,-0.31641 0.61237,-0.85219 0.61237,-1.19063 0,-0.56308 -0.11383,-0.61533 -1.34031,-0.61533 -0.73717,0 -1.57061,0.12325 -1.85209,0.27389 -0.57206,0.30616 -0.68034,1.30379 -0.19427,1.78986 0.52594,0.52593 2.09529,0.38011 2.7743,-0.25779 z m 13.67964,1.10973 c -1.64522,-0.66475 -2.31295,-3.64012 -1.14899,-5.11986 0.89954,-1.14357 3.1153,-1.4679 4.23344,-0.61966 1.91899,1.45577 1.67414,4.7486 -0.41809,5.6228 -1.00206,0.41869 -1.82936,0.4549 -2.66636,0.11672 z m 2.95205,-1.18387 c 0.5009,-0.50091 0.64943,-0.92723 0.64943,-1.86411 0,-0.93689 -0.14853,-1.36321 -0.64943,-1.86411 -0.85875,-0.85876 -2.23784,-0.87155 -3.21637,-0.0298 -0.97765,0.84094 -1.02933,2.75996 -0.10093,3.74819 0.85232,0.90725 2.41527,0.9119 3.3173,0.01 z m 22.08068,1.2676 c -1.35304,-0.53886 -1.7509,-2.04227 -0.79375,-2.99942 0.42062,-0.42062 0.88194,-0.52917 2.24896,-0.52917 1.88882,0 2.15814,-0.31476 1.30791,-1.52863 -0.68708,-0.98095 -3.0277,-0.60277 -3.0277,0.4892 0,0.13512 -0.1786,0.24568 -0.39688,0.24568 -0.60074,0 -0.47616,-0.62702 0.26243,-1.32089 0.90294,-0.84827 2.82489,-0.86872 3.65487,-0.0389 0.48712,0.48703 0.59564,0.94151 0.67391,2.82223 0.0707,1.69857 0.18288,2.24171 0.46303,2.24171 0.20334,0 0.36972,0.11906 0.36972,0.26458 0,0.42925 -1.32518,0.30196 -1.4962,-0.14371 -0.14047,-0.36604 -0.20467,-0.36487 -0.62034,0.0113 -0.50739,0.45918 -2.01705,0.73646 -2.64596,0.48599 z m 2.52557,-1.2676 c 0.35719,-0.35719 0.64943,-0.89297 0.64943,-1.19063 0,-0.47398 -0.16646,-0.54119 -1.34031,-0.54119 -0.73717,0 -1.57061,0.12325 -1.85208,0.27389 -0.57207,0.30616 -0.68035,1.30379 -0.19428,1.78986 0.55558,0.55557 2.02832,0.37698 2.73724,-0.33193 z m 4.96603,1.05592 c -2.05359,-0.89317 -2.25854,-4.67681 -0.30428,-5.61738 1.1589,-0.55776 1.60051,-0.61511 2.62091,-0.34034 1.3715,0.3693 2.55682,2.11164 1.43656,2.11164 -0.21828,0 -0.39687,-0.17184 -0.39687,-0.38187 0,-0.57891 -1.06839,-1.20563 -2.05528,-1.20563 -1.32796,0 -2.17806,0.98104 -2.17806,2.51355 0,1.61591 0.83924,2.51354 2.35005,2.51354 0.86947,0 1.16642,-0.14725 1.71784,-0.85183 0.7489,-0.95691 1.20789,-0.83049 0.737,0.203 -0.30798,0.67594 -1.72373,1.45176 -2.61358,1.43222 -0.25933,-0.006 -0.85076,-0.1753 -1.31429,-0.3769 z M -8.3659218,158.81875 V 154.85 h -1.4552084 c -1.1171298,0 -1.4552088,-0.0922 -1.4552088,-0.39687 0,-0.33175 0.546316,-0.39688 3.3293408,-0.39688 2.5452122,0 3.3036706,0.0779 3.220349,0.33073 -0.06354,0.19281 -0.67959,0.36408 -1.477257,0.4107 l -1.3682656,0.08 v 3.95492 c 0,3.3391 -0.061798,3.95492 -0.396875,3.95492 -0.3351389,0 -0.396875,-0.61736 -0.396875,-3.96875 z M 11.001579,162.47 c -0.198839,-0.19883 -0.3175,-1.18768 -0.3175,-2.64583 v -2.32833 H 9.758037 c -0.6467593,0 -0.9260417,-0.1197 -0.9260417,-0.39688 0,-0.27592 0.2775921,-0.39687 0.9108287,-0.39687 0.879513,0 0.913626,-0.038 0.992188,-1.10392 0.116343,-1.57861 0.742817,-1.67033 0.742817,-0.10876 v 1.21268 h 1.058333 c 0.764352,0 1.058333,0.11024 1.058333,0.39687 0,0.28727 -0.295126,0.39688 -1.068634,0.39688 h -1.068634 l 0.07645,2.3151 0.07645,2.31511 0.859896,0.0829 c 0.472943,0.0456 0.859896,0.19443 0.859896,0.33073 0,0.36189 -1.95528,0.30338 -2.328333,-0.0697 z m 4.445,-2.7252 c 0,-1.85209 0.103532,-3.04271 0.264583,-3.04271 0.161051,0 0.264583,1.19062 0.264583,3.04271 0,1.85208 -0.103532,3.0427 -0.264583,3.0427 -0.161051,0 -0.264583,-1.19062 -0.264583,-3.0427 z m 2.910417,0 c 0,-2.52825 0.0671,-3.04271 0.396875,-3.04271 0.231091,0 0.396875,0.24031 0.396875,0.57528 v 0.57529 l 0.612365,-0.57529 c 0.608644,-0.57179 2.016863,-0.76811 2.947656,-0.41093 0.801202,0.30745 1.202479,1.57262 1.202479,3.79126 0,1.71677 -0.07697,2.1298 -0.396875,2.1298 -0.321651,0 -0.396875,-0.42627 -0.396875,-2.24895 0,-1.89619 -0.08301,-2.33197 -0.529167,-2.77813 -0.735497,-0.7355 -1.988394,-0.68149 -2.790152,0.12027 -0.581893,0.58189 -0.649431,0.8708 -0.649431,2.77812 0,1.71578 -0.07698,2.12869 -0.396875,2.12869 -0.329771,0 -0.396875,-0.51446 -0.396875,-3.0427 z m 26.251231,0.0877 c 0.05249,-2.0735 0.17347,-2.98774 0.40554,-3.06476 0.199331,-0.0661 0.330729,0.12757 0.330729,0.48759 v 0.59733 l 0.612365,-0.57529 c 0.874873,-0.8219 2.786507,-0.80207 3.574848,0.0371 0.504464,0.53698 0.575287,0.91157 0.575287,3.04271 0,1.44384 -0.107397,2.43034 -0.264583,2.43034 -0.154465,0 -0.264583,-0.88595 -0.264583,-2.12869 0,-1.90732 -0.06754,-2.19623 -0.649432,-2.77812 -0.821704,-0.82171 -1.761139,-0.82642 -2.706128,-0.0136 -0.675926,0.5814 -0.747566,0.81932 -0.836519,2.77812 -0.07419,1.63359 -0.186928,2.14226 -0.474811,2.14226 -0.308908,0 -0.363927,-0.53708 -0.302713,-2.955 z m 18.99252,-1.41062 v -4.36563 h 2.645833 c 2.175463,0 2.645833,0.0706 2.645833,0.39688 0,0.32165 -0.426273,0.39687 -2.248958,0.39687 h -2.248958 v 1.5875 1.5875 h 2.116666 c 1.705093,0 2.116667,0.0772 2.116667,0.39688 0,0.3197 -0.411574,0.39687 -2.116667,0.39687 h -2.116666 v 1.5772 1.5772 l 2.293752,0.0764 c 1.542685,0.0514 2.329622,0.18474 2.403299,0.40717 0.08302,0.25066 -0.568453,0.33073 -2.690628,0.33073 h -2.800173 z m 8.037652,2.93436 c 0.67252,-0.78719 1.222765,-1.51481 1.222765,-1.61692 0,-0.10212 -0.47625,-0.7545 -1.058334,-1.44973 -1.144846,-1.3674 -1.243375,-1.5875 -0.710632,-1.5875 0.191235,0 0.749145,0.53578 1.239799,1.19062 0.490654,0.65485 1.018798,1.18695 1.173653,1.18245 0.154855,-0.005 0.682414,-0.54029 1.172353,-1.19063 0.489938,-0.65034 1.055485,-1.18244 1.256771,-1.18244 0.546941,0 0.464793,0.18474 -0.69236,1.55706 -0.582084,0.69031 -1.058334,1.34753 -1.058334,1.46047 0,0.11295 0.550244,0.84943 1.222765,1.63662 0.992105,1.16127 1.127137,1.43126 0.715827,1.43126 -0.297422,0 -0.923903,-0.54676 -1.515808,-1.32291 -0.554878,-0.72761 -1.042787,-1.32292 -1.084242,-1.32292 -0.04145,0 -0.529364,0.59531 -1.084242,1.32292 -0.591905,0.77615 -1.218387,1.32291 -1.515808,1.32291 -0.41131,0 -0.276278,-0.26999 0.715827,-1.43126 z m 22.389432,-1.61144 c 0,-2.52825 0.0671,-3.04271 0.396875,-3.04271 0.218281,0 0.396875,0.1871 0.396875,0.41577 0,0.37798 0.0378,0.37798 0.415774,0 0.503826,-0.50383 2.061366,-0.57351 1.900974,-0.085 -0.05973,0.1819 -0.456604,0.37103 -0.881944,0.42028 -1.295849,0.15007 -1.434804,0.43921 -1.434804,2.98555 0,1.91148 -0.0739,2.34885 -0.396875,2.34885 -0.329771,0 -0.396875,-0.51446 -0.396875,-3.0427 z m 4.7625,0 c 0,-1.85209 0.103532,-3.04271 0.264583,-3.04271 0.161051,0 0.264584,1.19062 0.264584,3.04271 0,1.85208 -0.103533,3.0427 -0.264584,3.0427 -0.161051,0 -0.264583,-1.19062 -0.264583,-3.0427 z m 2.910419,0 c 0,-1.85209 0.10353,-3.04271 0.26458,-3.04271 0.14552,0 0.26458,0.18534 0.26458,0.41187 0,0.37279 0.0558,0.37279 0.58804,0 0.84334,-0.59069 2.39851,-0.52949 2.98397,0.11744 l 0.47902,0.5293 0.37074,-0.5293 c 0.52832,-0.75429 2.4512,-0.73771 3.144,0.0271 0.70278,0.77583 0.93058,5.52899 0.26498,5.52899 -0.3537,0 -0.42241,-0.36584 -0.42241,-2.24895 0,-1.89619 -0.083,-2.33197 -0.52917,-2.77813 -0.63569,-0.63569 -1.26635,-0.67164 -2.05779,-0.11729 -0.53313,0.37342 -0.58804,0.63285 -0.58804,2.77813 0,1.92694 -0.0737,2.36624 -0.39688,2.36624 -0.32165,0 -0.39687,-0.42627 -0.39687,-2.24895 0,-1.89619 -0.083,-2.33197 -0.52917,-2.77813 -0.66473,-0.66473 -1.35223,-0.6722 -2.15348,-0.0234 -0.55208,0.44706 -0.63543,0.76958 -0.71792,2.77813 -0.13751,3.34837 -0.56818,2.76446 -0.56818,-0.77035 z m 18.25625,0 c 0,-2.52825 0.0671,-3.04271 0.39687,-3.04271 0.23109,0 0.39688,0.24031 0.39688,0.57528 v 0.57529 l 0.61236,-0.57529 c 0.88334,-0.82984 2.63379,-0.79277 3.50071,0.0742 0.59379,0.59379 0.64943,0.85448 0.64943,3.04271 0,1.95097 -0.0734,2.39327 -0.39688,2.39327 -0.32319,0 -0.39687,-0.4393 -0.39687,-2.36624 0,-2.14528 -0.0549,-2.40471 -0.58804,-2.77813 -0.69548,-0.48713 -1.26932,-0.51868 -2.14846,-0.11812 -0.91149,0.4153 -1.23225,1.3063 -1.23225,3.42286 0,1.45884 -0.0821,1.83963 -0.39688,1.83963 -0.32977,0 -0.39687,-0.51446 -0.39687,-3.0427 z m 9.00514,2.53093 c -0.15064,-0.28147 -0.27389,-1.4721 -0.27389,-2.64583 v -2.13406 h -0.92604 c -0.64676,0 -0.92605,-0.1197 -0.92605,-0.39688 0,-0.27592 0.2776,-0.39687 0.91083,-0.39687 0.87952,0 0.91363,-0.038 0.99219,-1.10392 0.11634,-1.57861 0.74282,-1.67033 0.74282,-0.10876 v 1.21268 h 1.05833 c 0.76435,0 1.05834,0.11024 1.05834,0.39687 0,0.28727 -0.29513,0.39688 -1.06864,0.39688 h -1.06863 l 0.0764,2.3151 0.0765,2.31511 0.8599,0.0829 c 1.22008,0.11764 1.06941,0.57855 -0.18913,0.57855 -0.76635,0 -1.12283,-0.1379 -1.32292,-0.51177 z m 12.58671,0.0933 c -0.0883,-0.23018 -0.1606,-1.42081 -0.1606,-2.64583 v -2.22732 h -0.92604 c -0.64676,0 -0.92604,-0.1197 -0.92604,-0.39688 0,-0.27592 0.27759,-0.39687 0.91082,-0.39687 0.88242,0 0.91337,-0.0351 0.99219,-1.12448 0.10181,-1.40718 0.58275,-1.36444 0.69189,0.0615 0.0805,1.05145 0.0929,1.06301 1.14652,1.06301 1.37198,0 1.25918,0.6268 -0.13392,0.74417 l -0.98179,0.0827 0.0762,2.29853 0.0762,2.29854 0.8599,0.0829 c 1.27866,0.12329 1.04068,0.57855 -0.30243,0.57855 -0.8158,0 -1.21019,-0.12476 -1.32291,-0.41851 z m 4.6019,-2.64624 c 0,-2.33395 0.0789,-3.03859 0.33073,-2.95501 0.23207,0.077 0.35304,0.99126 0.40554,3.06476 0.0636,2.51088 0.0139,2.955 -0.33073,2.955 -0.34099,0 -0.40554,-0.48781 -0.40554,-3.06475 z m 10.58333,0.0221 c 0,-2.52825 0.0671,-3.04271 0.39688,-3.04271 0.23109,0 0.39687,0.24031 0.39687,0.57528 v 0.57529 l 0.61237,-0.57529 c 0.88333,-0.82984 2.63378,-0.79277 3.5007,0.0742 0.59379,0.59379 0.64943,0.85448 0.64943,3.04271 0,1.95097 -0.0734,2.39327 -0.39687,2.39327 -0.3232,0 -0.39688,-0.4393 -0.39688,-2.36624 0,-2.14528 -0.0549,-2.40471 -0.58804,-2.77813 -0.69548,-0.48713 -1.26931,-0.51868 -2.14846,-0.11812 -0.91148,0.4153 -1.23225,1.3063 -1.23225,3.42286 0,1.45884 -0.0821,1.83963 -0.39687,1.83963 -0.32977,0 -0.39688,-0.51446 -0.39688,-3.0427 z m 11.1125,-1.32292 v -4.36563 h 2.51354 c 2.05787,0 2.51355,0.0719 2.51355,0.39688 0,0.3197 -0.41158,0.39687 -2.11667,0.39687 h -2.11667 v 1.5875 1.5875 h 1.98438 c 1.5875,0 1.98437,0.0794 1.98437,0.39688 0,0.3175 -0.39687,0.39687 -1.98437,0.39687 h -1.98438 v 1.98438 c 0,1.5875 -0.0794,1.98437 -0.39687,1.98437 -0.33674,0 -0.39688,-0.66145 -0.39688,-4.36562 z m 21.43125,1.32292 c 0,-1.85209 0.10354,-3.04271 0.26459,-3.04271 0.16105,0 0.26458,1.19062 0.26458,3.04271 0,1.85208 -0.10353,3.0427 -0.26458,3.0427 -0.16105,0 -0.26459,-1.19062 -0.26459,-3.0427 z m 2.91042,-1.32292 c 0,-3.70417 0.0601,-4.36563 0.39687,-4.36563 0.33675,0 0.39688,0.66146 0.39688,4.36563 0,3.70417 -0.0601,4.36562 -0.39688,4.36562 -0.33674,0 -0.39687,-0.66145 -0.39687,-4.36562 z m 2.91042,1.32292 c 0,-2.52825 0.0671,-3.04271 0.39687,-3.04271 0.32977,0 0.39688,0.51446 0.39688,3.04271 0,2.52824 -0.0671,3.0427 -0.39688,3.0427 -0.32977,0 -0.39687,-0.51446 -0.39687,-3.0427 z m 4.39393,2.62419 c -0.0883,-0.23018 -0.1606,-1.42081 -0.1606,-2.64583 v -2.22732 h -0.92604 c -0.64676,0 -0.92604,-0.1197 -0.92604,-0.39688 0,-0.27592 0.27759,-0.39687 0.91083,-0.39687 0.88241,0 0.91336,-0.0351 0.99218,-1.12448 0.10182,-1.40718 0.58275,-1.36444 0.69189,0.0615 0.0805,1.05145 0.0929,1.06301 1.14652,1.06301 1.37198,0 1.25918,0.6268 -0.13391,0.74417 l -0.9818,0.0827 0.0762,2.29853 0.0762,2.29854 0.8599,0.0829 c 1.27866,0.12329 1.04068,0.57855 -0.30242,0.57855 -0.81581,0 -1.2102,-0.12476 -1.32292,-0.41851 z m -184.28147,-7.0871 c -0.228733,-0.2756 -0.20227,-0.44308 0.111108,-0.70316 0.5057,-0.41969 1.070008,0.0228 0.829235,0.65027 -0.195977,0.51071 -0.544135,0.5303 -0.940343,0.0529 z m 83.403473,-0.0529 c -0.08752,-0.22806 -0.02929,-0.54448 0.129382,-0.70316 0.382018,-0.38202 1.130108,0.21453 0.928353,0.74029 -0.193549,0.50438 -0.858901,0.48103 -1.057735,-0.0371 z m 47.360417,0 c -0.0875,-0.22806 -0.0293,-0.54448 0.12938,-0.70316 0.38202,-0.38202 1.13011,0.21453 0.92836,0.74029 -0.19355,0.50438 -0.8589,0.48103 -1.05774,-0.0371 z m 43.12709,0 c -0.22052,-0.57466 0.33931,-1.11509 0.74002,-0.71437 0.33868,0.33867 0.12887,1.12903 -0.29971,1.12903 -0.15466,0 -0.3528,-0.18659 -0.44031,-0.41466 z m 5.82833,0.0196 c -0.0916,-0.23882 -0.0397,-0.56108 0.11531,-0.71615 0.40312,-0.40312 1.16692,-0.0347 1.06162,0.5121 -0.11729,0.60904 -0.96511,0.75603 -1.17693,0.20405 z m -93.22969,-9.66513 c -3.198703,-0.38457 -6.00586,-2.51465 -7.160638,-5.43353 -0.518152,-1.30971 -0.622701,-2.05725 -0.626881,-4.48228 -0.0045,-2.58755 0.07162,-3.07537 0.685866,-4.39738 1.851424,-3.98474 5.911073,-6.07909 10.238153,-5.28179 4.53436,0.83549 7.18225,4.03144 7.18225,8.66886 v 1.67177 h -7.9375 -7.937503 v 0.65221 c 0,0.99326 0.771647,3.08267 1.491375,4.03825 1.450468,1.92576 4.686198,3.02562 7.270858,2.47144 2.06272,-0.44227 2.86712,-1.06803 4.55752,-3.54535 0.31775,-0.46568 0.36863,-0.46634 1.31063,-0.0171 0.53902,0.25704 0.98003,0.55126 0.98003,0.65382 0,0.10256 -0.52678,0.90206 -1.17062,1.77666 -1.9269,2.6175 -4.91393,3.7017 -8.88354,3.22446 z m 7.93602,-11.96633 c -0.006,-2.29081 -1.85964,-4.63623 -4.21373,-5.33072 -1.80058,-0.5312 -2.72945,-0.53314 -4.49315,-0.009 -1.892259,0.56194 -3.546341,2.11444 -4.246453,3.98565 -0.296417,0.79225 -0.53894,1.55504 -0.53894,1.69511 0,0.15649 2.600652,0.25465 6.746873,0.25465 h 6.74688 z m 12.43689,11.96962 c -3.14194,-0.52569 -5.00597,-2.21848 -5.4414,-4.9415 -0.23499,-1.46956 0.29334,-3.12237 1.38398,-4.32958 1.476,-1.63375 3.37058,-2.10323 8.48767,-2.10323 h 4.10992 l -0.14382,-1.58601 c -0.25241,-2.78367 -1.66414,-4.3144 -4.28048,-4.64129 -2.84344,-0.35526 -5.35295,0.98066 -6.35496,3.38303 -0.22761,0.54571 -0.51354,0.99219 -0.63539,0.99219 -0.51744,0 -1.88802,-0.60117 -1.88802,-0.82813 0,-0.65521 0.86128,-2.16737 1.83798,-3.22696 1.53374,-1.66391 3.30749,-2.37559 5.96723,-2.39422 2.71597,-0.019 4.0042,0.37592 5.48882,1.68273 1.96335,1.72821 2.12865,2.40586 2.25999,9.2645 0.0776,4.05533 0.21024,6.01509 0.41592,6.14751 0.16607,0.10691 0.80796,0.19621 1.42642,0.19844 1.10796,0.004 1.12448,0.0177 1.12448,0.93009 v 0.92604 h -1.93826 c -1.67995,0 -2.01437,-0.081 -2.50947,-0.60803 -0.31417,-0.33442 -0.64744,-0.98915 -0.7406,-1.45495 l -0.16938,-0.84691 -1.02829,1.1682 c -1.71111,1.94392 -4.38787,2.76742 -7.37234,2.26808 z m 4.94931,-2.67036 c 0.61207,-0.2958 1.47017,-0.94476 1.90688,-1.44215 0.82024,-0.9342 1.61048,-3.09293 1.61048,-4.3994 v -0.74573 h -4.06156 c -4.36888,0 -5.43421,0.20596 -6.58462,1.27297 -1.29379,1.2 -1.21032,3.49209 0.17456,4.79311 1.47172,1.38261 4.67501,1.62269 6.95426,0.5212 z M -7.0430051,132.76354 v -12.29687 l -4.5640629,-0.0724 -4.564062,-0.0724 -0.08136,-1.12448 -0.08136,-1.12448 H -5.9998847 4.3340785 v 1.19063 1.19062 H -0.16383828 -4.6617551 v 12.30313 12.30312 h -1.190625 -1.190625 z m 15.8750004,-1.19687 v -13.49375 h 8.0697917 8.069792 v 1.19063 1.19062 h -6.879167 -6.879167 v 5.02708 5.02709 h 6.350001 6.35 v 1.05354 1.05355 l -6.283855,0.0709 -6.283854,0.0709 -0.07186,5.09322 -0.07186,5.09323 h 7.017172 7.017171 v 1.05834 1.05833 H 17.034079 8.8319953 Z m 21.9604167,0 v -13.49375 h 8.085005 8.085005 l -0.08136,1.12448 -0.08136,1.12448 -6.813021,0.0706 -6.813021,0.0706 v 5.02262 5.02262 h 6.35 6.35 v 1.05354 1.05355 l -6.283854,0.0709 -6.283855,0.0709 -0.07102,6.15156 -0.07102,6.15156 h -1.185749 -1.185749 z m 38.364585,-0.0145 v -13.50824 l 1.256771,0.0806 1.256771,0.0806 0.07103,6.15602 0.07103,6.15602 6.808134,-0.0706 6.808133,-0.0706 0.07102,-6.15157 0.07102,-6.15156 h 1.185748 1.185749 v 13.49375 13.49375 h -1.185749 -1.185748 l -0.07102,-6.15156 -0.07102,-6.15156 -6.813021,-0.0706 -6.813021,-0.0706 v 6.22218 6.22217 h -1.322917 -1.322916 z m 70.908333,0.0145 v -13.49375 h 1.19063 1.19062 v 13.49375 13.49375 h -1.19062 -1.19063 z m 13.83924,12.85554 -0.74236,-0.63821 -0.0776,-7.69617 -0.0776,-7.69616 h -3.03125 -3.03126 v -1.05833 -1.05834 h 3.04271 3.04271 v -3.43958 -3.43958 h 1.19062 1.19063 v 3.43958 3.43958 h 3.30729 3.30729 v 1.05834 1.05833 h -3.30729 -3.30729 v 7.13444 c 0,8.32934 -0.27713,7.68223 3.28989,7.68223 h 2.26636 v 0.92604 0.92604 h -3.16025 c -2.95867,0 -3.2076,-0.0407 -3.9026,-0.63821 z m 13.14826,-12.85554 v -13.49375 h 1.19063 1.19062 v 5.82083 c 0,3.20146 0.10287,5.82084 0.2286,5.82084 0.12573,0 0.5474,-0.46002 0.93703,-1.02227 0.38964,-0.56224 1.32856,-1.36543 2.08651,-1.78487 1.25085,-0.6922 1.61012,-0.76199 3.89161,-0.75599 2.2058,0.006 2.68034,0.0936 3.87584,0.71743 0.74926,0.39095 1.73494,1.1614 2.19041,1.71211 1.42239,1.71984 1.60667,2.872 1.60667,10.04515 v 6.43427 h -1.19063 -1.19062 l -0.006,-6.54844 c -0.005,-5.81347 -0.0611,-6.67015 -0.49834,-7.63294 -0.56576,-1.24577 -1.55341,-2.03644 -3.06773,-2.45587 -3.40609,-0.94341 -6.64773,0.42003 -8.03561,3.37978 -0.67513,1.43979 -0.69823,1.65702 -0.78379,7.37049 l -0.0881,5.88698 h -1.16862 -1.16862 z M 51.16533,135.276 v -1.0635 h 5.836805 5.836805 l -0.08212,0.99219 -0.08212,0.99219 -5.754688,0.0713 -5.754687,0.0713 z"
         id="path1" /></g></g></svg>
