<?xml version="1.0" encoding="UTF-8" standalone="no"?>
<svg
   id="Layer_1"
   data-name="Layer 1"
   viewBox="0 0 243.81 97.93"
   version="1.1"
   sodipodi:docname="tefhealth_logo.svg"
   width="243.81"
   height="97.93"
   inkscape:version="1.3.1 (9b9bdc1480, 2023-11-25, custom)"
   xmlns:inkscape="http://www.inkscape.org/namespaces/inkscape"
   xmlns:sodipodi="http://sodipodi.sourceforge.net/DTD/sodipodi-0.dtd"
   xmlns="http://www.w3.org/2000/svg"
   xmlns:svg="http://www.w3.org/2000/svg">
  <sodipodi:namedview
     id="namedview65"
     pagecolor="#ffffff"
     bordercolor="#000000"
     borderopacity="0.25"
     inkscape:showpageshadow="2"
     inkscape:pageopacity="0.0"
     inkscape:pagecheckerboard="0"
     inkscape:deskcolor="#d1d1d1"
     inkscape:zoom="4.6675691"
     inkscape:cx="121.905"
     inkscape:cy="56.024881"
     inkscape:window-width="1850"
     inkscape:window-height="1131"
     inkscape:window-x="0"
     inkscape:window-y="0"
     inkscape:window-maximized="1"
     inkscape:current-layer="Layer_1" />
  <defs
     id="defs1">
    <style
       id="style1">.cls-1{fill:#231f20;}</style>
  </defs>
  <path
     class="cls-1"
     d="M 20.67,45.14 V 21.46 H 12 v -2.14 h 19.67 v 2.14 H 23 v 23.68 z"
     id="path1" />
  <path
     class="cls-1"
     d="M 35.87,45.14 V 19.32 h 15.6 v 2.14 H 38.23 v 9.66 h 12.21 v 2.14 H 38.23 V 43 h 13.39 v 2.14 z"
     id="path2" />
  <path
     class="cls-1"
     d="M 56.78,45.14 V 19.32 h 15.35 v 2.14 h -13 v 9.66 h 11.93 v 2.14 H 59.14 v 11.88 z"
     id="path3" />
  <path
     class="cls-1"
     d="m 76.26,36.65 v -2.06 h 10.92 v 2.06 z"
     id="path4" />
  <path
     class="cls-1"
     d="M 93.45,45.14 V 19.32 h 2.36 v 11.8 h 13.13 v -11.8 h 2.36 v 25.82 h -2.36 V 33.26 H 95.81 v 11.88 z"
     id="path5" />
  <path
     class="cls-1"
     d="M 126,45.65 A 9.56,9.56 0 0 1 121.18,44.49 8.2,8.2 0 0 1 118,41.23 10,10 0 0 1 116.86,36.39 V 36 a 10,10 0 0 1 1.14,-4.9 8.28,8.28 0 0 1 3.16,-3.24 9,9 0 0 1 4.59,-1.17 9.05,9.05 0 0 1 4.44,1.06 7.51,7.51 0 0 1 3.05,3 9.44,9.44 0 0 1 1.1,4.7 v 1.18 H 119 a 7.17,7.17 0 0 0 2,5.19 6.87,6.87 0 0 0 5,1.84 6,6 0 0 0 3.89,-1.14 7.56,7.56 0 0 0 2.11,-2.81 l 2,0.89 a 10.63,10.63 0 0 1 -1.55,2.4 7.73,7.73 0 0 1 -2.52,1.92 9.09,9.09 0 0 1 -3.93,0.73 z m -6.9,-10.91 h 13 a 6.15,6.15 0 0 0 -1.88,-4.49 6.4,6.4 0 0 0 -4.46,-1.56 6.5,6.5 0 0 0 -4.46,1.56 7.06,7.06 0 0 0 -2.22,4.49 z"
     id="path6" />
  <path
     class="cls-1"
     d="m 145.27,45.65 a 8.67,8.67 0 0 1 -3.41,-0.64 5.55,5.55 0 0 1 -2.42,-1.9 5.13,5.13 0 0 1 -0.88,-3 4.81,4.81 0 0 1 0.88,-3 5.29,5.29 0 0 1 2.4,-1.77 9,9 0 0 1 3.35,-0.59 h 6.57 V 33.3 a 4.55,4.55 0 0 0 -1.25,-3.4 5.07,5.07 0 0 0 -3.66,-1.21 5.6,5.6 0 0 0 -3.74,1.16 5.7,5.7 0 0 0 -1.86,3.15 l -2.14,-0.62 a 8.39,8.39 0 0 1 1.4,-2.86 6.71,6.71 0 0 1 2.55,-2 8.77,8.77 0 0 1 3.79,-0.76 7.32,7.32 0 0 1 5.26,1.77 6.51,6.51 0 0 1 1.89,4.88 v 8.7 c 0,0.74 0.35,1.11 1,1.11 h 1.73 v 1.92 h -2.36 a 2.4,2.4 0 0 1 -1.81,-0.69 2.55,2.55 0 0 1 -0.66,-1.86 v -0.26 h -0.37 a 8.38,8.38 0 0 1 -1.24,1.59 5.47,5.47 0 0 1 -2,1.25 8.4,8.4 0 0 1 -3.02,0.48 z m 0.15,-2 A 6.3,6.3 0 0 0 150,42 6.48,6.48 0 0 0 151.75,37.15 V 36.7 h -6.53 a 5.75,5.75 0 0 0 -3.19,0.83 2.85,2.85 0 0 0 -1.27,2.57 3.11,3.11 0 0 0 1.31,2.67 5.55,5.55 0 0 0 3.35,0.89 z"
     id="path7" />
  <path
     class="cls-1"
     d="M 160.94,45.14 V 19.32 h 2.22 v 25.82 z"
     id="path8" />
  <path
     class="cls-1"
     d="M 176.14,45.14 A 2.9,2.9 0 0 1 174,44.4 2.83,2.83 0 0 1 173.28,42.33 V 29.2 h -5.75 v -2 h 5.75 v -6.7 h 2.22 v 6.71 h 6.27 v 2 H 175.5 V 42 a 1,1 0 0 0 1.1,1.1 h 4.21 v 2 z"
     id="path9" />
  <path
     class="cls-1"
     d="M 186.69,45.14 V 19.32 h 2.21 v 11 h 0.44 a 6.62,6.62 0 0 1 1.24,-1.68 5.9,5.9 0 0 1 2.07,-1.29 8.61,8.61 0 0 1 3.19,-0.5 7.87,7.87 0 0 1 3.57,0.81 6.2,6.2 0 0 1 2.6,2.43 7.78,7.78 0 0 1 1,4.1 V 45.14 H 200.8 V 34.37 c 0,-2 -0.49,-3.38 -1.48,-4.23 a 5.81,5.81 0 0 0 -3.94,-1.27 6.29,6.29 0 0 0 -4.61,1.81 c -1.23,1.2 -1.85,3 -1.85,5.49 v 9 z"
     id="path10" />
  <path
     class="cls-1"
     d="m 19.52,62 v -7.7 h -2.81 v -0.7 h 6.38 v 0.7 H 20.28 V 62 Z"
     id="path11" />
  <path
     class="cls-1"
     d="m 25.94,62.21 a 3.15,3.15 0 0 1 -1.57,-0.38 2.65,2.65 0 0 1 -1,-1.06 A 3.22,3.22 0 0 1 23,59.2 v -0.15 a 3.17,3.17 0 0 1 0.37,-1.57 2.63,2.63 0 0 1 1,-1.06 2.92,2.92 0 0 1 1.48,-0.42 3.07,3.07 0 0 1 1.45,0.34 2.48,2.48 0 0 1 1,1 3.09,3.09 0 0 1 0.36,1.53 v 0.38 h -5 a 2.32,2.32 0 0 0 0.69,1.75 2.25,2.25 0 0 0 1.59,0.59 1.91,1.91 0 0 0 1.26,-0.37 2.48,2.48 0 0 0 0.69,-0.91 l 0.65,0.29 a 3.48,3.48 0 0 1 -0.5,0.77 2.37,2.37 0 0 1 -0.82,0.62 2.81,2.81 0 0 1 -1.28,0.22 z m -2.25,-3.55 h 4.23 A 2,2 0 0 0 27.3,57.2 2.07,2.07 0 0 0 25.85,56.69 2.1,2.1 0 0 0 24.4,57.2 2.33,2.33 0 0 0 23.69,58.66 Z"
     id="path12" />
  <path
     class="cls-1"
     d="M 32.74,62.21 A 3.23,3.23 0 0 1 30.93,61.71 2.29,2.29 0 0 1 30,60 l 0.7,-0.13 a 2.23,2.23 0 0 0 0.39,1 1.67,1.67 0 0 0 0.72,0.52 2.76,2.76 0 0 0 0.91,0.16 2,2 0 0 0 1.16,-0.3 0.92,0.92 0 0 0 0.44,-0.81 0.74,0.74 0 0 0 -0.42,-0.73 3.93,3.93 0 0 0 -1.1,-0.32 l -0.55,-0.1 a 4,4 0 0 1 -1,-0.29 1.86,1.86 0 0 1 -0.71,-0.54 1.33,1.33 0 0 1 -0.25,-0.84 1.39,1.39 0 0 1 0.59,-1.19 2.69,2.69 0 0 1 1.61,-0.43 2.62,2.62 0 0 1 1.6,0.45 2,2 0 0 1 0.76,1.3 l -0.67,0.15 a 1.39,1.39 0 0 0 -0.57,-1 2,2 0 0 0 -1.12,-0.28 2,2 0 0 0 -1.06,0.25 0.82,0.82 0 0 0 -0.39,0.74 0.75,0.75 0 0 0 0.36,0.7 2.67,2.67 0 0 0 1,0.33 l 0.55,0.1 a 5.31,5.31 0 0 1 1.08,0.28 1.87,1.87 0 0 1 0.76,0.52 1.34,1.34 0 0 1 0.29,0.89 1.48,1.48 0 0 1 -0.63,1.28 2.82,2.82 0 0 1 -1.71,0.5 z"
     id="path13" />
  <path
     class="cls-1"
     d="m 38.73,62 a 0.93,0.93 0 0 1 -0.7,-0.24 0.9,0.9 0 0 1 -0.24,-0.67 v -4.23 h -1.87 v -0.65 h 1.87 V 54 h 0.72 v 2.18 h 2 v 0.65 h -2 V 61 a 0.32,0.32 0 0 0 0.36,0.36 h 1.37 V 62 Z"
     id="path14" />
  <path
     class="cls-1"
     d="m 42.52,55.2 a 0.59,0.59 0 0 1 -0.44,-0.18 0.6,0.6 0 0 1 -0.18,-0.44 0.58,0.58 0 0 1 0.18,-0.45 0.59,0.59 0 0 1 0.44,-0.18 0.61,0.61 0 0 1 0.45,0.18 0.57,0.57 0 0 1 0.17,0.45 A 0.6,0.6 0 0 1 43,55 0.61,0.61 0 0 1 42.52,55.2 Z M 42.16,62 v -5.79 h 0.72 V 62 Z"
     id="path15" />
  <path
     class="cls-1"
     d="m 45,62 v -5.79 h 0.7 v 1.08 h 0.14 a 2.21,2.21 0 0 1 0.71,-0.83 2.32,2.32 0 0 1 1.45,-0.37 2.63,2.63 0 0 1 1.16,0.26 2.11,2.11 0 0 1 0.85,0.8 2.61,2.61 0 0 1 0.32,1.34 V 62 h -0.72 v -3.5 a 1.75,1.75 0 0 0 -0.48,-1.38 1.89,1.89 0 0 0 -1.29,-0.42 2.07,2.07 0 0 0 -1.5,0.59 2.44,2.44 0 0 0 -0.6,1.8 V 62 Z"
     id="path16" />
  <path
     class="cls-1"
     d="M 52.05,59.15 V 59 a 3.07,3.07 0 0 1 0.38,-1.59 2.67,2.67 0 0 1 1,-1 2.83,2.83 0 0 1 1.43,-0.41 2.56,2.56 0 0 1 1.49,0.38 2.46,2.46 0 0 1 0.79,0.86 h 0.14 V 56.21 H 58 v 7.32 a 0.82,0.82 0 0 1 -0.92,0.91 H 53 v -0.65 h 3.84 c 0.25,0 0.38,-0.12 0.38,-0.36 v -2.5 h -0.15 a 2.27,2.27 0 0 1 -1.16,1 2.94,2.94 0 0 1 -1.09,0.17 2.89,2.89 0 0 1 -1.43,-0.36 2.67,2.67 0 0 1 -1,-1 3.18,3.18 0 0 1 -0.34,-1.59 z m 3,2.32 a 2.16,2.16 0 0 0 1.62,-0.63 2.33,2.33 0 0 0 0.62,-1.71 V 59 a 2.32,2.32 0 0 0 -0.62,-1.72 2.4,2.4 0 0 0 -3.22,0 2.29,2.29 0 0 0 -0.66,1.72 v 0.1 a 2.3,2.3 0 0 0 0.63,1.71 2.15,2.15 0 0 0 1.58,0.66 z"
     id="path17" />
  <path
     class="cls-1"
     d="M 65,62.21 A 2.82,2.82 0 0 1 63.84,62 a 1.82,1.82 0 0 1 -0.79,-0.62 1.67,1.67 0 0 1 -0.29,-1 1.57,1.57 0 0 1 0.29,-1 1.71,1.71 0 0 1 0.78,-0.58 2.94,2.94 0 0 1 1.09,-0.19 h 2.14 v -0.47 a 1.46,1.46 0 0 0 -0.41,-1.1 1.62,1.62 0 0 0 -1.19,-0.4 1.73,1.73 0 0 0 -1.82,1.39 l -0.7,-0.2 A 2.7,2.7 0 0 1 63.4,57 2.1,2.1 0 0 1 64.23,56.34 2.73,2.73 0 0 1 65.46,56 a 2.35,2.35 0 0 1 1.71,0.58 2.09,2.09 0 0 1 0.61,1.61 v 2.83 c 0,0.24 0.11,0.36 0.34,0.36 h 0.56 V 62 H 67.91 A 0.78,0.78 0 0 1 67.32,61.78 0.85,0.85 0 0 1 67.11,61.17 V 61.09 H 67 a 3.14,3.14 0 0 1 -0.4,0.52 1.89,1.89 0 0 1 -0.65,0.4 2.56,2.56 0 0 1 -0.95,0.2 z m 0,-0.65 A 2,2 0 0 0 66.49,61 2.09,2.09 0 0 0 67.06,59.43 v -0.15 h -2.12 a 1.85,1.85 0 0 0 -1,0.27 0.93,0.93 0 0 0 -0.42,0.84 1,1 0 0 0 0.43,0.87 1.85,1.85 0 0 0 1.05,0.3 z"
     id="path18" />
  <path
     class="cls-1"
     d="m 70.05,62 v -5.79 h 0.69 v 1.08 h 0.15 a 2.18,2.18 0 0 1 0.7,-0.83 2.34,2.34 0 0 1 1.41,-0.37 2.64,2.64 0 0 1 1.17,0.26 2.08,2.08 0 0 1 0.84,0.8 2.51,2.51 0 0 1 0.32,1.34 V 62 h -0.72 v -3.5 a 1.75,1.75 0 0 0 -0.48,-1.38 1.88,1.88 0 0 0 -1.28,-0.42 2.07,2.07 0 0 0 -1.5,0.59 2.44,2.44 0 0 0 -0.6,1.8 V 62 Z"
     id="path19" />
  <path
     class="cls-1"
     d="m 79.91,62.21 a 2.7,2.7 0 0 1 -1.41,-0.37 2.62,2.62 0 0 1 -1,-1 3.26,3.26 0 0 1 -0.38,-1.6 v -0.15 a 3.26,3.26 0 0 1 0.38,-1.6 2.53,2.53 0 0 1 1,-1 2.76,2.76 0 0 1 1.41,-0.49 2.89,2.89 0 0 1 1.09,0.18 2.09,2.09 0 0 1 0.73,0.44 2.3,2.3 0 0 1 0.44,0.57 h 0.14 V 53.64 H 83 V 62 h -0.69 v -1 h -0.15 a 2.52,2.52 0 0 1 -0.78,0.86 2.6,2.6 0 0 1 -1.47,0.35 z m 0.17,-0.65 a 2.15,2.15 0 0 0 1.61,-0.63 2.4,2.4 0 0 0 0.62,-1.76 v -0.09 a 2.36,2.36 0 0 0 -0.62,-1.75 2.35,2.35 0 0 0 -3.22,0 2.4,2.4 0 0 0 -0.62,1.75 v 0.09 a 2.44,2.44 0 0 0 0.62,1.76 2.17,2.17 0 0 0 1.61,0.63 z"
     id="path20" />
  <path
     class="cls-1"
     d="m 88.22,62 v -8.4 h 5.07 v 0.7 H 89 v 3.14 h 4 v 0.7 h -4 v 3.17 h 4.36 V 62 Z"
     id="path21" />
  <path
     class="cls-1"
     d="m 94.59,62 2.43,-3 -2.35,-2.87 h 0.9 l 1.91,2.39 h 0.14 l 1.91,-2.39 h 0.9 l -2.35,2.87 2.44,3 H 99.6 l -2,-2.48 H 97.46 L 95.5,62 Z"
     id="path22" />
  <path
     class="cls-1"
     d="m 102.17,64.44 v -8.23 h 0.7 v 1.07 H 103 a 2.46,2.46 0 0 1 0.79,-0.86 2.54,2.54 0 0 1 1.49,-0.38 2.76,2.76 0 0 1 1.42,0.37 2.66,2.66 0 0 1 1,1 3.21,3.21 0 0 1 0.38,1.6 v 0.15 a 3.26,3.26 0 0 1 -0.37,1.6 2.66,2.66 0 0 1 -1,1 2.75,2.75 0 0 1 -1.43,0.37 3.14,3.14 0 0 1 -1.08,-0.17 2.32,2.32 0 0 1 -0.74,-0.45 A 2.67,2.67 0 0 1 103,61 h -0.15 v 3.42 z m 3,-2.88 a 2.16,2.16 0 0 0 1.62,-0.63 2.44,2.44 0 0 0 0.62,-1.76 v -0.09 a 2.4,2.4 0 0 0 -0.62,-1.75 2.35,2.35 0 0 0 -3.22,0 2.36,2.36 0 0 0 -0.63,1.75 v 0.09 a 2.4,2.4 0 0 0 0.63,1.76 2.15,2.15 0 0 0 1.55,0.63 z"
     id="path23" />
  <path
     class="cls-1"
     d="m 112.61,62.21 a 3.11,3.11 0 0 1 -1.56,-0.38 2.59,2.59 0 0 1 -1,-1.06 3.22,3.22 0 0 1 -0.37,-1.57 v -0.15 a 3.17,3.17 0 0 1 0.37,-1.57 2.67,2.67 0 0 1 1,-1.06 3,3 0 0 1 1.5,-0.38 3.06,3.06 0 0 1 1.44,0.34 2.48,2.48 0 0 1 1,1 3.09,3.09 0 0 1 0.36,1.53 v 0.38 h -5 A 2.31,2.31 0 0 0 111,61 a 2.25,2.25 0 0 0 1.59,0.59 1.92,1.92 0 0 0 1.27,-0.37 2.48,2.48 0 0 0 0.69,-0.91 l 0.65,0.29 a 3.88,3.88 0 0 1 -0.5,0.77 2.47,2.47 0 0 1 -0.82,0.62 2.88,2.88 0 0 1 -1.27,0.22 z m -2.24,-3.55 h 4.22 A 2,2 0 0 0 114,57.2 a 2.32,2.32 0 0 0 -2.9,0 2.28,2.28 0 0 0 -0.73,1.46 z"
     id="path24" />
  <path
     class="cls-1"
     d="m 117.1,62 v -5.79 h 0.7 v 0.73 h 0.14 a 1.13,1.13 0 0 1 0.5,-0.57 1.91,1.91 0 0 1 0.91,-0.18 H 120 v 0.67 h -0.77 a 1.45,1.45 0 0 0 -1,0.37 1.51,1.51 0 0 0 -0.4,1.16 V 62 Z"
     id="path25" />
  <path
     class="cls-1"
     d="m 121.89,55.2 a 0.61,0.61 0 0 1 -0.45,-0.18 0.6,0.6 0 0 1 -0.18,-0.44 0.58,0.58 0 0 1 0.18,-0.45 0.62,0.62 0 0 1 1.07,0.45 0.64,0.64 0 0 1 -0.17,0.44 0.61,0.61 0 0 1 -0.45,0.18 z m -0.36,6.8 v -5.79 h 0.72 V 62 Z"
     id="path26" />
  <path
     class="cls-1"
     d="m 124.36,62 v -5.79 h 0.69 V 57 h 0.15 a 1.91,1.91 0 0 1 0.57,-0.61 2,2 0 0 1 1.13,-0.28 1.91,1.91 0 0 1 1.15,0.32 2,2 0 0 1 0.63,0.78 h 0.14 a 2.07,2.07 0 0 1 0.64,-0.78 2,2 0 0 1 1.21,-0.32 2.09,2.09 0 0 1 1.05,0.25 1.8,1.8 0 0 1 0.69,0.68 2,2 0 0 1 0.25,1 v 4 h -0.72 v -3.92 a 1.31,1.31 0 0 0 -0.38,-1 1.39,1.39 0 0 0 -1.06,-0.38 1.61,1.61 0 0 0 -1.16,0.45 1.75,1.75 0 0 0 -0.47,1.31 V 62 h -0.72 v -3.88 a 1.35,1.35 0 0 0 -0.38,-1 1.39,1.39 0 0 0 -1.06,-0.38 1.61,1.61 0 0 0 -1.16,0.45 1.71,1.71 0 0 0 -0.47,1.31 V 62 Z"
     id="path27" />
  <path
     class="cls-1"
     d="m 137.39,62.21 a 3.17,3.17 0 0 1 -1.57,-0.38 2.57,2.57 0 0 1 -1,-1.06 3.23,3.23 0 0 1 -0.38,-1.57 v -0.15 a 3.17,3.17 0 0 1 0.38,-1.57 2.61,2.61 0 0 1 1,-1.06 3,3 0 0 1 1.5,-0.38 3.06,3.06 0 0 1 1.44,0.34 2.48,2.48 0 0 1 1,1 3.09,3.09 0 0 1 0.36,1.53 v 0.38 h -5 a 2.31,2.31 0 0 0 0.68,1.71 2.25,2.25 0 0 0 1.59,0.59 1.94,1.94 0 0 0 1.27,-0.37 2.48,2.48 0 0 0 0.69,-0.91 l 0.64,0.29 a 3.43,3.43 0 0 1 -0.49,0.77 2.57,2.57 0 0 1 -0.82,0.62 2.88,2.88 0 0 1 -1.29,0.22 z m -2.24,-3.55 h 4.22 a 2,2 0 0 0 -0.61,-1.46 2.09,2.09 0 0 0 -1.45,-0.51 2.13,2.13 0 0 0 -1.46,0.51 2.27,2.27 0 0 0 -0.7,1.46 z"
     id="path28" />
  <path
     class="cls-1"
     d="m 141.88,62 v -5.79 h 0.7 v 1.08 h 0.14 a 2.13,2.13 0 0 1 0.71,-0.83 2.32,2.32 0 0 1 1.43,-0.37 2.63,2.63 0 0 1 1.16,0.26 2.17,2.17 0 0 1 0.85,0.8 2.61,2.61 0 0 1 0.31,1.34 V 62 h -0.72 v -3.5 a 1.75,1.75 0 0 0 -0.48,-1.38 1.86,1.86 0 0 0 -1.28,-0.42 2.07,2.07 0 0 0 -1.5,0.59 2.44,2.44 0 0 0 -0.6,1.8 V 62 Z"
     id="path29" />
  <path
     class="cls-1"
     d="m 151.17,62 a 0.93,0.93 0 0 1 -0.7,-0.24 0.9,0.9 0 0 1 -0.24,-0.67 v -4.23 h -1.87 v -0.65 h 1.87 V 54 H 151 v 2.18 h 2 v 0.65 h -2 V 61 a 0.32,0.32 0 0 0 0.36,0.36 h 1.37 V 62 Z"
     id="path30" />
  <path
     class="cls-1"
     d="m 156.34,62.21 a 2.82,2.82 0 0 1 -1.11,-0.21 1.88,1.88 0 0 1 -0.79,-0.62 1.66,1.66 0 0 1 -0.28,-1 1.57,1.57 0 0 1 0.28,-1 1.76,1.76 0 0 1 0.78,-0.58 3,3 0 0 1 1.1,-0.19 h 2.13 v -0.47 a 1.43,1.43 0 0 0 -0.41,-1.1 1.59,1.59 0 0 0 -1.18,-0.4 1.84,1.84 0 0 0 -1.22,0.38 1.9,1.9 0 0 0 -0.61,1 l -0.69,-0.2 a 2.52,2.52 0 0 1 0.45,-0.93 2.18,2.18 0 0 1 0.83,-0.66 2.77,2.77 0 0 1 1.24,-0.25 2.38,2.38 0 0 1 1.71,0.58 2.12,2.12 0 0 1 0.6,1.61 V 61 c 0,0.24 0.11,0.36 0.34,0.36 h 0.56 V 62 h -0.77 a 0.75,0.75 0 0 1 -0.58,-0.22 0.82,0.82 0 0 1 -0.22,-0.61 v -0.08 h -0.12 a 2.68,2.68 0 0 1 -0.4,0.52 1.94,1.94 0 0 1 -0.64,0.4 2.65,2.65 0 0 1 -1,0.2 z m 0,-0.65 a 2,2 0 0 0 1.49,-0.56 2.09,2.09 0 0 0 0.57,-1.57 v -0.15 h -2.12 a 1.87,1.87 0 0 0 -1,0.27 0.92,0.92 0 0 0 -0.41,0.84 1,1 0 0 0 0.42,0.87 1.87,1.87 0 0 0 1.1,0.3 z"
     id="path31" />
  <path
     class="cls-1"
     d="m 163.19,62 a 0.93,0.93 0 0 1 -0.7,-0.24 0.9,0.9 0 0 1 -0.23,-0.67 v -4.23 h -1.88 v -0.65 h 1.88 V 54 H 163 v 2.18 h 2 v 0.65 h -2 V 61 a 0.32,0.32 0 0 0 0.36,0.36 h 1.37 V 62 Z"
     id="path32" />
  <path
     class="cls-1"
     d="m 167,55.2 a 0.61,0.61 0 0 1 -0.62,-0.62 0.58,0.58 0 0 1 0.18,-0.45 0.6,0.6 0 0 1 0.44,-0.13 0.62,0.62 0 0 1 0.63,0.63 0.6,0.6 0 0 1 -0.18,0.44 0.58,0.58 0 0 1 -0.45,0.13 z m -0.38,6.8 v -5.79 h 0.72 V 62 Z"
     id="path33" />
  <path
     class="cls-1"
     d="m 172.12,62.21 a 3.16,3.16 0 0 1 -1.56,-0.38 2.67,2.67 0 0 1 -1,-1 3.35,3.35 0 0 1 -0.36,-1.58 V 59.1 a 3.28,3.28 0 0 1 0.36,-1.57 2.63,2.63 0 0 1 1,-1.06 3.16,3.16 0 0 1 1.56,-0.38 3.1,3.1 0 0 1 1.55,0.38 2.51,2.51 0 0 1 1,1.06 3.17,3.17 0 0 1 0.37,1.57 v 0.15 a 3.24,3.24 0 0 1 -0.37,1.58 2.54,2.54 0 0 1 -1,1 3.1,3.1 0 0 1 -1.55,0.38 z m 0,-0.65 a 2.12,2.12 0 0 0 1.63,-0.65 2.49,2.49 0 0 0 0.6,-1.74 v -0.09 a 2.49,2.49 0 0 0 -0.6,-1.74 2.12,2.12 0 0 0 -1.63,-0.65 2.15,2.15 0 0 0 -1.63,0.65 2.49,2.49 0 0 0 -0.6,1.74 v 0.09 a 2.49,2.49 0 0 0 0.6,1.74 2.15,2.15 0 0 0 1.63,0.65 z"
     id="path34" />
  <path
     class="cls-1"
     d="m 176.89,62 v -5.79 h 0.7 v 1.08 h 0.15 a 2.1,2.1 0 0 1 0.7,-0.83 2.34,2.34 0 0 1 1.43,-0.37 2.68,2.68 0 0 1 1.17,0.26 2.08,2.08 0 0 1 0.84,0.8 2.61,2.61 0 0 1 0.32,1.34 V 62 h -0.72 v -3.5 a 1.75,1.75 0 0 0 -0.48,-1.38 1.88,1.88 0 0 0 -1.28,-0.42 2.07,2.07 0 0 0 -1.5,0.59 2.4,2.4 0 0 0 -0.6,1.8 V 62 Z"
     id="path35" />
  <path
     class="cls-1"
     d="m 187.31,62 v -8.4 h 5 v 0.7 h -4.22 v 3.14 H 192 v 0.7 h -3.87 V 62 Z"
     id="path36" />
  <path
     class="cls-1"
     d="m 195.54,62.21 a 2.82,2.82 0 0 1 -1.11,-0.21 1.79,1.79 0 0 1 -0.78,-0.62 1.6,1.6 0 0 1 -0.29,-1 1.51,1.51 0 0 1 0.29,-1 1.71,1.71 0 0 1 0.78,-0.58 2.9,2.9 0 0 1 1.09,-0.19 h 2.13 v -0.47 a 1.46,1.46 0 0 0 -0.4,-1.1 1.63,1.63 0 0 0 -1.19,-0.4 1.85,1.85 0 0 0 -1.22,0.38 1.9,1.9 0 0 0 -0.61,1 l -0.69,-0.2 A 2.68,2.68 0 0 1 194,57 a 2.18,2.18 0 0 1 0.83,-0.66 2.8,2.8 0 0 1 1.24,-0.25 2.38,2.38 0 0 1 1.71,0.58 2.12,2.12 0 0 1 0.6,1.61 v 2.83 c 0,0.24 0.12,0.36 0.34,0.36 h 0.56 V 62 h -0.76 a 0.77,0.77 0 0 1 -0.59,-0.22 0.82,0.82 0 0 1 -0.22,-0.61 v -0.08 h -0.12 a 2.68,2.68 0 0 1 -0.4,0.52 1.84,1.84 0 0 1 -0.64,0.4 2.65,2.65 0 0 1 -1.01,0.2 z m 0.05,-0.65 a 2,2 0 0 0 1.49,-0.56 2.09,2.09 0 0 0 0.57,-1.57 v -0.15 h -2.12 a 1.87,1.87 0 0 0 -1,0.27 0.94,0.94 0 0 0 -0.41,0.84 1,1 0 0 0 0.42,0.87 1.87,1.87 0 0 0 1.05,0.3 z"
     id="path37" />
  <path
     class="cls-1"
     d="m 203.13,62.21 a 3,3 0 0 1 -1.52,-0.37 2.53,2.53 0 0 1 -1.05,-1.05 3.16,3.16 0 0 1 -0.39,-1.6 v -0.12 a 3.19,3.19 0 0 1 0.39,-1.62 2.57,2.57 0 0 1 1.05,-1 3,3 0 0 1 1.52,-0.37 3,3 0 0 1 1.42,0.32 2.44,2.44 0 0 1 0.91,0.83 2.61,2.61 0 0 1 0.41,1.07 l -0.7,0.15 a 2.1,2.1 0 0 0 -0.3,-0.86 1.8,1.8 0 0 0 -0.68,-0.63 2.46,2.46 0 0 0 -2.19,0.04 2.13,2.13 0 0 0 -0.8,0.83 2.56,2.56 0 0 0 -0.3,1.27 v 0.09 a 2.56,2.56 0 0 0 0.3,1.27 2.06,2.06 0 0 0 0.8,0.83 2.25,2.25 0 0 0 1.14,0.29 2,2 0 0 0 1.46,-0.5 2.11,2.11 0 0 0 0.62,-1.21 l 0.71,0.14 a 2.79,2.79 0 0 1 -0.45,1.07 2.55,2.55 0 0 1 -0.92,0.83 3,3 0 0 1 -1.43,0.3 z"
     id="path38" />
  <path
     class="cls-1"
     d="m 208.06,55.2 a 0.61,0.61 0 0 1 -0.45,-0.18 0.6,0.6 0 0 1 -0.18,-0.44 0.58,0.58 0 0 1 0.18,-0.45 0.62,0.62 0 0 1 1.07,0.45 0.64,0.64 0 0 1 -0.17,0.44 0.61,0.61 0 0 1 -0.45,0.18 z M 207.7,62 v -5.79 h 0.72 V 62 Z"
     id="path39" />
  <path
     class="cls-1"
     d="m 210.53,62 v -8.4 h 0.72 V 62 Z"
     id="path40" />
  <path
     class="cls-1"
     d="m 213.72,55.2 a 0.61,0.61 0 0 1 -0.62,-0.62 0.58,0.58 0 0 1 0.18,-0.45 0.6,0.6 0 0 1 0.44,-0.18 0.62,0.62 0 0 1 0.63,0.63 0.6,0.6 0 0 1 -0.18,0.44 0.58,0.58 0 0 1 -0.45,0.18 z m -0.36,6.8 v -5.79 h 0.72 V 62 Z"
     id="path41" />
  <path
     class="cls-1"
     d="m 218.31,62 a 1,1 0 0 1 -0.71,-0.24 0.94,0.94 0 0 1 -0.23,-0.67 v -4.23 h -1.87 v -0.65 h 1.87 V 54 h 0.72 v 2.18 h 2 v 0.65 h -2 V 61 a 0.32,0.32 0 0 0 0.36,0.36 h 1.37 V 62 Z"
     id="path42" />
  <path
     class="cls-1"
     d="m 222.47,64.44 v -0.65 h 3.41 a 0.32,0.32 0 0 0 0.36,-0.36 V 61 h -0.15 a 1.89,1.89 0 0 1 -0.4,0.55 1.92,1.92 0 0 1 -0.69,0.45 2.84,2.84 0 0 1 -1,0.16 2.7,2.7 0 0 1 -1.16,-0.26 2.08,2.08 0 0 1 -0.85,-0.79 2.61,2.61 0 0 1 -0.32,-1.34 v -3.56 h 0.72 v 3.52 a 1.72,1.72 0 0 0 0.48,1.36 1.89,1.89 0 0 0 1.29,0.42 2.06,2.06 0 0 0 1.5,-0.58 2.42,2.42 0 0 0 0.6,-1.79 V 56.21 H 227 v 7.32 a 0.9,0.9 0 0 1 -0.24,0.67 0.93,0.93 0 0 1 -0.7,0.24 z"
     id="path43" />
  <path
     class="cls-1"
     d="m 18.65,76.44 v -5.18 h -1.92 v -0.65 h 1.92 V 69 a 0.92,0.92 0 0 1 0.24,-0.67 0.93,0.93 0 0 1 0.7,-0.24 H 21 v 0.65 h -1.3 a 0.32,0.32 0 0 0 -0.36,0.36 v 1.56 h 2 v 0.65 h -2 v 5.18 z"
     id="path44" />
  <path
     class="cls-1"
     d="m 25.1,76.61 a 3.13,3.13 0 0 1 -1.56,-0.38 2.6,2.6 0 0 1 -1,-1 3.35,3.35 0 0 1 -0.37,-1.58 V 73.5 a 3.28,3.28 0 0 1 0.37,-1.57 2.57,2.57 0 0 1 1,-1.06 3.13,3.13 0 0 1 1.56,-0.38 3.1,3.1 0 0 1 1.55,0.38 2.57,2.57 0 0 1 1,1.06 3.17,3.17 0 0 1 0.37,1.57 v 0.15 a 3.24,3.24 0 0 1 -0.37,1.58 2.6,2.6 0 0 1 -1,1 3.1,3.1 0 0 1 -1.55,0.38 z m 0,-0.65 a 2.13,2.13 0 0 0 1.63,-0.65 2.49,2.49 0 0 0 0.6,-1.74 v -0.09 a 2.49,2.49 0 0 0 -0.6,-1.74 2.37,2.37 0 0 0 -3.26,0 2.49,2.49 0 0 0 -0.61,1.74 v 0.09 a 2.49,2.49 0 0 0 0.61,1.74 2.13,2.13 0 0 0 1.63,0.69 z"
     id="path45" />
  <path
     class="cls-1"
     d="m 29.87,76.44 v -5.83 h 0.7 v 0.73 h 0.14 a 1.13,1.13 0 0 1 0.5,-0.57 2,2 0 0 1 0.92,-0.18 h 0.68 v 0.67 H 32 a 1.45,1.45 0 0 0 -1.05,0.37 1.51,1.51 0 0 0 -0.4,1.16 v 3.65 z"
     id="path46" />
  <path
     class="cls-1"
     d="M 37.37,76.44 V 68 h 0.77 v 3.84 h 4.27 V 68 h 0.77 v 8.4 h -0.77 v -3.82 h -4.27 v 3.86 z"
     id="path47" />
  <path
     class="cls-1"
     d="m 48,76.61 a 3.15,3.15 0 0 1 -1.57,-0.38 2.65,2.65 0 0 1 -1,-1.06 A 3.22,3.22 0 0 1 45,73.6 v -0.15 a 3.17,3.17 0 0 1 0.37,-1.57 2.63,2.63 0 0 1 1,-1.06 2.92,2.92 0 0 1 1.49,-0.38 3.07,3.07 0 0 1 1.45,0.34 2.48,2.48 0 0 1 1,1 3.09,3.09 0 0 1 0.36,1.53 v 0.38 h -5 a 2.32,2.32 0 0 0 0.67,1.69 2.25,2.25 0 0 0 1.66,0.62 1.91,1.91 0 0 0 1.26,-0.37 2.48,2.48 0 0 0 0.69,-0.91 l 0.65,0.29 A 3.48,3.48 0 0 1 50.1,75.78 2.37,2.37 0 0 1 49.28,76.4 2.83,2.83 0 0 1 48,76.61 Z m -2.25,-3.55 h 4.23 a 2,2 0 0 0 -0.62,-1.46 2.07,2.07 0 0 0 -1.45,-0.51 2.1,2.1 0 0 0 -1.45,0.51 2.33,2.33 0 0 0 -0.75,1.46 z"
     id="path48" />
  <path
     class="cls-1"
     d="m 54.23,76.61 a 2.82,2.82 0 0 1 -1.11,-0.21 1.79,1.79 0 0 1 -0.78,-0.62 1.6,1.6 0 0 1 -0.29,-1 1.51,1.51 0 0 1 0.29,-1 1.71,1.71 0 0 1 0.78,-0.58 2.9,2.9 0 0 1 1.09,-0.19 h 2.13 v -0.47 a 1.46,1.46 0 0 0 -0.4,-1.1 1.63,1.63 0 0 0 -1.19,-0.4 1.85,1.85 0 0 0 -1.22,0.38 1.9,1.9 0 0 0 -0.61,1 l -0.69,-0.2 a 2.68,2.68 0 0 1 0.45,-0.93 2.18,2.18 0 0 1 0.83,-0.66 2.8,2.8 0 0 1 1.24,-0.25 2.38,2.38 0 0 1 1.71,0.58 2.12,2.12 0 0 1 0.6,1.61 v 2.83 c 0,0.24 0.12,0.36 0.34,0.36 H 58 v 0.62 h -0.8 a 0.77,0.77 0 0 1 -0.59,-0.22 0.82,0.82 0 0 1 -0.22,-0.61 v -0.08 h -0.12 a 2.68,2.68 0 0 1 -0.4,0.52 1.84,1.84 0 0 1 -0.64,0.4 2.65,2.65 0 0 1 -1,0.22 z m 0.05,-0.65 a 2,2 0 0 0 1.49,-0.56 2.09,2.09 0 0 0 0.57,-1.57 v -0.15 h -2.12 a 1.87,1.87 0 0 0 -1,0.27 0.94,0.94 0 0 0 -0.41,0.84 1,1 0 0 0 0.42,0.87 1.87,1.87 0 0 0 1.05,0.34 z"
     id="path49" />
  <path
     class="cls-1"
     d="M 59.33,76.44 V 68 h 0.72 v 8.4 z"
     id="path50" />
  <path
     class="cls-1"
     d="M 64.28,76.44 A 1,1 0 0 1 63.57,76.2 0.94,0.94 0 0 1 63.34,75.53 v -4.27 h -1.87 v -0.65 h 1.87 v -2.18 h 0.72 v 2.18 h 2 v 0.65 h -2 v 4.17 a 0.32,0.32 0 0 0 0.36,0.36 h 1.37 v 0.65 z"
     id="path51" />
  <path
     class="cls-1"
     d="M 67.71,76.44 V 68 h 0.72 v 3.59 h 0.14 a 2.48,2.48 0 0 1 0.4,-0.55 2.07,2.07 0 0 1 0.68,-0.42 3,3 0 0 1 1,-0.16 2.52,2.52 0 0 1 1.17,0.27 2,2 0 0 1 0.84,0.79 2.45,2.45 0 0 1 0.34,1.37 v 3.55 h -0.72 v -3.5 a 1.75,1.75 0 0 0 -0.48,-1.38 1.93,1.93 0 0 0 -1.28,-0.41 2.07,2.07 0 0 0 -1.5,0.59 2.4,2.4 0 0 0 -0.6,1.79 v 2.91 z"
     id="path52" />
  <path
     class="cls-1"
     d="M 77.26,76.44 80,68 h 1.37 l 2.74,8.4 h -0.8 L 82.59,74.17 H 78.78 L 78.06,76.4 Z M 79,73.51 h 3.38 l -1.62,-5 h -0.14 z"
     id="path53" />
  <path
     class="cls-1"
     d="M 85.49,76.44 V 68 h 0.77 v 8.4 z"
     id="path54" />
  <path
     class="cls-1"
     d="m 93.23,76.61 a 2.82,2.82 0 0 1 -1.11,-0.21 1.79,1.79 0 0 1 -0.78,-0.62 1.6,1.6 0 0 1 -0.29,-1 1.51,1.51 0 0 1 0.29,-1 1.73,1.73 0 0 1 0.77,-0.58 3,3 0 0 1 1.1,-0.19 h 2.13 v -0.47 a 1.43,1.43 0 0 0 -0.41,-1.1 1.59,1.59 0 0 0 -1.18,-0.4 1.84,1.84 0 0 0 -1.22,0.38 1.9,1.9 0 0 0 -0.61,1 l -0.69,-0.2 a 2.52,2.52 0 0 1 0.45,-0.93 2.18,2.18 0 0 1 0.83,-0.66 2.77,2.77 0 0 1 1.24,-0.25 2.38,2.38 0 0 1 1.71,0.58 2.12,2.12 0 0 1 0.6,1.61 v 2.83 c 0,0.24 0.12,0.36 0.34,0.36 H 97 v 0.62 h -0.77 a 0.76,0.76 0 0 1 -0.58,-0.22 0.82,0.82 0 0 1 -0.22,-0.61 v -0.08 h -0.12 a 2.68,2.68 0 0 1 -0.4,0.52 1.84,1.84 0 0 1 -0.64,0.4 2.65,2.65 0 0 1 -1.04,0.22 z m 0,-0.65 a 2,2 0 0 0 1.49,-0.56 2.09,2.09 0 0 0 0.57,-1.57 v -0.15 h -2.07 a 1.87,1.87 0 0 0 -1,0.27 0.92,0.92 0 0 0 -0.41,0.84 1,1 0 0 0 0.42,0.87 1.87,1.87 0 0 0 1.05,0.34 z"
     id="path55" />
  <path
     class="cls-1"
     d="M 98.33,76.44 V 70.61 H 99 v 1.08 h 0.14 a 2.13,2.13 0 0 1 0.71,-0.83 2.32,2.32 0 0 1 1.43,-0.37 2.63,2.63 0 0 1 1.16,0.26 2.17,2.17 0 0 1 0.85,0.8 2.61,2.61 0 0 1 0.32,1.34 v 3.55 h -0.73 v -3.5 a 1.75,1.75 0 0 0 -0.48,-1.38 1.86,1.86 0 0 0 -1.28,-0.42 2.07,2.07 0 0 0 -1.5,0.59 2.44,2.44 0 0 0 -0.6,1.8 v 2.91 z"
     id="path56" />
  <path
     class="cls-1"
     d="m 108.2,76.61 a 2.74,2.74 0 0 1 -1.42,-0.37 2.66,2.66 0 0 1 -1,-1 3.16,3.16 0 0 1 -0.38,-1.6 v -0.15 a 3.26,3.26 0 0 1 0.37,-1.6 2.59,2.59 0 0 1 1,-1 2.8,2.8 0 0 1 1.43,-0.37 2.93,2.93 0 0 1 1.09,0.18 2,2 0 0 1 0.72,0.44 2.08,2.08 0 0 1 0.44,0.57 h 0.14 V 68 h 0.73 v 8.4 h -0.7 v -1.03 h -0.14 a 2.46,2.46 0 0 1 -0.79,0.86 2.56,2.56 0 0 1 -1.49,0.38 z m 0.16,-0.65 a 2.16,2.16 0 0 0 1.62,-0.63 2.43,2.43 0 0 0 0.61,-1.76 v -0.09 a 2.39,2.39 0 0 0 -0.61,-1.75 2.35,2.35 0 0 0 -3.22,0 2.36,2.36 0 0 0 -0.63,1.75 v 0.09 a 2.4,2.4 0 0 0 0.63,1.76 2.15,2.15 0 0 0 1.6,0.67 z"
     id="path57" />
  <path
     class="cls-1"
     d="M 116.5,76.44 V 68 h 3.29 a 3.28,3.28 0 0 1 1.37,0.27 2.15,2.15 0 0 1 0.94,0.76 2,2 0 0 1 0.34,1.2 v 0.12 a 2,2 0 0 1 -0.41,1.34 1.84,1.84 0 0 1 -1,0.64 v 0.15 a 1.08,1.08 0 0 1 0.71,0.26 1,1 0 0 1 0.29,0.81 v 2.85 h -0.77 v -2.73 a 0.79,0.79 0 0 0 -0.21,-0.59 0.9,0.9 0 0 0 -0.63,-0.2 h -3.19 v 3.56 z m 0.77,-4.26 h 2.45 a 2.1,2.1 0 0 0 1.44,-0.44 1.56,1.56 0 0 0 0.51,-1.25 v -0.06 a 1.55,1.55 0 0 0 -0.5,-1.25 2.1,2.1 0 0 0 -1.45,-0.44 h -2.45 z"
     id="path58" />
  <path
     class="cls-1"
     d="m 126.76,76.61 a 3.1,3.1 0 0 1 -1.55,-0.38 2.63,2.63 0 0 1 -1,-1 3.35,3.35 0 0 1 -0.36,-1.58 V 73.5 a 3.28,3.28 0 0 1 0.36,-1.57 2.59,2.59 0 0 1 1,-1.06 3.35,3.35 0 0 1 3.1,0 2.51,2.51 0 0 1 1,1.06 3.17,3.17 0 0 1 0.37,1.57 v 0.15 a 3.24,3.24 0 0 1 -0.37,1.58 2.54,2.54 0 0 1 -1,1 3.1,3.1 0 0 1 -1.55,0.38 z m 0,-0.65 a 2.12,2.12 0 0 0 1.63,-0.65 2.49,2.49 0 0 0 0.6,-1.74 v -0.09 a 2.49,2.49 0 0 0 -0.6,-1.74 2.12,2.12 0 0 0 -1.63,-0.65 2.15,2.15 0 0 0 -1.63,0.65 2.49,2.49 0 0 0 -0.6,1.74 v 0.09 a 2.49,2.49 0 0 0 0.6,1.74 2.15,2.15 0 0 0 1.63,0.69 z"
     id="path59" />
  <path
     class="cls-1"
     d="m 134.65,76.61 a 2.56,2.56 0 0 1 -1.49,-0.38 2.33,2.33 0 0 1 -0.78,-0.86 h -0.15 v 1.07 h -0.7 V 68 h 0.73 v 3.59 h 0.14 a 2.08,2.08 0 0 1 0.44,-0.57 2,2 0 0 1 0.73,-0.44 2.91,2.91 0 0 1 1.08,-0.18 2.75,2.75 0 0 1 1.43,0.37 2.59,2.59 0 0 1 1,1 3.26,3.26 0 0 1 0.37,1.6 v 0.15 a 3.26,3.26 0 0 1 -0.37,1.6 2.76,2.76 0 0 1 -1,1 2.71,2.71 0 0 1 -1.43,0.49 z m -0.16,-0.65 a 2.15,2.15 0 0 0 1.61,-0.63 2.44,2.44 0 0 0 0.62,-1.76 v -0.09 a 2.4,2.4 0 0 0 -0.62,-1.75 2.35,2.35 0 0 0 -3.22,0 2.36,2.36 0 0 0 -0.62,1.75 v 0.09 a 2.4,2.4 0 0 0 0.62,1.76 2.15,2.15 0 0 0 1.61,0.67 z"
     id="path60" />
  <path
     class="cls-1"
     d="m 142,76.61 a 3.1,3.1 0 0 1 -1.55,-0.38 2.63,2.63 0 0 1 -1,-1 A 3.35,3.35 0 0 1 139,73.6 v -0.15 a 3.28,3.28 0 0 1 0.36,-1.57 2.59,2.59 0 0 1 1,-1.06 3.1,3.1 0 0 1 1.55,-0.38 3.16,3.16 0 0 1 1.56,0.38 2.63,2.63 0 0 1 1,1.06 3.28,3.28 0 0 1 0.36,1.57 v 0.15 a 3.35,3.35 0 0 1 -0.36,1.58 2.67,2.67 0 0 1 -1,1 3.16,3.16 0 0 1 -1.47,0.43 z m 0,-0.65 a 2.12,2.12 0 0 0 1.63,-0.65 2.49,2.49 0 0 0 0.6,-1.74 v -0.09 a 2.49,2.49 0 0 0 -0.6,-1.74 2.12,2.12 0 0 0 -1.63,-0.65 2.15,2.15 0 0 0 -1.63,0.65 2.49,2.49 0 0 0 -0.6,1.74 v 0.09 a 2.49,2.49 0 0 0 0.6,1.74 A 2.15,2.15 0 0 0 142,76 Z"
     id="path61" />
  <path
     class="cls-1"
     d="m 148.59,76.44 a 0.93,0.93 0 0 1 -0.7,-0.24 0.9,0.9 0 0 1 -0.24,-0.67 v -4.27 h -1.87 v -0.65 h 1.87 v -2.18 h 0.72 v 2.18 h 2 v 0.65 h -2 v 4.17 a 0.32,0.32 0 0 0 0.36,0.36 h 1.37 v 0.65 z"
     id="path62" />
  <path
     class="cls-1"
     d="m 152.38,69.6 a 0.61,0.61 0 0 1 -0.45,-0.18 0.6,0.6 0 0 1 -0.17,-0.44 0.57,0.57 0 0 1 0.17,-0.45 0.62,0.62 0 0 1 1.07,0.47 0.64,0.64 0 0 1 -0.17,0.44 0.61,0.61 0 0 1 -0.45,0.16 z M 152,76.44 v -5.83 h 0.72 v 5.83 z"
     id="path63" />
  <path
     class="cls-1"
     d="m 157.51,76.61 a 3,3 0 0 1 -1.51,-0.37 2.53,2.53 0 0 1 -1.05,-1 3.16,3.16 0 0 1 -0.39,-1.6 v -0.12 a 3.19,3.19 0 0 1 0.39,-1.62 2.57,2.57 0 0 1 1.05,-1 3.31,3.31 0 0 1 2.94,0 2.52,2.52 0 0 1 0.91,0.83 2.61,2.61 0 0 1 0.41,1.07 l -0.71,0.15 a 2.1,2.1 0 0 0 -0.3,-0.86 1.77,1.77 0 0 0 -0.67,-0.63 2.49,2.49 0 0 0 -2.21,0.06 2.18,2.18 0 0 0 -0.79,0.83 2.56,2.56 0 0 0 -0.3,1.27 v 0.09 a 2.56,2.56 0 0 0 0.3,1.27 2.11,2.11 0 0 0 0.79,0.83 2.3,2.3 0 0 0 1.14,0.29 2,2 0 0 0 1.47,-0.5 2.17,2.17 0 0 0 0.62,-1.21 l 0.71,0.14 a 2.79,2.79 0 0 1 -0.45,1.07 2.63,2.63 0 0 1 -0.92,0.83 3,3 0 0 1 -1.43,0.18 z"
     id="path64" />
  <path
     class="cls-1"
     d="m 164.4,76.61 a 3.2,3.2 0 0 1 -1.8,-0.5 2.3,2.3 0 0 1 -0.92,-1.67 l 0.71,-0.13 a 2,2 0 0 0 0.39,1 1.56,1.56 0 0 0 0.72,0.52 2.66,2.66 0 0 0 0.9,0.16 2,2 0 0 0 1.16,-0.3 0.92,0.92 0 0 0 0.44,-0.81 0.74,0.74 0 0 0 -0.42,-0.73 4,4 0 0 0 -1.09,-0.32 l -0.56,-0.1 a 4.1,4.1 0 0 1 -1,-0.29 1.75,1.75 0 0 1 -0.7,-0.54 1.28,1.28 0 0 1 -0.26,-0.84 1.41,1.41 0 0 1 0.59,-1.19 2.69,2.69 0 0 1 1.58,-0.43 2.62,2.62 0 0 1 1.6,0.45 2,2 0 0 1 0.76,1.3 l -0.67,0.15 a 1.39,1.39 0 0 0 -0.57,-1 2,2 0 0 0 -1.12,-0.28 2,2 0 0 0 -1.06,0.25 0.82,0.82 0 0 0 -0.39,0.74 0.75,0.75 0 0 0 0.36,0.7 2.74,2.74 0 0 0 1,0.33 l 0.55,0.1 a 5.31,5.31 0 0 1 1.08,0.28 2,2 0 0 1 0.77,0.52 1.39,1.39 0 0 1 0.28,0.89 1.48,1.48 0 0 1 -0.63,1.28 2.82,2.82 0 0 1 -1.7,0.46 z"
     id="path65" />
</svg>
